<?xml version="1.0" encoding="utf-8"?>
<!DOCTYPE svg PUBLIC "-//W3C//DTD SVG 1.0//EN" "http://www.w3.org/TR/2001/REC-SVG-20010904/DTD/svg10.dtd">
<svg version="1.0" xmlns="http://www.w3.org/2000/svg" width="346px" height="77px" viewBox="0 0 346 77" preserveAspectRatio="xMidYMid meet">
 <g fill="#2c3d4f">
  <path d="M0 38.50 l0 -38.50 173 0 173 0 0 38.50 0 38.50 -173 0 -173 0 0 -38.50z m270.70 30.40 c0.65 -0.95 0.80 -2.90 0.80 -11.40 0 -7.35 0.15 -10.45 0.60 -10.90 0.35 -0.35 1.40 -0.60 2.40 -0.60 1.70 0 1.90 0.15 2.40 1.90 0.55 1.95 2.80 13.75 3.35 17.60 0.50 3.60 0.70 4 2.05 4 0.70 0 1.30 -0.30 1.40 -0.60 0.15 -0.60 1.10 -6.10 2.35 -13.90 0.30 -1.80 0.75 -4.10 1 -5.10 0.45 -1.85 0.55 -1.90 2.65 -1.90 1.60 0 2.30 0.25 2.60 0.90 0.20 0.45 0.45 5.25 0.60 10.70 0.20 9 0.30 9.85 1.10 10.05 0.50 0.15 1.40 -0.10 1.95 -0.50 1 -0.70 1.05 -1.15 1.05 -13.75 0 -11.60 0.10 -13.20 0.85 -14 0.80 -0.90 0.80 -1.05 0 -2.35 -0.75 -1.25 -0.85 -3.15 -0.85 -14.50 0 -12.35 -0.05 -13.05 -0.95 -13.55 -1.10 -0.55 -3.20 -0.65 -4.90 -0.20 -0.80 0.20 -1.20 0.80 -1.40 1.90 -0.35 2.30 -2.05 13.95 -3.25 22.80 -0.60 4.25 -1.40 8.25 -1.80 8.90 -0.50 0.80 -1.20 1.10 -2.45 1.10 -1.40 0 -1.85 -0.25 -2.50 -1.50 -0.40 -0.80 -0.90 -2.55 -1.05 -3.85 -0.35 -3 -1.95 -13.85 -3.30 -22.40 -0.55 -3.60 -1.25 -6.65 -1.60 -6.85 -0.65 -0.45 -4.40 -0.50 -5.50 -0.10 -0.70 0.25 -0.80 1.95 -0.80 13.65 0 12.80 -0.05 13.40 -1.05 14.45 l-1 1.10 1 1.35 c1 1.20 1.05 1.90 1.05 14.70 0 14.20 -0.10 13.50 2.10 13.90 0.20 0 0.70 -0.45 1.10 -1.05z m-119.70 -13.55 c0 -12.55 0.05 -13.10 1.05 -14.15 l1.05 -1.10 -1.05 -1.05 c-1 -1 -1.05 -1.60 -1.05 -10.45 0 -11.10 0.10 -11.35 4.20 -11.85 2.60 -0.35 2.70 -0.45 3 -2 0.20 -0.95 0.20 -2.25 0 -2.95 l-0.30 -1.30 -9.25 0 -9.20 0 0.15 2.85 0.15 2.90 2.85 0.45 c4.20 0.60 4.50 1.45 4.30 12.50 -0.15 8.15 -0.20 8.80 -1.25 9.90 l-1.10 1.15 1.25 1.40 1.20 1.40 0 12.95 0 12.95 1.40 0.15 c2.60 0.35 2.60 0.30 2.60 -13.75z m178.50 11.30 c0 -1.60 -0.60 -6.50 -1.25 -10.90 -1.35 -8.80 -1.55 -13.25 -0.65 -14.70 0.45 -0.75 0.35 -1.20 -0.50 -2.45 -1.10 -1.50 -2.05 -6.95 -3.60 -20.55 -0.80 -7.40 -0.90 -7.55 -4.20 -7.55 -1.55 0 -2.90 0.25 -3.20 0.65 -0.65 0.75 -1.40 5.05 -2.10 12.25 -0.95 9.40 -1.80 13.55 -3 15.20 -0.80 1.10 -0.95 1.65 -0.55 2.05 0.90 0.90 0.65 7.10 -0.70 16.15 -0.70 4.65 -1.25 9.30 -1.25 10.35 0 1.90 0 1.90 1.85 1.75 l1.90 -0.15 0.80 -5.50 c0.45 -3.30 1.15 -6.05 1.65 -6.85 0.85 -1.30 1.20 -1.40 4.05 -1.40 2.90 0 3.25 0.10 4.45 1.55 1.50 1.75 1.65 2.30 2 7.70 0.30 4.25 0.90 5.25 3.15 5.25 1.05 0 1.15 -0.20 1.15 -2.85z m-207.30 0.25 c0.15 -1.20 0.85 -6.40 1.55 -11.65 0.70 -5.20 1.35 -10.25 1.50 -11.20 0.10 -0.95 0.70 -2.20 1.30 -2.85 1 -1.10 1.05 -1.35 0.45 -2.45 -0.85 -1.60 0.10 -10.40 2.80 -26.60 0.25 -1.65 0.25 -1.65 -1.75 -1.65 -1.70 0 -2.05 0.20 -2.30 1.15 -0.40 2 -2.65 19.35 -3.75 29.35 -0.70 6.30 -1.35 7.50 -3.80 7.50 -1.50 0 -1.85 -0.20 -2.45 -1.70 -0.40 -0.90 -0.85 -3.20 -1 -5.10 -0.45 -5.35 -3.30 -28.30 -3.65 -29.70 -0.30 -1 -0.75 -1.30 -2.25 -1.40 -1.25 -0.10 -1.85 0.05 -1.85 0.50 0 0.35 0.55 4.35 1.25 8.90 1.60 10.80 2.10 18.20 1.25 19.20 -0.50 0.65 -0.45 0.95 0.20 1.60 1.45 1.40 1.80 2.55 2.30 7.45 0.45 4.55 2.20 16.40 2.80 19.40 0.25 1.30 0.35 1.35 3.70 1.35 l3.45 0 0.25 -2.10z m74.30 -7.70 c0.30 -10.75 0.40 -11.20 3.60 -11.20 1.85 0 2 0.15 2.95 2.25 0.55 1.25 2 5.80 3.20 10.05 1.25 4.25 2.35 7.95 2.50 8.25 0.20 0.25 1.30 0.45 2.50 0.45 l2.15 0 -0.65 -2.35 c-0.35 -1.35 -1.15 -3.95 -1.70 -5.90 -2.75 -8.85 -4.60 -14.90 -6 -19.40 -0.85 -2.70 -1.55 -5.95 -1.55 -7.20 0 -1.95 2.40 -9 7.75 -22.75 0.30 -0.75 0.05 -0.90 -1.45 -0.90 -2.10 0 -2 -0.10 -4.80 7.25 -2.70 7.30 -3.05 7.75 -5.50 7.75 -1.45 0 -2.10 -0.25 -2.50 -0.95 -0.25 -0.55 -0.50 -3.65 -0.50 -6.90 0 -3.25 -0.20 -6.20 -0.45 -6.55 -0.20 -0.40 -0.95 -0.60 -1.60 -0.50 l-1.20 0.15 -0.25 13.55 c-0.20 12.10 -0.35 13.70 -1.15 14.55 -0.85 0.95 -0.80 1.05 0.15 2.30 0.95 1.20 1 2 1 14.60 l0 13.30 1.65 -0.15 1.60 -0.15 0.25 -9.55z m43.40 7.85 c0.10 -0.95 0.05 -2.20 -0.10 -2.85 -0.30 -1.15 -0.50 -1.20 -5.30 -1.20 -6.75 0 -6.50 0.45 -6.50 -11.85 0 -8.85 0.10 -9.75 0.95 -10.45 0.90 -0.80 0.90 -0.85 0 -1.75 -0.90 -0.90 -0.95 -1.90 -0.95 -13.90 0 -7.15 -0.15 -13.30 -0.30 -13.75 -0.20 -0.50 -0.90 -0.80 -2 -0.80 l-1.65 0 -0.15 13.80 -0.15 13.75 -1.20 0.90 -1.20 0.90 1.20 0.85 1.20 0.80 0.15 13.75 0.15 13.80 7.85 -0.15 7.85 -0.15 0.15 -1.70z m13.60 -11.15 c0 -12 0.10 -13.30 0.95 -14.70 0.90 -1.50 0.90 -1.55 0 -2.75 -0.85 -1.10 -0.95 -2.30 -0.95 -14.55 l0 -13.40 -1.75 0 -1.75 0 0 13.15 c0 12.25 -0.05 13.20 -1 14.75 l-1 1.65 1 1.30 c0.95 1.20 1 2 1 14.45 l0 13.20 1.75 0 1.75 0 0 -13.10z m-70 -16.65 l0 -2.25 -8.35 0.10 -8.40 0.15 -0.15 2.15 -0.15 2.10 8.50 0 8.55 0 0 -2.25z"/>
  <path d="M316 47.50 c-0.70 -1.30 0.15 -10.75 1.10 -11.85 0.35 -0.40 1.25 -0.65 2.30 -0.55 2.25 0.20 2.60 1.25 2.75 8.15 l0.10 5 -2.85 0.15 c-2.45 0.15 -2.90 0 -3.40 -0.90z"/>
 </g>
 <g fill="#ffffff">
  <path d="M62.55 75.10 c-0.95 -0.45 -2.20 -1.50 -2.75 -2.25 -1 -1.40 -1.05 -2.05 -1.20 -23.75 -0.15 -24.95 -0.15 -24.60 3.35 -26.95 1.65 -1.10 2.10 -1.15 13 -1.15 10.35 0 11.45 0.10 12.90 1 3.45 2.10 3.40 1.75 3.40 26.50 0 21.35 -0.05 22.30 -1 23.95 -1.95 3.25 -3.15 3.55 -15.25 3.55 -9.25 0 -11 -0.10 -12.45 -0.90z m25.15 -2.75 c1.20 -1.20 2.15 -5.20 1.40 -5.95 -0.20 -0.20 -6.70 -0.35 -14.40 -0.30 l-13.95 0.15 -0.15 1.45 c-0.10 0.75 0.10 2.05 0.45 2.85 1.15 2.85 1.60 2.95 14.10 2.95 11.20 0 11.40 0 12.55 -1.15z m1.70 -25.70 l0.10 -17.15 -14.50 0 -14.50 0 0 16.90 c0 9.30 0.15 17.10 0.35 17.25 0.20 0.20 6.65 0.30 14.35 0.25 l14.05 -0.15 0.15 -17.10z m-0.40 -20.10 c0 -0.55 -0.70 -1.55 -1.55 -2.25 l-1.55 -1.30 -10.65 0 c-7.05 0 -11.15 0.20 -11.95 0.60 -1.50 0.65 -3 2.70 -2.55 3.40 0.20 0.30 5.80 0.50 14.30 0.50 13.40 0 13.95 -0.05 13.95 -0.95z"/>
  <path d="M70.25 70.50 c-0.20 -0.30 -0.05 -0.90 0.30 -1.30 0.45 -0.55 1.55 -0.70 4.65 -0.60 3.75 0.15 4.05 0.25 4.20 1.30 0.15 1.05 0.05 1.10 -4.35 1.10 -2.60 0 -4.65 -0.20 -4.80 -0.50z"/>
  <path d="M72.65 58 c-4.95 -1.15 -8.10 -7.05 -6.70 -12.35 0.65 -2.30 3.45 -5.65 4.75 -5.65 1.10 0 1 1.15 -0.25 2.30 -1.50 1.35 -2.95 4.40 -2.95 6.20 0 2.20 1.75 5.40 3.65 6.50 1 0.65 2.50 1 4 1 2.10 0 2.65 -0.25 4.45 -1.95 1.90 -1.75 2.10 -2.15 2.30 -5 0.20 -2.70 0.05 -3.30 -1.10 -5.05 -0.70 -1.10 -1.55 -2 -1.80 -2 -0.30 0 -0.50 -0.45 -0.50 -1 0 -2.15 2.50 -0.80 4.30 2.30 3.30 5.60 0.45 13.15 -5.55 14.65 -2.40 0.60 -2.35 0.60 -4.60 0.05z"/>
  <path d="M74 42.75 c0 -7.20 0.05 -7.80 0.90 -7.65 0.75 0.15 0.85 0.90 0.85 7.65 0 6.75 -0.10 7.50 -0.85 7.65 -0.85 0.15 -0.90 -0.45 -0.90 -7.65z"/>
  <path d="M63.55 38.80 c-0.35 -0.40 -0.55 -1.80 -0.45 -3.40 l0.15 -2.65 3.40 -0.15 c2.75 -0.10 3.35 0 3.35 0.60 0 0.75 -0.90 1.10 -3.50 1.40 -1.05 0.15 -1.25 0.45 -1.40 2.15 -0.20 2.35 -0.70 3.05 -1.55 2.05z"/>
  <path d="M266.90 71.15 c-0.85 -0.20 -0.90 -1.30 -0.90 -13.70 l0 -13.50 -1.75 -1.80 c-0.95 -1 -1.75 -1.95 -1.75 -2.10 0 -0.20 0.80 -1.05 1.75 -2 l1.75 -1.65 0 -13.40 c0 -11.75 0.10 -13.45 0.80 -13.70 1.10 -0.40 7.85 -0.35 8.50 0.10 0.55 0.30 2.30 9.65 2.95 15.35 0.15 1.40 0.60 4.50 1.05 6.90 0.40 2.45 0.85 5.55 1 6.95 0.15 1.40 0.60 3.20 1.05 4.05 l0.80 1.55 0.85 -1.05 c0.75 -0.95 1.85 -7 2.75 -14.90 0.20 -1.70 1.75 -12.25 2.50 -17.05 0.30 -1.85 1.15 -2.20 5.40 -2.20 5.15 0 4.85 -0.90 4.85 14.25 l0 13.20 1.50 1.70 c0.85 0.95 1.50 1.95 1.50 2.15 0 0.25 -0.70 1.10 -1.50 1.90 l-1.50 1.45 0 13.15 c0 13 0 13.15 -1.10 13.90 -1.15 0.85 -2.85 1 -4.70 0.50 -1.05 -0.30 -1.10 -0.60 -1.30 -10.10 -0.25 -10 -0.45 -11.60 -1.70 -11.60 -0.75 0 -1.30 1.90 -2.15 7.25 -0.35 1.95 -0.80 4.75 -1.05 6.25 -0.30 1.50 -0.60 3.75 -0.75 5 -0.35 2.85 -1.35 3.65 -4 3.25 -2.35 -0.35 -2.55 -0.60 -3 -4.20 -0.85 -6.85 -3.60 -19.55 -4.20 -19.55 -1.35 0 -1.55 1.60 -1.55 11.50 0 11.80 -0.20 12.55 -3.40 12.45 -1 -0.05 -2.25 -0.15 -2.70 -0.30z"/>
  <path d="M113.50 70.65 c0 0 -0.55 -3.65 -1.25 -8 -0.70 -4.40 -1.45 -10.20 -1.75 -12.90 -0.50 -4.95 -1.25 -6.85 -3.10 -8.15 -1.20 -0.85 -1.15 -2.25 0.15 -3.40 0.95 -0.85 1 -1.30 0.70 -3.95 -0.15 -1.65 -0.45 -4.15 -0.55 -5.60 -0.15 -1.40 -0.75 -5.90 -1.35 -10 -1.50 -9.95 -1.55 -9.65 2.40 -9.65 3.85 0 4.15 0.35 4.50 5.35 0.15 1.85 0.75 6.65 1.30 10.65 0.55 4 1.20 9.80 1.45 12.90 0.30 3.10 0.85 6.45 1.30 7.50 l0.75 1.85 0.90 -1.10 c0.60 -0.75 1.10 -2.75 1.50 -6.50 1.15 -10.10 3.40 -27.55 3.80 -29.55 0.25 -1 0.55 -1.10 3.75 -1.10 l3.50 0 0 1.65 c0 0.85 -0.45 4.30 -0.95 7.60 -0.55 3.30 -1.10 7.25 -1.25 8.80 -0.15 1.55 -0.50 4.30 -0.80 6.15 -0.50 3.30 -0.50 3.45 0.75 5.05 0.70 0.95 1.25 1.80 1.25 2 0 0.15 -0.80 0.95 -1.75 1.80 -1.05 0.95 -1.80 2.10 -1.95 3.10 -0.80 5.35 -2.40 17.45 -2.55 19.35 -0.30 3.50 -0.80 6 -1.15 6 -1.40 0.10 -9.60 0.25 -9.60 0.15z"/>
  <path d="M146 70.50 c-0.40 -0.25 -0.55 -4.40 -0.55 -13.25 l-0.05 -12.85 -2 -2.20 -2 -2.15 1.85 -1.70 1.85 -1.70 0.15 -7.45 c0.15 -9.60 -0.15 -10.40 -4.15 -11 -2.70 -0.45 -2.85 -0.50 -3.20 -2.20 -0.20 -0.95 -0.20 -2.95 -0.05 -4.35 l0.30 -2.65 10.60 0 c10.60 0 10.65 0 10.95 1.10 0.35 1.50 0.40 4.35 0 6.30 -0.30 1.40 -0.50 1.50 -3 1.85 -4.05 0.50 -4.20 0.90 -4.20 10.40 l0 7.90 1.85 1.70 1.90 1.70 -1.90 1.95 -1.85 1.90 0 13.05 c0 10.40 -0.15 13.15 -0.70 13.60 -0.70 0.60 -4.85 0.65 -5.80 0.05z"/>
  <path d="M193.90 70.65 l-2.40 -0.20 0 -13.40 0 -13.40 -1.85 -1.80 -1.85 -1.85 1.75 -1.80 1.70 -1.75 0.25 -13.60 0.25 -13.60 2.70 -0.15 c1.85 -0.10 2.85 0.05 3.10 0.50 0.25 0.35 0.45 3.35 0.45 6.70 0 4.35 0.20 6.25 0.70 6.95 1.10 1.50 2 0.35 4.10 -5.15 1 -2.70 2.25 -5.80 2.75 -6.95 l0.90 -2.15 3.75 0 c2.10 0 3.80 0.10 3.80 0.25 0 0.15 -2 5.65 -4.50 12.20 -2.45 6.60 -4.50 12.30 -4.50 12.75 0 0.40 0.70 2.95 1.55 5.65 1.50 4.90 4 13.05 6.20 20.15 0.60 2.05 1.50 5.05 2 6.60 1.25 4.10 1 4.40 -3.30 4.20 -1.95 -0.10 -3.75 -0.40 -4 -0.65 -0.25 -0.25 -1.45 -3.95 -2.65 -8.25 -2.55 -9 -4 -12.60 -4.90 -12.30 -1.55 0.50 -1.90 2.65 -1.90 11.45 0 6.10 -0.20 8.95 -0.60 9.35 -0.35 0.35 -0.70 0.55 -0.85 0.50 -0.20 -0.05 -1.35 -0.15 -2.65 -0.25z"/>
  <path d="M230.15 70.65 c-5.60 -0.15 -7.65 -0.35 -7.65 -0.80 0 -0.30 -0.05 -6.45 -0.10 -13.65 l-0.15 -13.05 -1.60 -1.35 c-0.90 -0.75 -1.65 -1.60 -1.65 -1.90 0 -0.25 0.75 -1.20 1.65 -2 l1.60 -1.55 0.10 -13.05 c0.10 -7.15 0.15 -13.35 0.15 -13.65 0 -1.05 6.30 -0.90 6.70 0.15 0.15 0.45 0.30 6.60 0.30 13.70 l0 12.95 1.50 1.55 c0.85 0.85 1.50 1.70 1.50 1.95 0 0.20 -0.65 1 -1.50 1.70 l-1.50 1.35 0 8.15 c0 10.60 -0.15 10.35 6.45 10.35 5.70 0 5.55 -0.15 5.55 4.95 0 3.70 -0.50 4.60 -2.45 4.45 -0.75 -0.05 -4.75 -0.20 -8.90 -0.25z"/>
  <path d="M249.15 70.65 c-0.50 -0.20 -0.65 -3.35 -0.65 -13.45 l0 -13.20 -1.75 -1.95 c-2 -2.20 -2.15 -2.80 -0.75 -3.55 2.30 -1.20 2.50 -2.60 2.50 -16.50 l0 -13 3.25 0 3.25 0 0 13.40 0 13.40 1.85 2.20 1.85 2.15 -1.30 1.05 c-2.30 1.90 -2.40 2.50 -2.40 16.45 l0 13.15 -2.60 0.05 c-1.45 0.05 -2.95 -0.05 -3.25 -0.20z"/>
  <path d="M307 70.50 c-0.60 -0.35 0.05 -7.60 1.50 -17.10 1.35 -8.75 1.35 -10.65 -0.25 -11.70 -1.60 -1.05 -1.60 -2.35 0 -3.40 0.65 -0.45 1.55 -1.45 1.90 -2.20 0.65 -1.25 1.90 -9.30 2.60 -16.60 0.45 -4.85 1.25 -9.15 1.85 -9.90 0.35 -0.40 1.95 -0.60 4.70 -0.60 3.90 0 4.25 0.10 4.65 1.15 0.50 1.25 1.40 7.60 1.80 12.35 0.55 6.25 1.75 13.05 2.55 14.30 0.45 0.70 1.25 1.45 1.75 1.75 1.30 0.65 1.20 1.65 -0.30 3.25 -1.10 1.20 -1.20 1.60 -0.95 4.65 0.10 1.80 0.65 6.15 1.20 9.60 1.10 7 1.60 13.10 1.15 14.20 -0.30 0.90 -4.65 1.05 -6.15 0.25 -0.90 -0.45 -1.20 -2 -1.75 -8.65 -0.10 -0.85 -0.15 -1.75 -0.20 -1.95 -0.05 -0.15 -0.65 -1 -1.35 -1.85 -0.95 -1.15 -1.70 -1.55 -2.95 -1.55 -2.40 0 -3.45 2.05 -4.25 8.25 -0.35 2.75 -0.85 5.25 -1.10 5.55 -0.45 0.60 -5.55 0.75 -6.40 0.20z m13.85 -24.30 c0.35 -0.95 -0.70 -8.75 -1.25 -9.30 -0.85 -0.85 -1.60 1 -2 4.75 -0.20 2.10 -0.20 4.15 0 4.60 0.60 1 2.85 0.95 3.25 -0.05z"/>
  <path d="M33.25 63.50 c-0.15 -0.25 0.05 -1 0.45 -1.60 1.15 -1.65 1 -2.95 -0.70 -4.90 -1.85 -2.15 -2.20 -3.10 -1.80 -5.25 0.30 -1.55 2.70 -4.25 3.85 -4.25 0.90 0 0.45 1.65 -0.80 2.80 -1.75 1.60 -1.60 3.50 0.40 5.60 1.30 1.35 1.60 2.05 1.60 3.85 0 2.75 -2.05 5.30 -3 3.75z"/>
  <path d="M41.80 63.55 c-0.15 -0.25 0.05 -1.10 0.45 -1.85 1.05 -2.05 0.95 -2.85 -0.75 -4.45 -2.55 -2.45 -2.60 -6.25 -0.15 -8.55 2.65 -2.45 3.70 -0.85 1.15 1.70 -0.80 0.85 -1.50 1.85 -1.50 2.25 0 0.40 0.80 1.70 1.75 2.90 1.35 1.70 1.75 2.65 1.75 4.20 0 2.75 -1.80 5.25 -2.70 3.80z"/>
  <path d="M50 63.15 c0 -0.50 0.35 -1.35 0.75 -1.85 1.05 -1.40 0.95 -2.05 -0.80 -4 -2.05 -2.35 -2.60 -4.45 -1.70 -6.55 0.80 -2.05 3.05 -3.65 3.85 -2.85 0.40 0.40 0.10 1.05 -1.05 2.40 -1.30 1.45 -1.55 2.10 -1.30 3.15 0.20 0.70 0.65 1.50 1.05 1.70 2 1.15 2.80 5.45 1.40 7.60 -0.95 1.45 -2.20 1.65 -2.20 0.40z"/>
  <path d="M165.10 39.40 l0.15 -3.65 9.90 -0.15 9.85 -0.10 0 3.75 0 3.75 -10 0 -10.05 0 0.15 -3.60z"/>
  <path d="M21.75 41.55 c-2.45 -0.60 -4.15 -2 -5.25 -4.30 -1 -2.05 -1.05 -2.80 -0.90 -15.35 l0.15 -13.25 1.40 -1.80 c2.70 -3.55 0.75 -3.40 36.80 -3.25 32.15 0.15 32.50 0.15 33.90 1.20 2.65 2 3.40 3.95 3.40 9.20 0 4.10 -0.10 4.75 -0.85 4.90 -0.80 0.15 -0.90 -0.30 -0.90 -4.25 0 -4.85 -0.75 -6.80 -3.35 -8.50 -1.25 -0.85 -3.35 -0.90 -32.90 -0.90 -30.10 0 -31.55 0.05 -32.90 0.95 -2.70 1.85 -2.85 2.65 -2.85 16.30 0 13.90 0.15 14.70 3.15 16.50 2.65 1.65 3.20 1.35 5.20 -2.75 l1.85 -3.75 13.90 0 c12 0 13.90 0.10 13.90 0.75 0 0.65 -1.75 0.75 -12.90 0.75 -14.15 0 -13.50 -0.15 -15 3 -1.35 2.90 -2.10 2.75 13.40 3 12.20 0.20 14.25 0.35 14.25 1 0 0.65 -2.15 0.75 -16 0.85 -8.80 0 -16.70 -0.10 -17.50 -0.30z"/>
  <path d="M48.10 24.85 c-1.35 -1.60 1.60 -9.15 4.50 -11.60 3.30 -2.80 9.45 -4.50 9.80 -2.70 0.10 0.60 -0.40 0.90 -1.95 1.15 -2.70 0.45 -4.80 1.50 -7.10 3.70 -1.90 1.85 -3.85 6.05 -3.85 8.35 0 1.45 -0.70 2 -1.40 1.10z"/>
  <path d="M53.85 24.85 c-0.45 -1.20 0.65 -4.60 1.95 -6 1.60 -1.75 4 -2.95 5.35 -2.75 1.70 0.25 1.30 1.55 -0.55 1.95 -2.30 0.45 -4 2.25 -4.80 4.90 -0.65 2.35 -1.50 3.10 -1.95 1.90z"/>
  <path d="M22.70 15.95 c-0.15 -0.30 -0.10 -0.75 0.20 -1.05 0.65 -0.65 1.60 -0.10 1.60 0.90 0 0.80 -1.30 0.95 -1.80 0.15z"/>
  <path d="M27.60 15.65 c0.25 -1.25 1.40 -1.40 1.40 -0.20 0 0.60 -0.30 1.05 -0.80 1.05 -0.45 0 -0.70 -0.35 -0.60 -0.85z"/>
  <path d="M85 14.05 c0 -3.50 -0.95 -4.05 -6.65 -4.05 -3.30 0 -4.40 -0.15 -4.25 -0.60 0.15 -0.45 1.80 -0.70 5.30 -0.80 6.40 -0.15 7.10 0.30 7.10 4.90 0 2.35 -0.15 3 -0.75 3 -0.55 0 -0.75 -0.60 -0.75 -2.45z"/>
  <path d="M22.80 11.05 c-0.70 -1.10 1.25 -1.60 6 -1.45 4.25 0.15 4.95 0.25 5.10 1.05 0.15 0.75 -0.35 0.85 -5.35 0.85 -3 0 -5.60 -0.20 -5.75 -0.45z"/>
  <path d="M69.80 10.15 c-0.60 -0.60 -0.30 -1.65 0.45 -1.65 0.40 0 0.75 0.30 0.75 0.70 0 0.85 -0.70 1.40 -1.20 0.95z"/>
 </g>
</svg>