<?xml version="1.0" encoding="utf-8"?>
<!DOCTYPE svg PUBLIC "-//W3C//DTD SVG 1.0//EN" "http://www.w3.org/TR/2001/REC-SVG-20010904/DTD/svg10.dtd">
<svg version="1.0" xmlns="http://www.w3.org/2000/svg" width="354px" height="85px" viewBox="0 0 354 85" preserveAspectRatio="xMidYMid meet">
 <g fill="#fefefe">
  <path d="M0 42.5 l0 -42.5 4.5 0 c5 0 5.4 0.8 2.9 5.9 -1.3 2.6 -1.6 8.3 -1.7 36.1 l-0.2 32.9 2.3 2.3 2.3 2.3 166 0.3 c186.1 0.2 171.2 0.9 172.4 -7 0.3 -2.4 0.5 -17.6 0.3 -33.8 -0.3 -25.7 -0.5 -29.9 -2 -32.9 -2.8 -5.3 -2.4 -6.1 2.7 -6.1 l4.5 0 0 42.5 0 42.5 -177 0 -177 0 0 -42.5z"/>
  <path d="M76.7 74.2 c-1 -1 -1.7 -3.5 -1.7 -5.4 l0 -3.6 -7 -0.7 c-4.8 -0.5 -7 -1.1 -7 -2 0 -0.9 -1.5 -1.5 -4.2 -1.7 -4.2 -0.3 -4.3 -0.4 -4.6 -4 -0.3 -3.7 -0.2 -3.8 3.1 -3.8 3.1 0 3.5 -0.3 3.9 -3 l0.5 -3 -8.4 0 -8.3 0 0 -3 c0 -1.7 0.9 -3.9 2 -5 1.1 -1.1 2 -2.7 2 -3.5 0 -1 1.1 -1.5 3.5 -1.5 3.2 0 3.5 0.2 3.5 3 l0 3 11.5 0 11.5 0 0 3.5 c0 2.4 -0.5 3.5 -1.5 3.5 -1.1 0 -1.5 1.2 -1.5 5.3 0 2.8 0.4 5.7 0.8 6.3 0.4 0.6 3.4 1.4 6.7 1.8 4.9 0.5 5.6 0.4 4 -0.5 -3.5 -2.2 -4.4 -4.3 -4.5 -10.1 0 -3.2 -0.4 -5.8 -1 -5.8 -0.5 0 -1 -1.8 -1 -4 0 -3.4 -0.3 -4 -2.1 -4 -2.1 0 -2.1 -0.3 -1.5 -7.2 0.4 -5 0.3 -6.6 -0.4 -5 -0.7 1.7 -1.8 2.2 -4.5 2.2 -3.4 0 -3.5 -0.1 -3.5 -3.6 0 -2.7 0.5 -3.7 2 -4.1 1.1 -0.3 2 -1.2 2 -1.9 0 -0.9 1.2 -1.4 3.5 -1.4 2.8 0 3.5 0.4 3.5 2 0 1.5 0.7 2 2.6 2 l2.6 0 -0.4 7.5 c-0.3 6.7 -0.1 7.5 1.4 7.5 1.3 0 1.8 0.8 1.8 3 0 1.7 0.5 3 1 3 0.6 0 1 -0.9 1 -2 0 -1.6 0.7 -2 3.5 -2 2.8 0 3.5 0.4 3.5 2 0 1.3 0.7 2 1.8 2 2.7 0 4.2 2 4.2 5.7 0 3 -0.3 3.3 -3 3.3 -1.6 0 -3 0.5 -3 1 0 0.6 1.4 1 3.1 1 2.9 0 3 0.2 2.7 3.7 -0.2 2.8 -0.9 4.1 -2.8 5.1 -2.2 1.1 -1.8 1.2 3.8 0.6 l6.2 -0.7 0 6.6 c0 9.5 -0.3 9.7 -16.4 9.7 -11.6 0 -13.5 -0.2 -14.9 -1.8z"/>
  <path d="M255.5 70.8 c-0.3 -0.7 -0.6 -6.5 -0.7 -12.8 -0.3 -9.4 -0.6 -11.5 -1.8 -11.5 -1.2 0 -1.5 2.2 -1.8 12.3 l-0.3 12.2 -5.4 0 -5.5 0 0 -11.9 c0 -6.9 -0.4 -12.2 -1 -12.6 -0.5 -0.3 -1 -2.4 -1 -4.5 0 -2.1 0.5 -4.2 1 -4.5 0.6 -0.4 1 -5.7 1 -12.6 l0 -11.9 5.5 0 5.5 0 0 12.4 c0 10 0.3 12.5 1.5 12.9 2.2 0.9 2.6 -0.6 2.6 -10.5 0 -5.1 0.3 -10.5 0.5 -12.1 0.5 -2.6 0.8 -2.7 6.8 -2.7 l6.3 0 1.3 8.8 c1.7 12.1 2.7 13.1 3.5 3.6 1.2 -12.1 1.3 -12.4 8.5 -12.4 l6 0 0 11.9 c0 9.4 0.3 12.1 1.5 13.1 2.4 2 5.5 -1.4 5.6 -5.9 0 -2 0.6 -7 1.3 -11.1 l1.2 -7.5 6.4 0 6.5 0 1.2 7 c0.6 3.9 1.2 8.9 1.2 11.1 0.1 2.3 0.7 4.7 1.5 5.3 1 0.9 1.5 4 1.6 11.4 0.1 5.6 0.2 13.1 0.3 16.7 l0.2 6.5 -5 0 -5 0 -0.7 -4.8 c-0.4 -2.7 -0.9 -5.2 -1.3 -5.5 -1.1 -1.1 -2.5 2.2 -2.5 6.1 l0 3.7 -5.5 0 -5.5 0 0 -3.3 c0 -1.9 0.5 -7.1 1.1 -11.6 1.2 -8.9 0.5 -11.6 -2.6 -9.1 -1.2 1 -1.5 3.6 -1.5 13.1 l0 11.9 -5 0 c-4.5 0 -5 -0.2 -5.1 -2.2 l0 -2.3 -1 2.3 c-0.7 2 -1.5 2.3 -5.1 2 -3.5 -0.2 -4.3 -0.7 -4.9 -2.8 l-0.7 -2.5 -0.1 2.8 c-0.1 2.6 -0.3 2.7 -5.1 2.7 -3.1 0 -5.2 -0.5 -5.5 -1.2z"/>
  <path d="M122.5 69.8 c-0.2 -0.7 -0.9 -5.6 -1.5 -10.8 -0.6 -5.2 -1.7 -10.5 -2.5 -11.7 -1 -1.4 -1.4 -4.5 -1.3 -9 0.1 -3.7 -0.2 -11 -0.6 -16 l-0.9 -9.3 5.1 0 c2.8 0 5.3 0.4 5.6 0.9 0.3 0.5 1.1 5.5 1.8 11.2 l1.2 10.4 1.6 -11 1.5 -11 5.4 -0.3 5.4 -0.3 -0.9 9.3 c-0.4 5.1 -0.7 12.4 -0.6 16.1 0.1 4.4 -0.3 7.6 -1.2 9 -0.8 1.2 -1.9 6.3 -2.6 11.2 -1.7 13.3 -1.1 12.5 -8.6 12.5 -4.3 0 -6.6 -0.4 -6.9 -1.2z"/>
  <path d="M151 59.6 c0 -8.9 -0.3 -11.6 -1.5 -12.6 -0.8 -0.7 -1.5 -2.7 -1.5 -4.5 0 -1.8 0.7 -3.8 1.5 -4.5 1.8 -1.5 2 -9.3 0.3 -10.8 -0.7 -0.5 -2.2 -1.2 -3.3 -1.4 -1.7 -0.3 -2 -1.1 -2 -6.3 l0 -6 11.5 0 11.5 0 0 6 c0 5.2 -0.3 6 -2 6.3 -1.1 0.2 -2.6 0.9 -3.2 1.4 -1.8 1.5 -1.6 9.3 0.2 10.8 0.8 0.7 1.5 2.7 1.5 4.5 0 1.8 -0.7 3.8 -1.5 4.5 -1.2 1 -1.5 3.7 -1.5 12.6 l0 11.4 -5 0 -5 0 0 -11.4z"/>
  <path d="M190.8 59.4 l-0.3 -11.7 -11.2 0.2 -11.3 0.2 0 -6.1 0 -6.1 11.5 0.3 11.5 0.3 0 -11.8 0 -11.8 4.7 0.3 c4 0.3 4.8 0.6 5.3 2.7 l0.5 2.4 1.2 -2.7 c1.1 -2.4 1.8 -2.6 6.8 -2.6 5.4 0 5.5 0 5.5 3 0 1.6 -1.6 7.1 -3.6 12.1 l-3.7 9 2.2 7.2 c4.5 14.4 6.1 20.7 6.1 23.7 0 3 0 3 -5.9 3 l-5.8 0 -1.6 -5.2 -1.5 -5.3 -0.1 5.3 -0.1 5.2 -5 0 -4.9 0 -0.3 -11.6z"/>
  <path d="M217.8 59.5 c-0.3 -7 -0.9 -12 -1.6 -12.7 -1.6 -1.6 -1.4 -6.9 0.3 -9.2 1.1 -1.5 1.5 -4.9 1.5 -13.3 l0 -11.3 5 0 5 0 0 11.9 c0 9.3 0.3 12.1 1.5 13.1 0.8 0.7 1.5 2.7 1.5 4.5 0 1.8 -0.7 3.8 -1.5 4.5 -1.8 1.5 -2 9.1 -0.3 10.8 0.7 0.7 3.1 1.2 5.5 1.2 l4.3 0 0 6 0 6 -10.4 0 -10.3 0 -0.5 -11.5z"/>
  <path d="M101 32.5 c0 -3.3 0.2 -3.5 3.5 -3.5 3.3 0 3.5 0.2 3.5 3.5 0 3.3 -0.2 3.5 -3.5 3.5 -3.3 0 -3.5 -0.2 -3.5 -3.5z"/>
  <path d="M97 16.5 c0 -3.3 0.2 -3.5 3.5 -3.5 3.3 0 3.5 0.2 3.5 3.5 0 3.3 -0.2 3.5 -3.5 3.5 -3.3 0 -3.5 -0.2 -3.5 -3.5z"/>
  <path d="M38 15.5 c0 -1.9 0.5 -3.5 1 -3.5 0.6 0 1 -0.6 1 -1.4 0 -1.7 2.2 -2.6 6.1 -2.6 2.6 0 2.9 0.3 2.9 3.4 0 2.6 -0.5 3.6 -2 4.1 -1.1 0.3 -2 1.3 -2 2.1 0 0.9 -1.1 1.4 -3.5 1.4 -3.3 0 -3.5 -0.2 -3.5 -3.5z"/>
  <path d="M59 11.5 c0 -3.3 0.2 -3.5 3.5 -3.5 3.3 0 3.5 0.2 3.5 3.5 0 3.3 -0.2 3.5 -3.5 3.5 -3.3 0 -3.5 -0.2 -3.5 -3.5z"/>
 </g>
 <g fill="#efeeee">
  <path d="M7 81.7 c-5 -2.5 -5.1 -3.6 -4.6 -40.7 0.2 -19 0.7 -35.5 1.1 -36.7 0.4 -1.3 1.4 -2.3 2.1 -2.3 1.2 0 1.4 6 1.4 36 0 34.7 0.1 36.1 2 38 2 2 3.3 2 167.8 2 141.7 0 166.1 -0.2 167.8 -1.4 1.8 -1.4 1.9 -3 1.9 -39 0 -24.6 0.3 -37.5 1 -37.3 0.6 0.2 1.7 1.7 2.5 3.3 1.2 2.4 1.6 8.9 1.8 35.4 0.2 17.9 0 34.4 -0.3 36.8 -1.2 7.8 13.8 7.2 -174.2 7.2 -132.6 0 -168.3 -0.3 -170.3 -1.3z"/>
  <path d="M76.7 75.3 c-0.9 -0.8 -0.9 -7.3 -0.1 -7.3 0.3 0 1.5 1.1 2.6 2.5 1.1 1.4 2.6 2.5 3.4 2.5 0.8 0 1.4 0.7 1.4 1.5 0 1 -1 1.5 -3.3 1.5 -1.9 0 -3.7 -0.3 -4 -0.7z"/>
  <path d="M93 74.6 c0 -0.8 0.8 -1.7 1.8 -1.9 1.6 -0.4 1.6 -0.5 0 -0.6 -3.2 -0.2 -2.1 -3.1 1.2 -3.1 1.9 0 3.4 -0.7 4.2 -2 0.7 -1.1 2.1 -2 3 -2 1 0 1.8 -0.4 1.8 -0.9 0 -0.5 -0.9 -0.7 -2 -0.4 -1.7 0.5 -1.8 0.1 -1.3 -3.1 0.5 -3.1 0.3 -3.6 -1.5 -3.6 -1.1 0 -2.2 0.8 -2.5 2 -0.4 1.7 -1.4 2 -6 2 -3.6 0 -6.1 -0.5 -7.1 -1.5 -2.1 -2.2 -2.6 -1.9 -2.6 1.6 0 2.6 -0.3 3.1 -2 2.6 -1.3 -0.3 -2 0 -2 0.9 0 1.7 -2.6 1.9 -3.3 0.2 -0.4 -1 -0.6 -1 -0.6 0 -0.1 0.9 -2.9 1.2 -10.6 1.2 l-10.5 0 0 -3.4 c0 -1.9 -0.5 -3.8 -1.1 -4.2 -0.7 -0.4 -1 -2.7 -0.7 -6 l0.5 -5.4 -4.8 0 c-3.1 0 -5.5 -0.6 -7 -1.9 -2.3 -1.9 -2.4 -2.3 -2.4 -17.5 0 -14.7 0.1 -15.6 2.2 -17.5 2.1 -2 3.3 -2.1 33.6 -2.1 30.6 0 31.4 0.1 33.3 2.1 1.8 2 1.9 4 1.9 32.3 0 35.2 0.4 33.6 -9.4 33.6 -4.6 0 -6.1 -0.3 -6.1 -1.4z m-18 -27.6 l0 -7 -9.9 0 c-7 0 -10.4 0.4 -11.3 1.3 -0.7 0.8 -2 1.6 -2.8 2 -1.2 0.4 -1.1 0.6 0.3 0.6 0.9 0.1 1.7 0.8 1.7 1.6 0 1.2 1.4 1.5 6.5 1.5 3.7 0 6.5 0.4 6.5 1 0 0.6 1.6 1 3.5 1 3.1 0 3.5 0.3 3.5 2.5 0 1.4 0.5 2.5 1 2.5 0.6 0 1 -3 1 -7z m20.2 1.3 c0.3 -4.6 0.4 -4.8 3.6 -5.1 3.1 -0.3 3.3 -0.6 3 -3.5 -0.3 -3.1 -0.4 -3.2 -6 -3.5 -5.3 -0.3 -5.8 -0.1 -5.8 1.8 0 1.6 -0.6 2 -3.4 2 -2.4 0 -3.6 -0.5 -3.9 -1.7 -0.3 -1 -0.5 0.3 -0.6 3 -0.1 3.5 0.3 4.7 1.4 4.7 0.9 0 1.2 0.6 0.9 1.8 -0.5 1.6 -0.5 1.6 0.6 0 1.5 -2.4 3 -2.2 3 0.3 0 2.4 2.6 4.8 5.2 4.9 1.3 0 1.8 -1.1 2 -4.7z m-47.2 -13.9 c0 -1.1 2.7 -1.4 13.8 -1.5 7.5 -0.1 12.7 -0.4 11.5 -0.6 -1.3 -0.2 -2.3 -0.9 -2.3 -1.4 0 -0.5 -1.1 -0.9 -2.5 -0.9 -2.3 0 -2.5 -0.4 -2.5 -4.5 0 -3.1 0.5 -4.7 1.5 -5.1 0.8 -0.4 1.5 -1.4 1.5 -2.4 0 -1 0.8 -2.1 1.8 -2.3 0.9 -0.3 -1.6 -0.5 -5.5 -0.6 l-7.3 -0.1 0 3.1 0 3.1 -7 -0.4 -7 -0.3 0 6.7 c0 3.6 0.3 7.3 0.6 8.2 0.7 1.8 3.4 1 3.4 -1z m49.6 -13 c-0.3 -0.9 -0.6 -2.7 -0.6 -4 0 -2.3 -0.2 -2.4 -7.5 -2.4 l-7.5 0 0 4 0 4 8.1 0 c7 0 8 -0.2 7.5 -1.6z"/>
  <path d="M80.2 70.8 c-1.9 -1.9 -1.4 -3 1 -2.6 1.3 0.2 2.4 1.1 2.6 2.1 0.4 2 -1.8 2.3 -3.6 0.5z"/>
  <path d="M122.6 71.2 c-0.3 -0.5 -0.8 -3.9 -1.2 -7.5 -0.6 -5.8 -0.4 -6.7 0.9 -6.7 1.5 0 2.1 1.9 3 9 0.1 1 1.5 1.6 3.9 1.8 4.1 0.3 4.2 0.1 5.3 -8.3 1 -8.5 1.6 -10.5 3.1 -10.5 1.7 0 1.7 3.3 0.1 14.5 l-1.2 8 -6.7 0.3 c-3.6 0.2 -6.9 -0.1 -7.2 -0.6z"/>
  <path d="M150.7 71.3 c-0.4 -0.3 -0.7 -5.7 -0.7 -11.8 0 -8.8 -0.3 -11.5 -1.5 -12.5 -0.8 -0.7 -1.5 -2.7 -1.5 -4.5 0 -1.8 0.7 -3.8 1.5 -4.5 1 -0.8 1.5 -3.1 1.5 -6.6 0 -5.3 0 -5.4 -3 -5.4 l-3 0 0 -6.5 0 -6.5 3.5 0 c3.9 0 4.9 2.4 1.4 3.3 -2.8 0.7 -2.3 6 0.6 6.5 3.8 0.7 4.5 2.2 4.5 9.7 0 5.3 -0.4 7.6 -1.5 8.5 -1.4 1.2 -1.4 1.5 0 3 1.2 1.3 1.5 4.2 1.5 12.8 0 10.5 0.1 11.2 2 11.2 1.7 0 2 -0.7 2 -4 0 -3.3 0.3 -4 2 -4 2.2 0 2.5 1.6 1.4 8.3 -0.7 3.7 -0.7 3.7 -5.4 3.7 -2.6 0 -5 -0.3 -5.3 -0.7z"/>
  <path d="M191 68.5 c0 -2.4 0.5 -3.5 1.5 -3.5 0.8 0 1.5 0.7 1.5 1.5 0 0.8 0.9 1.5 2 1.5 1.1 0 2 -0.7 2 -1.5 0 -0.8 0.7 -1.5 1.5 -1.5 1 0 1.5 1.1 1.5 3.5 l0 3.5 -5 0 -5 0 0 -3.5z"/>
  <path d="M205 70.6 c0 -0.8 -0.4 -1.6 -0.8 -1.8 -0.5 -0.1 -1.9 -3.4 -3.1 -7.3 -1.2 -3.8 -2.4 -7.4 -2.6 -8 -0.3 -0.5 -0.1 -1.6 0.4 -2.4 1.6 -2.6 3.7 0.4 6.1 8.9 2.2 7.7 2.4 8 5.2 8 2.6 0 2.9 -0.3 2.2 -2.2 -0.4 -1.3 -1.3 -4.3 -2 -6.8 -0.6 -2.5 -2.4 -8.4 -4 -13.3 l-2.7 -8.7 3.4 -8.7 c3.8 -9.5 5.9 -11.6 5.9 -5.9 0 2 -0.4 3.6 -1 3.6 -0.5 0 -1 1.1 -1 2.4 0 1.3 -0.5 2.6 -1 2.8 -2 0.6 -0.9 17.8 1.1 17.8 0.5 0 0.9 1.4 0.9 3 0 1.7 0.4 3 0.8 3 1.1 0 3.2 8.4 3.2 13 l0 4 -5.5 0 c-4.1 0 -5.5 -0.4 -5.5 -1.4z"/>
  <path d="M217.7 71.3 c-0.4 -0.3 -0.7 -6 -0.7 -12.5 0 -7.2 -0.4 -11.8 -1 -11.8 -0.5 0 -1 -2 -1 -4.4 0 -2.5 0.5 -4.8 1 -5.1 0.6 -0.4 1 -5.7 1 -12.6 l0 -11.9 3.5 0 c2.4 0 3.5 0.5 3.5 1.5 0 0.8 -0.7 1.5 -1.5 1.5 -1.2 0 -1.5 1.9 -1.5 11.3 0 8.2 -0.4 11.9 -1.4 13.3 -1.1 1.4 -1.1 2.2 -0.3 3.2 0.6 0.8 1.3 6.5 1.5 12.8 l0.5 11.4 7.3 0 c5.9 0 7.4 -0.3 7.4 -1.5 0 -0.8 0.7 -1.5 1.5 -1.5 1 0 1.5 1.1 1.5 3.5 l0 3.5 -10.3 0 c-5.7 0 -10.7 -0.3 -11 -0.7z"/>
  <path d="M240 68.5 c0 -2.4 0.5 -3.5 1.5 -3.5 0.8 0 1.5 0.7 1.5 1.5 0 0.9 0.9 1.5 2.5 1.5 1.6 0 2.5 -0.6 2.5 -1.5 0 -0.8 0.7 -1.5 1.5 -1.5 1 0 1.5 1.1 1.5 3.5 l0 3.5 -5.5 0 -5.5 0 0 -3.5z"/>
  <path d="M255 62 c0 -7.9 0.3 -10 1.4 -10 1.9 0 2.5 3.4 2 10.3 -0.4 5.2 -0.2 5.9 1.6 6.4 3.5 0.9 2.4 3.3 -1.5 3.3 l-3.5 0 0 -10z"/>
  <path d="M265.1 60.8 c-1.5 -7.7 -1.9 -11.4 -1.1 -12.2 1.8 -1.8 3 0.7 4.6 10 2.4 13.6 4.6 14 6.8 1.2 1.4 -7.8 2.1 -9.8 3.6 -9.8 1.3 0 2.5 7.1 1.3 7.9 -0.6 0.3 -1.3 2.9 -1.7 5.6 -1.2 8.5 -1.2 8.5 -6.5 8.5 l-4.8 0 -2.2 -11.2z"/>
  <path d="M291 67.3 c0 -2.7 0.3 -7.2 0.6 -10 0.6 -4.4 1 -5.3 2.6 -5.3 1.7 0 1.9 0.5 1.4 4 -0.3 2.2 -0.9 5.8 -1.2 8 -0.5 3.8 -0.4 4 2 4 2.3 0 2.6 -0.4 2.6 -3.8 0 -6.5 4.8 -10.6 8 -6.7 0.7 0.8 1.5 3.6 1.8 6.1 0.3 2.6 1.1 4.8 1.9 5.1 3.1 1.2 3.5 -1.3 2 -12.2 -1.2 -8.1 -1.3 -11.2 -0.4 -12.6 0.9 -1.4 0.7 -2.2 -0.6 -3.7 -1 -1 -1.7 -3.6 -1.8 -5.8 0 -2.1 -0.6 -7 -1.2 -10.9 l-1.2 -7 -3.5 0 -3.4 0 -1.2 7.5 c-0.7 4.1 -1.3 9.1 -1.3 11.1 -0.1 2.3 -0.8 4.3 -2.1 5.4 -1.8 1.7 -1.9 2 -0.5 3.5 1.9 2.1 1 7 -1.3 7 -1.7 0 -1.4 -5.7 1.5 -26.2 l1.6 -11.8 6.7 0 6.8 0 0.5 3.3 c0.3 1.7 1.1 7.6 1.8 13 0.9 6.8 1.6 9.7 2.6 9.7 1.6 0 1.8 6.7 0.3 7.2 -0.7 0.2 -0.7 2.5 0 7.3 0.5 3.9 1 9.6 1 12.8 l0 5.7 -5.5 0 c-5.3 0 -5.5 -0.1 -5.5 -2.7 0 -3.8 -1 -7.3 -2.1 -7.3 -0.4 0 -1.1 2.3 -1.5 5 l-0.7 5 -5.3 0 -5.4 0 0 -4.7z"/>
  <path d="M120 52.1 c0 -2.6 -0.5 -4.1 -1.6 -4.5 -1.2 -0.5 -1.5 -2 -1.3 -7.8 0.2 -4 -0.1 -10.3 -0.5 -14 -0.8 -5.9 -0.7 -6.8 0.7 -6.8 1 0 1.8 1.2 2.2 3.3 2.1 12.4 2.5 16.9 1.6 18.4 -0.6 1.1 -0.4 2.4 0.4 3.7 0.8 1.2 1.7 4.2 2 6.9 0.7 4.3 0.6 4.7 -1.4 4.7 -1.8 0 -2.1 -0.6 -2.1 -3.9z"/>
  <path d="M127.6 46.8 c-0.3 -1.3 -0.8 -4.5 -1.1 -7.3 -0.3 -2.7 -0.8 -6.9 -1.1 -9.2 -0.6 -3.9 -0.4 -4.3 1.4 -4.3 1.7 0 2.1 0.7 2.4 3.8 0.2 2.5 0.7 0.4 1.7 -6.5 l1.3 -10.3 3.4 0 c2.4 0 3.4 0.5 3.4 1.5 0 0.8 -0.6 1.5 -1.4 1.5 -0.8 0 -1.7 0.3 -1.9 0.8 -0.3 0.4 -1.2 6.8 -2.1 14.2 -2.1 17 -2.3 18 -4.1 18 -0.8 0 -1.7 -1 -1.9 -2.2z"/>
  <path d="M158 47.3 c0 -0.9 0.7 -2.4 1.5 -3.3 1.4 -1.5 1.4 -1.8 0 -3 -2.2 -1.8 -1.9 -5 0.5 -5 1.3 0 2 0.7 2 2 0 1.1 0.5 2 1 2 1.4 0 1.2 6.4 -0.2 7.8 -1.8 1.8 -4.8 1.5 -4.8 -0.5z"/>
  <path d="M186.8 48.3 c-4 -0.4 -5.2 -2.7 -1.9 -3.6 1 -0.2 2.1 -1.7 2.5 -3.3 1 -3.8 2.4 -5.4 4.7 -5.4 2.3 0 2.5 3.2 0.4 5 -1.4 1.2 -1.4 1.5 0 3 2.1 2.3 1.9 5 -0.2 4.8 -1 -0.1 -3.5 -0.3 -5.5 -0.5z"/>
  <path d="M238.2 46.8 c-0.7 -0.7 -1.2 -2.7 -1.2 -4.5 0 -3 0.3 -3.3 3.1 -3.3 2.7 0 3 0.2 1.9 1.5 -1 1.2 -1 1.9 -0.2 2.7 0.7 0.7 1.2 2 1.2 3 0 2.1 -3 2.4 -4.8 0.6z"/>
  <path d="M248 46.1 c0 -0.9 0.6 -2.3 1.3 -3 1 -1.1 1 -1.4 0 -1.8 -2.2 -0.8 -1.5 -4.3 0.7 -4.3 1.1 0 2 0.5 2 1.2 0 0.9 0.3 0.9 1.2 0 1.8 -1.8 4.8 -1.5 4.8 0.6 0 1 -0.5 2.3 -1.1 2.9 -0.8 0.8 -0.8 1.3 0 1.7 0.6 0.4 1.1 1.5 1.1 2.5 0 1.6 -0.8 1.9 -5 1.9 -4 0 -5 -0.4 -5 -1.7z"/>
  <path d="M137.2 44.8 c1.1 -1.7 1.3 -2.9 0.6 -4.2 -0.6 -1.1 -0.6 -4.2 0.2 -8.9 1.8 -11.8 2.1 -12.7 3.6 -12.7 1.7 0 1.8 3.4 0.3 11.5 -0.8 4.3 -0.8 6.4 0.1 8 0.6 1.2 1 3.5 0.8 5.1 -0.3 2.5 -0.8 2.9 -3.7 3.2 -3.4 0.3 -3.4 0.3 -1.9 -2z"/>
  <path d="M167 42 l0 -5 3.5 0 c1.9 0 3.5 0.5 3.5 1 0 0.6 -0.7 1 -1.5 1 -1 0 -1.5 1 -1.5 3 0 2 0.5 3 1.5 3 0.8 0 1.5 0.5 1.5 1 0 0.6 -1.6 1 -3.5 1 l-3.5 0 0 -5z"/>
  <path d="M270.2 41.3 c-1.2 -4.5 -4.2 -20.9 -4.2 -22.5 0 -0.5 0.9 -0.8 1.9 -0.8 1.5 0 2 1 2.6 5.3 1.2 8.4 2.2 8.5 2.9 0.3 0.4 -4.2 0.9 -8.3 1.3 -9.1 0.7 -2.1 7.3 -2 7.3 0 0 0.8 -0.6 1.5 -1.4 1.5 -2.3 0 -2.6 1.2 -4.2 13.3 -1.9 14.7 -2.3 16.7 -3.8 16.7 -0.7 0 -1.8 -2.1 -2.4 -4.7z"/>
  <path d="M302.2 42.3 c0.2 -1.7 0.9 -2.8 1.8 -2.8 0.9 0 1.6 1.1 1.8 2.8 0.3 2.2 -0.1 2.7 -1.8 2.7 -1.7 0 -2.1 -0.5 -1.8 -2.7z"/>
  <path d="M255 23.5 l0 -10.5 3.5 0 c2.4 0 3.5 0.5 3.5 1.5 0 0.8 -0.6 1.5 -1.4 1.5 -1.8 0 -2.6 3.2 -1.9 7.5 0.8 4.7 -0.5 10.5 -2.2 10.5 -1.2 0 -1.5 -2 -1.5 -10.5z"/>
  <path d="M158.2 26.9 c0.3 -2.2 1.6 -3.2 5.1 -4.3 2.5 -0.8 2.3 -5.6 -0.3 -6.3 -3.5 -0.9 -2.4 -3.3 1.5 -3.3 l3.5 0 0 6.5 0 6.5 -3 0 c-2 0 -3 0.5 -3 1.5 0 0.9 -0.9 1.5 -2.1 1.5 -1.5 0 -2 -0.5 -1.7 -2.1z"/>
  <path d="M198.5 27.9 c-0.4 -0.5 -0.1 -2.4 0.6 -4.1 0.8 -1.9 0.9 -3.2 0.2 -3.6 -0.5 -0.4 -1.2 -1.5 -1.6 -2.4 -0.3 -1 -1.3 -1.8 -2.2 -1.8 -0.8 0 -1.5 -0.7 -1.5 -1.5 0 -1 1.1 -1.5 3.5 -1.5 3.4 0 3.5 0.1 3.6 3.8 0.1 3.8 0.3 3.7 1.3 -1 0.6 -2.4 1.1 -2.8 4.1 -2.8 3.8 0 5 2.4 1.6 3.3 -1.2 0.3 -2.7 2.6 -4.1 6.6 -2.1 5.7 -4 7.5 -5.5 5z"/>
  <path d="M124.4 20.9 c-0.5 -2.9 -1.3 -4.3 -2.5 -4.6 -3.3 -0.9 -2.2 -3.3 1.5 -3.3 3.1 0 3.4 0.3 4 3.8 1 6 0.7 8.2 -0.9 8.2 -1 0 -1.7 -1.4 -2.1 -4.1z"/>
 </g>
 <g fill="#cdcdcd">
  <path d="M6 79 c-2.7 -2.7 -2.7 -8 -0.1 -8 1 0 2.1 0.7 2.5 1.5 0.5 1.3 5.1 1.5 33.6 1.5 l33 0 0 -2.7 c0 -1.6 0.3 -3.9 0.6 -5.3 0.4 -1.6 0.3 -2.1 -0.3 -1.3 -0.6 0.9 -4.2 1.2 -12 1.2 l-11 -0.1 -0.7 -5.2 c-0.9 -7.6 -0.7 -12.6 0.4 -12.6 0.6 0 1 -0.6 1 -1.3 0 -1 -1.4 -1.3 -5.5 -0.9 -5.1 0.4 -5.5 0.3 -5.5 -1.7 0 -1.6 -0.6 -2.1 -2.5 -2.1 l-2.5 0 0 -14.6 c0 -15.1 0.7 -18.4 4 -18.4 1.1 0 2 -0.4 2 -1 0 -0.6 10.7 -1 30 -1 19.3 0 30 0.4 30 1 0 0.6 0.9 1 2 1 1 0 2.4 0.8 2.9 1.8 0.6 1.1 0.8 14 0.6 32.5 l-0.3 30.7 117.8 0 c103.4 0 117.9 -0.2 119 -1.5 0.7 -0.8 2.1 -1.5 3.3 -1.5 1.7 0 1.9 0.5 1.4 3.7 -0.4 2.1 -1.4 4.4 -2.4 5 -1.3 1 -36.8 1.3 -170.5 1.3 -167.5 0 -168.8 0 -170.8 -2z m97.8 -7.2 c0.7 -0.7 1.2 -1.9 1.2 -2.7 0 -1.1 -0.5 -0.9 -1.6 0.7 -1.4 2 -2.3 2.2 -11.8 2.2 -10.8 0 -12.6 -0.7 -12.6 -4.7 0 -2.3 0.1 -2.3 12.5 -2.3 7.7 0 12.5 0.4 12.5 1 0 0.6 0.5 1 1.1 1 0.7 0 1 -5.7 0.7 -18.5 -0.3 -16 -0.5 -18.6 -2 -20 -1 -0.8 -1.3 -1 -0.8 -0.3 2.7 3.3 1.2 3.8 -11.5 3.8 -10.2 0 -12.5 -0.3 -12.5 -1.4 0 -2.5 2.1 -3.1 12.5 -3.7 l10 -0.5 -9.5 -0.2 c-11.9 -0.2 -14.1 0.9 -13.9 7.1 0.1 2.4 0.4 3.2 0.6 1.9 0.4 -2.2 0.6 -2.3 13.1 -2 l12.7 0.3 0 15 0 15 -12.7 0.3 c-12.3 0.2 -12.8 0.2 -12.8 -1.8 0 -1.6 0.7 -2 3 -2 2 0 3 -0.5 3 -1.5 0 -1 -1 -1.5 -3 -1.5 -2.1 0 -3 -0.5 -3.1 -1.7 -0.1 -1.7 -0.2 -1.7 -0.6 0 -0.2 0.9 -0.9 1.7 -1.4 1.7 -0.5 0 -0.9 0.7 -0.9 1.5 0 0.8 0.5 1.5 1 1.5 0.6 0 1 2.1 1 4.6 0 8.1 0.5 8.4 13.3 8.4 7.5 0 11.7 -0.4 12.5 -1.2z m-10 -3.5 c-1 -0.2 -2.8 -0.2 -4 0 -1.3 0.2 -0.5 0.4 1.7 0.4 2.2 0.1 3.2 -0.1 2.3 -0.4z m-37.4 -11.8 c-1.5 -2.8 -1.6 -3.6 -0.5 -4.9 0.8 -1 0.9 -1.6 0.3 -1.6 -2 0 -2.4 4 -0.7 6.6 0.9 1.5 1.4 3.4 1 4.7 -0.5 2 -0.5 2 0.6 0.4 0.9 -1.5 0.7 -2.6 -0.7 -5.2z m8.6 3.3 c0 -1.2 -0.8 -3 -1.7 -4 -1.4 -1.6 -1.5 -2.3 -0.5 -3.9 0.7 -1 0.8 -1.9 0.3 -1.9 -1.9 0 -2.3 4.1 -0.6 6.7 0.9 1.4 1.5 3.4 1.2 4.4 -0.3 1 -0.1 1.7 0.4 1.3 0.5 -0.3 0.9 -1.5 0.9 -2.6z m5.6 -4 c-1.8 -2.6 -2.2 -1.7 -0.5 1.4 0.6 1.1 1.3 1.7 1.6 1.5 0.3 -0.3 -0.2 -1.6 -1.1 -2.9z m25.8 0.1 c3.5 -2.7 3.7 -8.7 0.4 -11.5 -2.3 -1.9 -2.3 -1.9 -0.5 0.2 2.5 3 2.2 8.9 -0.5 10.8 -3.1 2.2 -5.8 2 -8.5 -0.6 -2.7 -2.5 -3 -6.3 -0.7 -9.8 l1.6 -2.5 -2.1 2.4 c-2.8 3.2 -2.7 7.6 0.4 10.6 3 3 6.4 3.2 9.9 0.4z m-16.3 -6.9 c0.5 0 0.9 -0.9 0.9 -2 0 -1.1 -0.4 -2 -0.9 -2 -0.6 0 -1.2 -1.5 -1.4 -3.2 -0.3 -2.9 -0.4 -2.7 -0.5 1 -0.2 3 -0.6 4.2 -1.7 4.2 -0.8 0 -1.5 0.5 -1.5 1 0 0.6 0.7 1 1.5 1 0.8 0 1.6 0.8 1.6 1.8 0.1 1.6 0.2 1.6 0.6 0 0.2 -1 0.9 -1.8 1.4 -1.8z m11.6 -7.2 c-0.2 -1.8 -0.4 -0.4 -0.4 3.2 0 3.6 0.2 5 0.4 3.3 0.2 -1.8 0.2 -4.8 0 -6.5z m-29.2 1.5 c-6.6 -0.2 -12.3 -0.7 -12.8 -1.2 -0.4 -0.4 0.2 -1.9 1.3 -3.2 1.5 -1.6 2.3 -2 2.6 -1.1 0.7 1.5 17.4 1.7 17.4 0.2 0 -0.5 0.8 -1.1 1.8 -1.1 1.6 -0.1 1.6 -0.2 0 -0.6 -1 -0.2 -1.8 -1.1 -1.8 -1.8 0 -0.7 0.8 -1.6 1.8 -1.8 0.9 -0.3 -0.4 -0.5 -3 -0.6 l-4.8 -0.1 0 -4.6 c0 -5.2 1.2 -8 4.8 -11.1 l2.5 -2.3 -6.6 0 -6.7 0 0 3.5 c0 2.8 -0.4 3.5 -2 3.5 -1.3 0 -2 0.7 -2 2 0 1.7 -0.7 2 -5 2 l-5 0 0.1 7.3 c0.1 6.2 0.2 6.7 1 4 0.8 -2.9 1.4 -3.3 4.4 -3.3 2.4 0 3.5 0.5 3.5 1.5 0 0.8 -0.7 1.5 -1.5 1.5 -0.9 0 -2.3 1.6 -3.2 3.5 -2 4.2 -3.5 4.4 -6.2 0.9 -1.5 -1.9 -2.1 -2.2 -2.1 -1.1 0 0.9 1 2.3 2.2 3.1 1.8 1.3 5 1.6 16.8 1.4 l14.5 -0.2 -12 -0.3z m22.8 -6.6 c1.8 -0.4 1.7 -0.5 -0.5 -0.6 -2.4 -0.1 -2.8 0.3 -2.7 2.7 0.1 2.2 0.2 2.3 0.6 0.5 0.2 -1.3 1.3 -2.4 2.6 -2.6z m15.7 1.3 c0 -2.6 -0.3 -3 -2.9 -3 -2.5 0 -2.8 0.3 -2.4 2.4 0.3 1.5 1.3 2.7 2.7 2.9 1.1 0.2 2.2 0.5 2.4 0.6 0.1 0 0.2 -1.2 0.2 -2.9z m-60.3 -5.7 c-0.3 -1 -0.5 -0.2 -0.5 1.7 0 1.9 0.2 2.7 0.5 1.8 0.2 -1 0.2 -2.6 0 -3.5z m37.6 -9.1 c1.2 -0.6 1.6 -1.1 1 -1.1 -1.9 -0.1 -5.3 3.6 -5.2 5.7 0 1.1 0.4 0.8 1 -0.9 0.5 -1.5 2 -3.1 3.2 -3.7z m-2.3 -4.4 c3.8 -1.9 2.7 -2.5 -1.3 -0.7 -2.5 1.1 -5.7 5.7 -5.7 8.1 0 0.7 0.8 -0.3 1.8 -2.2 1 -2 3.2 -4.2 5.2 -5.2z m21 3.3 c0 -2.4 -1.9 -3.1 -8.1 -3.1 -4.1 0 -4.9 0.3 -4.9 1.8 0 2.8 0.8 3.2 7.2 3.2 5 0 5.8 -0.3 5.8 -1.9z m-43.2 -4.8 c-1 -0.2 -2.8 -0.2 -4 0 -1.3 0.2 -0.5 0.4 1.7 0.4 2.2 0.1 3.2 -0.1 2.3 -0.4z m-10 -4 c1.2 -1 8.7 -1.3 29.4 -1.3 26.5 0 27.9 0.1 29.8 2 2.4 2.4 2.7 1.4 0.3 -1.2 -1.5 -1.7 -3.8 -1.8 -30.1 -1.8 -25.2 0 -28.8 0.2 -30.4 1.7 -1 0.9 -1.8 2.3 -1.7 3.2 0 1.4 0.1 1.4 0.6 0.1 0.3 -0.8 1.2 -2.1 2.1 -2.7z"/>
  <path d="M257.1 69.3 c0.1 -2.1 0.3 -3 0.6 -2 0.3 1 1.4 1.7 2.8 1.7 2.4 0 2.4 -0.2 2.7 -9.7 0.2 -7.9 0.6 -9.8 1.8 -9.8 1.1 0 2 2.6 3.4 9.8 1.5 8.1 2.1 9.7 3.7 9.7 2 0 2 -0.1 4.1 -11.3 2 -10.8 4.5 -8.4 4.7 4.6 0.1 6 0.3 6.7 2.1 6.7 1.9 0 2 -0.7 2 -11.9 0 -9.4 0.3 -12.1 1.5 -13.1 1.4 -1.2 1.4 -1.5 0 -3 -1.2 -1.3 -1.5 -4.3 -1.5 -13.3 l0 -11.7 -3.5 0 c-4.1 0 -3.9 -0.6 -6 16.9 -0.8 6.8 -1.7 12.6 -1.9 12.9 -1.2 1.1 -3.6 -0.9 -3.6 -3 0 -1.2 -1 -7.7 -2.2 -14.5 l-2.1 -12.3 -3.9 0 c-3.1 0 -3.8 -0.3 -3.8 -2 0 -1.7 0.7 -2 4.8 -2 2.6 0 5.3 0.4 5.9 0.8 0.7 0.4 1.6 4.1 1.9 8.1 0.8 8.1 1.8 7.6 2.9 -1.1 0.4 -4 1.1 -5.8 2.1 -5.8 0.8 0 1.4 -0.4 1.4 -1 0 -1.1 7.8 -1.4 10.4 -0.4 1.3 0.5 1.6 2.6 1.6 12.4 0 7.5 0.4 12.1 1.1 12.6 2.3 1.4 4 -2.4 5.1 -11.4 0.8 -6.5 1.5 -9.2 2.5 -9.2 0.7 0 1.3 -1.1 1.3 -2.5 0 -2.4 0.3 -2.5 5.5 -2.5 4.2 0 5.5 0.3 5.5 1.5 0 0.8 0.4 1.5 0.8 1.5 0.5 0 1.4 4.7 2.1 10.5 0.7 5.7 1.8 10.9 2.5 11.5 1.9 1.5 1.9 27 0.1 27 -1.6 0 -2.2 -2.4 -3.1 -12.1 -0.5 -5.5 -0.3 -7.8 0.5 -8.4 0.9 -0.5 0.9 -1.1 -0.3 -2.3 -1.1 -1.3 -4.6 -20 -4.6 -24.7 0 -0.3 -1.7 -0.5 -3.8 -0.5 l-3.9 0 -1.6 11.7 c-1.1 7.1 -2.3 12.3 -3.3 13.4 -1.1 1.3 -1.2 1.9 -0.3 2.4 1.2 0.8 0.9 7.6 -0.7 20.3 -0.7 5.1 -0.6 5.2 2 5.2 2 0 2.6 -0.5 2.6 -2.2 0 -1.3 0.5 -3.9 1 -6 2.3 -8.3 9 -4.3 9 5.3 0 1.9 0.5 2.9 1.5 2.9 0.8 0 1.5 0.7 1.5 1.5 0 1 -1.1 1.5 -3.5 1.5 -3.4 0 -3.5 -0.1 -3.5 -3.9 0 -2.2 -0.4 -4.3 -1 -4.6 -0.6 -0.4 -1 0.9 -1 3.3 0 3.9 0 3.9 -4.6 4.6 -9.2 1.2 -8.8 1.6 -8.1 -7.1 0.4 -4.3 0.9 -10 1.3 -12.7 0.6 -3.9 0.4 -4.8 -0.7 -4.4 -1.1 0.4 -1.5 3.2 -1.7 12.3 -0.2 8 -0.7 12.2 -1.5 12.7 -1.9 1.2 -9.2 0.9 -10.5 -0.4 -0.9 -0.9 -1.2 -0.9 -1.2 0 0 0.7 -1.6 1.2 -4 1.2 -2.2 0 -4 -0.5 -4 -1 0 -0.7 -0.6 -0.7 -1.9 0 -1.1 0.5 -3.6 1 -5.5 1 -3.5 0 -3.6 -0.1 -3.5 -3.7z"/>
  <path d="M121.7 68.8 c-0.3 -1.8 -1.1 -7.7 -1.8 -13 -0.9 -6.9 -1.6 -9.8 -2.6 -9.8 -1.6 0 -1.8 -6.7 -0.3 -7.2 0.7 -0.2 0.6 -3.4 -0.5 -9.8 -0.8 -5.2 -1.5 -11 -1.5 -12.7 0 -3.6 0.4 -3.8 8.3 -2.7 l4.5 0.6 0.9 8.7 0.9 8.6 0.8 -8.7 0.8 -8.6 6 -0.7 c3.2 -0.4 6.2 -0.4 6.5 -0.1 0.8 0.7 -2 25.4 -4.9 44.4 l-2.3 14.2 -3.2 0 c-3.6 0 -4.7 -2.4 -1.4 -3.3 1.5 -0.4 2 -2.2 3.2 -11.7 1 -8.5 1.8 -11.7 3.1 -12.9 1.6 -1.3 1.6 -1.7 0.2 -3.2 -1.3 -1.5 -1.3 -2.6 0 -10.5 2.2 -12.6 2.1 -14.4 -0.8 -14.4 -2.2 0 -2.4 0.5 -4.4 15.7 -1.2 8.6 -2.6 16.1 -3.1 16.6 -1.3 1.3 -3.2 -2.6 -3.1 -6.5 0.1 -1.8 -0.6 -7.8 -1.4 -13.3 -0.9 -5.5 -1.6 -10.6 -1.6 -11.2 0 -0.7 -1.1 -1.3 -2.5 -1.3 -3 0 -3.1 1.2 -1.1 14.4 1 6.6 1.1 9.4 0.3 10.7 -0.9 1.4 -0.7 2.2 0.5 3.6 1 1.2 2 5.5 2.8 12.3 1.3 11.4 1.4 12 3.6 12 0.8 0 1.4 0.7 1.4 1.5 0 1 -1 1.5 -3.4 1.5 -3 0 -3.4 -0.3 -3.9 -3.2z"/>
  <path d="M150 68.5 c0 -3.9 2.4 -5 3.3 -1.5 0.3 1.2 1.4 2 2.6 2 2.3 0 2.3 0.1 2.1 -13.9 -0.1 -6.5 0.2 -8.7 1.5 -10.1 1.6 -1.7 1.6 -2.1 0.1 -4.2 -1.8 -2.6 -2.2 -12.8 -0.6 -15.9 0.6 -1.1 2.1 -1.9 3.5 -1.9 2.2 0 2.5 -0.4 2.5 -3.5 0 -2.4 -0.5 -3.5 -1.5 -3.5 -0.8 0 -1.5 -0.4 -1.5 -1 0 -0.5 1.6 -1 3.5 -1 l3.5 0 0 5.5 c0 5 -0.2 5.5 -2.1 5.5 -1.2 0 -2.8 0.8 -3.5 1.8 -1.8 2.4 -1.8 9.6 0.1 11.2 0.8 0.7 1.5 2.8 1.5 4.6 0 2.4 -0.5 3.4 -1.5 3.4 -1.3 0 -1.5 2.1 -1.5 13 l0 13 -6 0 -6 0 0 -3.5z"/>
  <path d="M190 60.1 c0 -9.3 -0.3 -12.1 -1.5 -13.1 -0.8 -0.7 -1.5 -2.8 -1.5 -4.7 l0 -3.4 -8.2 0.3 c-7.8 0.3 -8.3 0.4 -8.6 2.6 -0.3 1.7 0.2 2.5 1.7 2.9 3.6 0.9 2.5 3.3 -1.4 3.3 l-3.6 0 0.3 -6.2 0.3 -6.3 11.3 -0.3 11.2 -0.3 0 -10.7 0 -10.8 13 0 13 0 0 2.6 c0 1.4 -1.6 6.3 -3.5 11 -1.9 4.7 -3.5 9.4 -3.5 10.5 0 1.1 1.7 7.7 3.9 14.5 2.7 8.6 4.4 12.6 5.5 12.8 0.9 0.2 1.6 1 1.6 1.9 0 0.8 0.9 1.7 2 2 1.1 0.3 2 1.2 2 1.9 0 1.1 -2.1 1.4 -9.9 1.4 -9.9 0 -9.9 0 -10.9 -2.7 -0.9 -2.4 -1.1 -2.5 -1.1 -0.7 -0.1 1.7 -0.9 2.3 -3.8 2.8 -8.8 1.4 -8.3 2.1 -8.3 -11.3z m8 0.5 c0 -6.1 0.4 -8.7 1.5 -9.6 1.7 -1.4 2.3 -0.4 5.8 10.5 2 6.2 2.5 7 5 7.3 1.7 0.2 2.7 -0.1 2.7 -0.9 0 -0.8 -2 -8 -4.5 -16.1 l-4.5 -14.7 2.6 -6.8 c1.4 -3.7 3.2 -8.5 3.9 -10.5 l1.4 -3.8 -2.8 0 c-2.5 0 -3 0.7 -5.2 6.3 -1.5 3.6 -3.1 6.2 -3.9 6.2 -1.1 0 -1.6 -1.6 -1.8 -6.2 -0.3 -5.5 -0.6 -6.3 -2.2 -6.3 -1.9 0 -2 0.8 -2 11.2 0 8.8 -0.3 11.5 -1.6 12.9 -1.5 1.6 -1.5 2 0 4.1 1.2 1.7 1.6 4.8 1.6 13.5 0 10.6 0.1 11.3 2 11.3 1.8 0 2 -0.7 2 -8.4z"/>
  <path d="M236.3 71.3 c-3.3 -0.4 -4.7 -2.3 -1.8 -2.3 1 0 1.5 -1.1 1.5 -3.5 0 -2.4 -0.5 -3.5 -1.5 -3.5 -0.8 0 -1.5 -0.4 -1.5 -1 0 -0.5 1.4 -1 3 -1 l3 0 0 -6.5 c0 -3.7 -0.4 -6.5 -1 -6.5 -0.5 0 -1 -2 -1 -4.4 0 -2.5 0.5 -4.8 1 -5.1 0.6 -0.4 1 -5.6 1 -12.5 0 -13.1 -0.1 -13 7.1 -13 3.8 0 3.9 0.1 3.9 3.5 0 1.9 -0.4 3.5 -1 3.5 -0.5 0 -1 -0.7 -1 -1.5 0 -0.9 -0.9 -1.5 -2.5 -1.5 l-2.5 0 0 11.9 c0 9.4 -0.3 12.1 -1.5 13.1 -1.4 1.2 -1.4 1.5 0 3 1.2 1.3 1.5 4.3 1.5 13.3 0 9.7 0.3 11.7 1.5 11.7 0.8 0 1.5 0.7 1.5 1.5 0 1.5 -2.3 1.7 -9.7 0.8z"/>
  <path d="M226.2 60.8 c-1.8 -1.8 -1.6 -15.2 0.3 -16.8 1.4 -1.2 1.4 -1.5 0 -3 -1.2 -1.3 -1.5 -4.3 -1.5 -13.3 0 -9.7 -0.3 -11.7 -1.5 -11.7 -0.8 0 -1.5 -0.7 -1.5 -1.5 0 -1 1.1 -1.5 3.5 -1.5 l3.5 0 0 11.9 c0 6.9 0.4 12.2 1 12.6 0.6 0.3 1 2.6 1 5 0 2.4 -0.4 4.7 -1 5 -0.5 0.3 -1 2.6 -1 5 0 2.4 0.5 4.7 1 5 0.6 0.3 1 1.5 1 2.6 0 2.2 -2.9 2.6 -4.8 0.7z"/>
  <path d="M302.3 44.5 c0.2 -2.6 0.8 -4.9 1.1 -5.3 1.2 -1.1 2.6 2.1 2.6 6.1 0 3.1 -0.3 3.7 -2.1 3.7 -2 0 -2.1 -0.4 -1.6 -4.5z"/>
  <path d="M215.3 46.5 c-0.7 -0.8 -1.3 -2.8 -1.3 -4.5 0 -2.7 0.3 -3 3 -3 2.8 0 2.9 0.1 1.8 2.1 -1 1.7 -1 2.3 0 2.6 0.6 0.3 1.2 1.3 1.2 2.4 0 2.2 -2.9 2.5 -4.7 0.4z"/>
  <path d="M148.7 27.3 c-0.4 -0.3 -0.7 -1.5 -0.7 -2.5 0 -1.4 0.6 -1.9 2.3 -1.6 2.9 0.4 3.8 4.8 0.9 4.8 -1 0 -2.2 -0.3 -2.5 -0.7z"/>
  <path d="M4 4.2 c0 -2.3 1.9 -4.2 4.2 -4.2 2.2 0 2.4 2.6 0.4 4.6 -2 2 -4.6 1.8 -4.6 -0.4z"/>
  <path d="M344.7 4.3 c-1.5 -1.4 -0.7 -4.3 1.3 -4.3 1.6 0 4 2.6 4 4.4 0 0.8 -4.5 0.7 -5.3 -0.1z"/>
 </g>
 <g fill="#6187ae">
  <path d="M5 75.1 c-1.5 -2.9 -1.3 -3.3 1.8 -2.9 1.9 0.2 2.8 0.9 3 2.6 0.4 2.8 -3.3 3.1 -4.8 0.3z"/>
  <path d="M306.3 75.5 c-0.7 -0.8 -1.3 -2.4 -1.3 -3.7 0 -1.3 -0.5 -3 -1 -3.8 -0.7 -1.1 -1 -0.7 -1 1.7 l0 3.3 -24.2 -0.3 -24.3 -0.2 -0.3 -12.2 c-0.1 -6.8 -0.7 -12.3 -1.2 -12.3 -0.5 0 -1.1 5.5 -1.2 12.3 l-0.3 12.2 -16.9 0.3 c-12.9 0.2 -17.2 -0.1 -17.8 -1 -0.6 -1 -0.8 -1 -0.8 0 0 0.8 -1.7 1.2 -5.1 1.2 -4.9 0 -7 -1 -8.2 -4 -0.4 -1 -0.6 -0.8 -0.6 0.6 -0.1 2.6 -1.9 3.4 -7.2 3.4 -3.8 0 -3.9 -0.1 -3.9 -3.5 0 -1.9 0.5 -3.5 1 -3.5 0.6 0 1 0.7 1 1.5 0 2.4 5.1 1.9 5.7 -0.5 0.3 -1.1 1.1 -2 1.9 -2 1.1 0 1.1 -0.7 -0.1 -4.1 -0.8 -2.3 -1.5 -5.5 -1.5 -7.1 0 -5.4 2.4 -2.5 5.3 6.5 2.9 8.7 2.9 8.7 6.3 8.7 1.9 0 3.4 -0.2 3.4 -0.4 0 -0.2 -1.8 -6.2 -4 -13.2 -4.6 -14.6 -4.7 -15.4 -2.2 -15.4 1.4 0 2.5 2.1 4.9 9.7 l3.1 9.8 0.1 -6.2 c0.1 -3.6 -0.3 -6.3 -0.9 -6.3 -0.5 0 -1 -2 -1 -4.4 0 -2.5 0.5 -4.8 1 -5.1 0.6 -0.3 1 -4.7 0.9 -9.8 -0.1 -7.5 -0.3 -8.6 -1 -5.9 -0.5 1.7 -1.4 3.2 -1.9 3.2 -0.6 0 -1 1 -1 2.1 0 1.2 -0.8 4.3 -1.7 7 -1.3 3.5 -2.3 4.9 -3.7 4.9 -2.4 0 -1.8 -3.3 2.8 -14.7 l3.4 -8.4 -3.5 0.3 c-3.2 0.3 -3.7 0.7 -5.7 5.7 -2.9 7.3 -4.7 7.8 -4.5 1.3 0.1 -2.7 -0.1 -5.4 -0.5 -6 -1.1 -1.8 -5.6 -1.5 -5.6 0.3 0 0.8 -0.4 1.5 -1 1.5 -0.5 0 -1 -1.6 -1 -3.5 l0 -3.5 5.1 0 c4.2 0 5.2 0.3 5.6 2 0.7 2.6 2.3 2.6 2.3 0 0 -1.8 0.7 -1.9 12.5 -1.9 l12.5 0 0 3.4 c0 2.4 -0.5 3.5 -1.5 3.5 -0.8 0 -1.5 -0.7 -1.5 -1.5 0 -1 -1 -1.5 -3 -1.5 l-3 0 0 11.9 c0 9.4 -0.3 12.1 -1.5 13.1 -1.4 1.2 -1.4 1.5 0 3 1.2 1.3 1.5 4.3 1.5 13.4 l0 11.7 8.3 -0.3 8.2 -0.3 0 -3 c0 -2.8 -0.3 -3 -4 -3.3 -4 -0.3 -6.5 -1.6 -6.5 -3.4 0 -0.5 3 -0.8 6.8 -0.6 l6.7 0.3 0.3 3.8 c0.2 2 0.7 3.7 1.3 3.7 0.5 0 0.9 0.7 0.9 1.5 0 1 1 1.5 3 1.5 l3 0 0 -11.9 c0 -9.4 0.3 -12.1 1.5 -13.1 1.4 -1.1 1.4 -1.5 0.1 -2.9 -1.1 -1.3 -1.6 -4.8 -1.8 -13.6 -0.3 -10.7 -0.5 -12 -2 -11.9 -3.5 0.3 -3.8 0.4 -3.8 1.9 0 0.8 -0.7 1.5 -1.5 1.5 -1.1 0 -1.5 -1.1 -1.5 -3.5 l0 -3.6 6.3 0.3 6.2 0.3 0.3 12 c0.4 15.9 2.2 17.8 2.2 2.3 0 -6.4 0.3 -12.3 0.6 -13.2 0.5 -1.2 2.1 -1.6 7.5 -1.6 l6.9 0 0 3 c0 1.7 0.4 3 0.9 3 0.5 0 1.2 1.7 1.6 3.8 0.8 3.7 0.8 3.7 1.9 -2.8 l1.1 -6.5 6.8 -0.3 6.7 -0.3 0 3.6 c0 1.9 -0.4 3.5 -1 3.5 -0.5 0 -1 -0.6 -1 -1.4 0 -2.5 -6 -3.1 -8.1 -0.9 -0.4 0.5 -1.6 7 -2.7 14.6 -2.7 18.4 -3.4 19.1 -5.7 5.6 -1.7 -9.9 -2.3 -14.4 -2.4 -18.1 -0.1 -3 -2.5 -4.2 -6.5 -3.2 l-2.6 0.6 0 11.8 c0 9.3 -0.3 12 -1.5 13 -1.4 1.2 -1.4 1.5 0 3 1.2 1.3 1.5 4.3 1.5 13.2 0 12 0.6 13.7 4.5 12.2 1.8 -0.7 1.8 -1.3 1.5 -12.1 -0.1 -5.4 0.2 -8.3 0.9 -8.3 1.2 0 1.4 0.9 3.2 11.8 2.1 12.4 5.9 12.2 7.8 -0.4 1.2 -8.3 1.7 -9.7 3.2 -8.8 0.5 0.3 0.9 4.2 0.8 8.5 -0.1 4.4 0.3 8.5 0.9 9.1 1.3 1.3 5.2 0.1 5.2 -1.8 0 -0.8 0.7 -1.4 1.5 -1.4 1.5 0 1.8 -0.8 3.5 -10.4 1.3 -7.9 1.4 -7.6 -2 -6.9 -2.5 0.5 -3 0.2 -3 -1.5 0 -1.1 0.7 -2.5 1.5 -3.2 1.4 -1.2 1.4 -1.5 0 -3 -2.1 -2.3 -1.9 -5 0.4 -5 1.1 0 2.1 0.4 2.3 1 0.2 0.5 0.9 0.6 1.5 0.2 0.8 -0.5 1.9 -5.7 2.8 -12.1 0.8 -6.2 1.7 -11.6 2 -12 0.2 -0.5 2.3 -1.1 4.5 -1.5 3.9 -0.6 4 -0.7 4 -4.5 0 -7.4 -1.1 -7.1 21.5 -7.1 18.3 0 20.3 0.2 21.8 1.8 1.5 1.7 1.7 5.7 1.7 36.9 0 32.6 -0.1 35.1 -1.8 36.6 -1.6 1.5 -4.6 1.7 -21.3 1.7 -15.5 -0.1 -19.7 -0.4 -20.6 -1.5z m-6.3 -11.5 c0.7 -5.5 1.5 -7 4.1 -7 2.3 0 3.9 3.5 3.9 8.6 0 3.1 0.2 3.4 3 3.4 3 0 3 -0.1 3 -5.2 0 -2.9 -0.5 -8.2 -1 -11.7 -0.6 -4.5 -0.5 -6.9 0.3 -8.2 0.9 -1.4 0.8 -2.2 -0.5 -3.6 -1 -1.1 -2 -5.4 -2.8 -11.3 -1.4 -11.8 -2.3 -14 -5.2 -14 -4.1 0 -4.8 1.4 -6.3 12.5 -1.1 8 -2.1 11.5 -3.5 13 -1.8 1.9 -1.8 2.2 -0.4 3.6 1.4 1.4 1.4 2.6 0 12.1 -2.1 13.7 -2.2 13 1.7 12.6 3 -0.3 3.2 -0.6 3.7 -4.8z"/>
  <path d="M302.7 48.2 c-0.7 -1.1 0.4 -6.2 1.3 -6.2 1 0 2.2 4.8 1.5 6 -0.7 1.2 -2.2 1.3 -2.8 0.2z"/>
  <path d="M77.6 73.4 c-0.9 -0.8 -1.6 -3 -1.6 -4.9 l0 -3.3 -7 -0.7 c-3.8 -0.4 -7 -1.1 -7 -1.6 0 -0.5 -1.1 -0.7 -2.4 -0.3 -2.1 0.5 -2.3 0.3 -1.9 -2.1 0.4 -1.6 -0.1 -3.3 -1.3 -4.6 -1.5 -1.7 -1.6 -2.4 -0.6 -3.9 1.6 -2.7 1.5 -3.5 -0.3 -2 -1.9 1.6 -1.9 5 -0.1 7.5 1 1.4 1.1 2.5 0.5 3.7 -1.4 2.6 -2.9 2.2 -2.9 -0.7 0 -1.6 -0.6 -2.5 -1.5 -2.5 -1.1 0 -1.5 -1.1 -1.5 -4 0 -3.3 0.3 -4 2 -4 1.4 0 2 -0.7 2 -2.1 0 -1.9 -0.4 -2 -6.5 -1.4 -6.2 0.7 -6.5 0.6 -6.5 -1.4 0 -1.4 -0.6 -2.1 -2 -2.1 -1.6 0 -2 -0.7 -2 -3.5 0 -2.4 0.5 -3.5 1.5 -3.5 0.8 0 1.5 0.7 1.5 1.5 0 0.9 1.1 2.7 2.5 4 2.1 2.2 3.3 2.5 9 2.5 7.6 0 9.5 1.2 9.5 5.9 0 2.4 -0.4 3.1 -2 3.1 -1.2 0 -2 0.7 -2 1.6 0 1.1 0.6 1.5 1.9 1.1 2.7 -0.7 5.5 2.5 4.6 5.2 -0.3 1.2 -0.2 2.1 0.3 2.1 1.7 0 2 -3.8 0.5 -5.9 -0.8 -1.2 -1 -2.1 -0.4 -2.1 0.6 0 1.1 -0.7 1.1 -1.5 0 -0.8 0.6 -1.5 1.3 -1.5 1.6 0.1 4.9 7.3 4.1 9.4 -0.3 0.9 -0.1 1.6 0.4 1.6 1.9 0 2.5 -4.1 0.8 -5.9 -2.2 -2.5 -2 -5.1 0.4 -5.1 1.6 0 2 0.7 2 3 0 1.7 0.5 3 1 3 0.6 0 1 0.9 1 2 0 1.1 0.5 2 1 2 0.6 0 1 2 1 4.4 0 4.7 1.1 6.2 5.7 7.6 2.7 0.8 2.7 0.8 -0.9 0.9 -2.1 0.1 -4.3 -0.6 -5.2 -1.5z"/>
  <path d="M104.5 71.9 c0.4 -0.6 1.1 -2.3 1.5 -3.7 0.8 -2.5 0.8 -2.4 0.9 1.1 0.1 2.7 -0.3 3.7 -1.5 3.7 -0.8 0 -1.2 -0.5 -0.9 -1.1z"/>
  <path d="M123 71 c0 -1.1 -0.4 -2 -0.8 -2 -0.5 0 -1.4 -4.4 -2.1 -9.7 -0.7 -6.1 -1.8 -10.4 -2.8 -11.5 -1.2 -1.4 -1.4 -2.9 -0.9 -6.8 0.4 -2.8 0.2 -8.7 -0.4 -13.2 -0.6 -4.4 -0.8 -9.8 -0.5 -12 l0.7 -3.9 5.6 0.3 5.7 0.3 1 7.5 1.1 7.5 0.9 -7.5 1 -7.5 18.5 0 18.5 0 0 7 c0 6.9 0 7 -2.7 7.3 -1.6 0.2 -2.8 0.8 -2.8 1.3 0 0.5 -0.9 0.9 -2 0.9 -4.1 0 -1.9 -5.3 2.5 -6.2 1.5 -0.2 2 -1.1 2 -3.3 l0 -3 -9.2 -0.3 -9.3 -0.3 0 3.6 c0 2.7 0.4 3.5 1.8 3.5 1.9 0 4.2 1.8 4.2 3.3 0 0.5 -2.3 0.7 -5 0.5 l-5 -0.3 0 3.3 c0 2.6 -0.4 3.2 -2.1 3.2 -1.9 0 -2 -0.4 -1.4 -6.7 0.4 -3.8 0.9 -7.6 1.2 -8.6 0.4 -1.6 0 -1.8 -2.9 -1.5 -2.9 0.3 -3.3 0.7 -3.6 3.3 -0.6 6.9 -1.3 9.5 -2.7 9.5 -0.8 0 -1.5 0.5 -1.5 1 0 0.6 0.7 1 1.6 1 1.3 0 1.5 0.6 1 2.8 -0.4 1.5 -1 5.3 -1.3 8.5 -0.7 7.1 -2.8 7.7 -3.8 1.1 -0.4 -3.2 -0.3 -4.9 0.5 -5.4 1 -0.6 1 -0.8 0 -1.2 -0.7 -0.2 -1.7 -4.3 -2.3 -10.3 l-1.2 -10 -3.4 -0.3 c-3.1 -0.3 -3.3 -0.1 -2.8 2 0.3 1.3 1.1 6.5 1.8 11.6 1 7.1 1 9.8 0.1 11.2 -0.9 1.4 -0.8 2.1 0.2 2.9 0.8 0.7 1.9 4.9 2.5 9.4 2.4 17.4 1.7 15.7 6.5 15.7 l4.2 0 1.8 -11.7 c1 -6.8 2.4 -12.5 3.2 -13.5 1 -1.1 1.2 -1.8 0.5 -2.3 -0.6 -0.3 -1.1 -1.5 -1.1 -2.6 0 -1.5 0.6 -2 2.3 -1.7 1.9 0.3 2.2 1 2.5 5.1 0.2 3.5 0 4.7 -1.1 4.7 -1 0 -1.8 2.8 -2.7 10.5 -0.8 5.8 -1.7 10.5 -2.2 10.5 -0.4 0 -0.8 1.1 -0.8 2.5 0 2.4 -0.2 2.5 -6.5 2.5 -5.8 0 -6.5 -0.2 -6.5 -2z"/>
  <path d="M152.1 69.3 c0.1 -2.1 0.3 -3 0.6 -2 0.6 2.2 6.3 2.4 6.3 0.2 0 -0.8 0.5 -1.5 1 -1.5 0.6 0 1 1.6 1 3.5 0 3.5 0 3.5 -4.5 3.5 l-4.5 0 0.1 -3.7z"/>
  <path d="M80.6 70.4 c-2.1 -2 -2.1 -5.4 0 -5.4 0.9 0 2.3 0.8 3 1.8 0.8 1 1.3 1.2 1.4 0.5 0 -0.9 2 -1.3 6.5 -1.3 l6.5 0 0 3 0 3 -7.9 0 c-5.9 0 -8.4 -0.4 -9.5 -1.6z m13.1 -1 c3.3 -0.9 1.8 -2.4 -2.3 -2.4 -3.2 0 -4.2 0.8 -2.7 2.3 0.8 0.8 2.1 0.9 5 0.1z"/>
  <path d="M100 69 c0 -2.3 0.4 -3 2 -3 1.3 0 2 0.7 2 2 0 1 -0.9 2.4 -2 3 -1.8 1 -2 0.8 -2 -2z"/>
  <path d="M87.5 60.1 c-4.5 -0.5 -5 -0.9 -5.3 -3.3 -0.2 -1.6 -0.8 -2.8 -1.3 -2.8 -0.5 0 -0.9 -1.7 -0.9 -3.8 0 -3 0.5 -4.1 2.3 -5 2.2 -1 2.2 -1.1 -0.5 -1.1 -2.7 -0.1 -2.8 -0.3 -2.8 -5.6 0 -6.3 -0.5 -6.1 10 -4.3 5.6 1 7 1.6 7 3 0 1 0.6 1.8 1.4 1.8 0.8 0 1.7 1.1 2 2.5 0.4 1.4 1.3 2.5 2.1 2.5 1.2 0 1.5 1.3 1.5 5.8 0 4.7 -0.5 6.4 -2.3 8.5 -2.4 2.8 -3.3 3 -13.2 1.8z m9.3 -4.1 c1.2 -1.1 2.4 -3.1 2.8 -4.5 0.7 -2.6 -1.4 -7.6 -3.4 -8.3 -1 -0.3 -1 0.2 0.3 2.1 2.3 3.5 1.6 7.6 -1.8 10.1 -2.6 1.9 -3 1.9 -5.5 0.5 -4.1 -2.3 -5.1 -6.2 -2.4 -9.9 1.8 -2.3 1.9 -3 0.8 -3 -2 0 -3.6 3.1 -3.6 7.1 0 6.8 7.9 10.4 12.8 5.9z m-3.8 -11 c0 -3.2 -0.4 -6.2 -1 -6.5 -0.6 -0.4 -1 1 -1 3.4 0 2.2 -0.6 4.2 -1.2 4.5 -1 0.5 -1 0.7 0 1.2 0.6 0.3 1.2 1.5 1.2 2.5 0 1.1 0.5 1.7 1 1.4 0.6 -0.3 1 -3.3 1 -6.5z m-7.7 -7.5 l2.2 -0.8 -2.4 -0.4 c-3.1 -0.6 -4.2 0.6 -3.3 3.7 0.6 2.4 0.7 2.4 1 0.4 0.2 -1.2 1.3 -2.5 2.5 -2.9z"/>
  <path d="M190 49.5 c0 -1 -1 -1.5 -3 -1.5 -2 0 -3 -0.5 -3 -1.5 0 -0.8 0.7 -1.5 1.5 -1.5 1 0 1.5 -1.1 1.5 -3.5 0 -2.4 -0.5 -3.5 -1.5 -3.5 -0.8 0 -1.5 -0.4 -1.5 -1 0 -1.6 6 -1.2 7.7 0.5 1.4 1.4 1.4 1.8 0 3.3 -1.4 1.5 -1.4 1.9 0.3 3.9 1 1.3 1.6 3.2 1.3 4.3 -0.6 2.3 -3.3 2.7 -3.3 0.5z"/>
  <path d="M148.2 47.8 c-1.7 -1.7 -1.5 -8.6 0.2 -10.4 0.8 -0.8 2.2 -1.4 3 -1.4 2 0 2.1 3.4 0.1 5 -1.4 1.2 -1.4 1.5 0 3 3.2 3.5 0.1 7.2 -3.3 3.8z"/>
  <path d="M159 47.3 c0 -0.9 0.7 -2.4 1.5 -3.3 1.4 -1.5 1.4 -1.8 0 -3 -2.3 -1.9 -1.8 -3 1.5 -3 2.9 0 3 0.2 3 4.3 0 2.4 -0.5 4.8 -1.2 5.5 -1.8 1.8 -4.8 1.5 -4.8 -0.5z"/>
  <path d="M237.3 46.5 c-0.7 -0.8 -1.3 -2.8 -1.3 -4.5 0 -2.7 0.3 -3 3 -3 2.8 0 2.9 0.1 1.8 2.1 -1 1.7 -1 2.3 0 2.6 0.6 0.3 1.2 1.3 1.2 2.4 0 2.2 -2.9 2.5 -4.7 0.4z"/>
  <path d="M65 45 c0 -0.5 2.4 -1.1 5.3 -1.1 5.3 -0.1 5.1 -0.3 -1.5 -1.4 -2.4 -0.4 -3.8 -1.1 -3.8 -2 0 -1.2 1.4 -1.5 6 -1.5 l6 0 0 3.5 0 3.5 -6 0 c-3.3 0 -6 -0.4 -6 -1z"/>
  <path d="M227.2 44.1 c0.9 -1.5 0.9 -2.3 -0.1 -3.5 -1.2 -1.4 -1 -1.6 1.8 -1.6 2.9 0 3.1 0.2 3.1 3.5 0 3.2 -0.2 3.5 -3 3.5 -2.7 0 -2.9 -0.2 -1.8 -1.9z"/>
  <path d="M50 41.9 c0 -2.3 2.2 -4.9 4 -4.9 1.1 0 2 0.5 2 1 0 0.6 0.7 1 1.5 1 2.4 0 1.8 2.7 -0.7 3.4 -3.6 0.9 -6.8 0.7 -6.8 -0.5z"/>
  <path d="M43.2 40.8 c-1.5 -1.5 -1.6 -4.8 -0.2 -4.8 0.6 0 1.1 1 1.1 2.3 0.1 1.6 0.2 1.8 0.6 0.5 0.2 -1 1.3 -1.8 2.4 -1.8 1 0 1.9 -0.7 1.9 -1.5 0 -1 1.1 -1.5 3.5 -1.5 1.9 0 3.5 0.5 3.5 1 0 0.6 -1.3 1 -2.9 1 -2.3 0 -3.1 0.6 -4 3 -1.1 3.2 -3.7 4 -5.9 1.8z"/>
  <path d="M167 38.5 c0 -3.3 0.2 -3.5 3.5 -3.5 3.9 0 5 2.4 1.5 3.3 -1.1 0.3 -2 1.2 -2 2.1 0 0.9 -0.7 1.6 -1.5 1.6 -1 0 -1.5 -1.1 -1.5 -3.5z"/>
  <path d="M75 35 c-0.8 -1.1 -2.2 -2 -3.2 -2 -3.9 0 -1.3 -11.6 3.1 -14 1.1 -0.5 3.3 -1 5 -1 2.9 0 3.1 0.3 3.1 3.5 0 2.7 -0.7 4.2 -2.7 5.9 -1.9 1.7 -2.7 3.3 -2.7 5.9 -0.1 4.2 -0.6 4.5 -2.6 1.7z m0.5 -8.2 c0.6 -1.3 2.1 -2.8 3.5 -3.5 2.3 -1.2 2.3 -1.3 0.4 -1.3 -2.2 0 -4.7 2.3 -5.7 5.3 -0.9 2.5 0.7 2.1 1.8 -0.5z"/>
  <path d="M105.6 30.4 c-0.5 -1.8 -1.9 -3.1 -4.6 -4.1 -3.1 -1.2 -4 -2.1 -4 -4 0 -2 -0.5 -2.3 -4 -2.3 -3.9 0 -4 -0.1 -4 -3.4 0 -3.3 0.1 -3.3 5.1 -3.9 4.8 -0.6 8.9 0.4 8.9 2.1 0 0.5 -2.8 0.7 -6.2 0.6 -3.5 -0.2 -5.2 -0.1 -3.8 0.2 6.3 1.2 7 1.5 7 3.4 0 1 0.5 2.2 1 2.5 0.6 0.3 1 -0.3 1 -1.4 0 -1.2 0.5 -2.1 1 -2.1 0.6 0 1 1.2 1 2.6 0 1.4 0.7 3.2 1.5 4 0.8 0.9 1.5 3.1 1.5 5 0 4.1 -0.5 4.4 -1.4 0.8z"/>
  <path d="M79.6 31.2 c-0.9 -0.8 1.4 -3.2 3 -3.2 2.1 0 1.7 2.7 -0.5 3.3 -1.1 0.3 -2.2 0.2 -2.5 -0.1z"/>
  <path d="M99 29.4 c0 -1 0.7 -1.4 2.2 -1.2 3.2 0.5 3.5 2.8 0.4 2.8 -1.7 0 -2.6 -0.5 -2.6 -1.6z"/>
  <path d="M47.2 21.6 c0 -3.5 0.1 -3.6 4 -3.6 3.8 0 3.9 0.1 3.6 3.3 -0.3 2.9 -0.6 3.2 -3.9 3.5 -3.6 0.3 -3.7 0.2 -3.7 -3.2z"/>
  <path d="M69 21 c0 -3.4 1.7 -5 5.5 -5 l3 0 -3.2 1.9 c-1.7 1.1 -3.6 2.8 -4.2 3.8 -0.9 1.6 -1 1.5 -1.1 -0.7z"/>
  <path d="M43 15 c0 -1.2 3.3 -3 5.4 -3 0.9 0 1.6 0.9 1.6 2 0 1.6 -0.7 2 -3.5 2 -1.9 0 -3.5 -0.4 -3.5 -1z"/>
  <path d="M40 11.6 c0 -3.7 1.2 -4.6 6 -4.6 3.9 0 4.7 2.6 1 3.4 -1.6 0.3 -3.9 1.5 -5 2.6 l-2 2 0 -3.4z"/>
  <path d="M103.7 12.7 c-1 -1 -3.1 -2 -4.7 -2.3 -3.9 -0.8 -2.8 -3.4 1.4 -3.4 4.4 0 5.8 1.2 5.4 4.6 -0.3 2.8 -0.4 2.9 -2.1 1.1z"/>
  <path d="M4 4.1 c0 -1.2 2.9 -4.1 4.1 -4.1 0.5 0 0.9 1.1 0.9 2.5 0 2 -0.5 2.5 -2.5 2.5 -1.4 0 -2.5 -0.4 -2.5 -0.9z"/>
 </g>
 <g fill="#587ba0">
  <path d="M78 74.1 l0 -2.8 3.5 1.6 c4.5 2.1 4.5 4.1 0 4.1 -3.2 0 -3.5 -0.3 -3.5 -2.9z"/>
  <path d="M268 75 c0 -1.1 -0.4 -2 -1 -2 -0.5 0 -1 -0.7 -1 -1.5 0 -0.8 -0.6 -1.5 -1.2 -1.5 -1 0 -1.2 -2.5 -1 -10 0.2 -5.5 0.7 -10 1.1 -10 0.4 0 1.6 4.4 2.7 9.8 1.8 9.2 2 9.7 4.6 10 2.4 0.3 2.7 -0.1 3.7 -4.8 0.6 -2.8 1.1 -6.5 1.1 -8.3 0 -1.8 0.4 -3.8 0.9 -4.5 1 -1.7 2.1 4.1 2.1 12.1 0 5.7 0 5.7 3 5.7 l3 0 0 -11.9 c0 -9.3 0.3 -12.1 1.5 -13.1 1.8 -1.5 2 -3.7 0.3 -4.2 -0.9 -0.3 -1.5 -4.2 -1.8 -12.9 l-0.5 -12.4 -3.8 -0.3 c-2.4 -0.2 -3.9 0.1 -4.2 1 -0.2 0.7 -1.4 7.4 -2.5 14.8 -1.2 7.4 -2.3 13.6 -2.5 13.9 -1.1 1 -1.8 -1.2 -2.6 -8.6 -1.5 -13.7 -3.1 -20.5 -5.1 -21.1 -3.3 -0.8 -2 -3.2 1.7 -3.2 3.1 0 3.5 0.3 3.5 2.5 0 1.6 0.6 2.5 1.5 2.5 1.2 0 1.5 -1.6 1.5 -8.5 l0 -8.5 18 0 18 0 -0.6 7 c-0.5 5 -0.4 7 0.5 7 0.6 0 1 1 1 2.3 -0.1 1.6 -0.2 1.8 -0.6 0.5 -0.2 -1 -1.2 -1.8 -2.1 -1.9 -3.1 -0.2 -6.7 0.3 -7.4 1 -0.5 0.4 -1.5 5.8 -2.3 12 -1.1 8.5 -1.9 11.7 -3.2 12.7 -1.5 1.1 -1.6 1.6 -0.5 3.3 1.5 2.6 1.5 7.5 -0.3 17.1 -0.7 4.1 -1.1 7.8 -0.8 8.3 0.2 0.4 1.9 0.7 3.7 0.7 3.2 0 3.3 -0.1 4.2 -5.7 0.8 -5.3 1.1 -5.8 3.4 -5.8 2.3 0 2.6 0.4 3.4 6.8 0.7 5.9 1.1 6.7 3 6.7 1.7 0 1.8 0.2 0.6 1 -1 0.6 -1.1 1 -0.2 1 0.6 0 1.2 0.6 1.2 1.4 0 1.2 -3.6 1.5 -22 1.6 -21.5 0.1 -22 0 -22 -2z"/>
  <path d="M122 69.5 c0 -3.9 2.4 -4.9 3.3 -1.4 0.3 1.1 1.1 1.9 1.9 1.8 3 -0.4 4.8 0.2 4.8 1.6 0 1.1 -1.2 1.5 -5 1.5 l-5 0 0 -3.5z"/>
  <path d="M150.3 71.5 c-0.7 -0.8 -1.3 -3 -1.3 -5 0 -2.8 0.4 -3.5 2 -3.5 1.5 0 2 0.7 2 2.9 0 2.1 0.6 3.2 2 3.6 2.4 0.8 4 -0.1 4 -2.1 0 -0.8 0.7 -1.4 1.5 -1.4 1 0 1.5 1.1 1.5 3.5 l0 3.5 -5.2 0 c-3.3 -0.1 -5.8 -0.6 -6.5 -1.5z"/>
  <path d="M194 71.6 c0 -0.8 1.1 -1.7 2.5 -2 1.4 -0.4 2.5 -1.3 2.5 -2.1 0 -0.8 0.5 -1.5 1 -1.5 0.6 0 1 1.6 1 3.5 0 3.3 -0.2 3.5 -3.5 3.5 -2.3 0 -3.5 -0.5 -3.5 -1.4z"/>
  <path d="M203.7 72.3 c-0.4 -0.3 -0.7 -2.1 -0.7 -4 0 -1.8 -0.4 -3.3 -1 -3.3 -0.5 0 -1 -1.6 -1 -3.5 0 -5.4 2.6 -4.5 4 1.5 1.3 5.6 2.9 7.3 6.2 6.8 2 -0.3 2.3 -0.8 2 -4 -0.2 -3.3 0 -3.8 1.8 -3.8 1.1 0 2 0.7 2 1.5 0 0.8 0.4 1.5 0.9 1.5 0.5 0 1.2 1.1 1.5 2.5 0.4 1.4 1.3 2.5 2.1 2.5 0.8 0 1.5 0.4 1.5 0.9 0 1.6 -17.8 3 -19.3 1.4z"/>
  <path d="M239 69.5 c0 -3.9 2.4 -5 3.3 -1.5 0.3 1.4 1.4 2 3.2 2 1.8 0 2.9 -0.6 3.2 -2 0.9 -3.5 3.3 -2.4 3.3 1.5 l0 3.5 -6.5 0 -6.5 0 0 -3.5z"/>
  <path d="M254 69.5 c0 -3.9 2.4 -5 3.3 -1.5 0.3 1.1 1.2 2 2.1 2 0.9 0 1.6 0.7 1.6 1.5 0 1 -1.1 1.5 -3.5 1.5 -3.3 0 -3.5 -0.2 -3.5 -3.5z"/>
  <path d="M82 71 c-1.3 -0.8 -1.2 -1 0.3 -1 1.1 0 1.7 -0.8 1.7 -2.5 0 -2.2 0.4 -2.5 3.5 -2.5 1.9 0 3.5 0.5 3.5 1 0 0.6 -0.7 1 -1.5 1 -0.8 0 -1.5 0.7 -1.5 1.5 0 0.8 0.7 1.5 1.5 1.5 0.8 0 1.5 0.5 1.5 1 0 1.3 -7 1.3 -9 0z"/>
  <path d="M93.8 69.9 c2.4 -0.9 2.2 -2.9 -0.4 -2.9 -0.8 0 -1.4 -0.4 -1.4 -1 0 -0.5 1.6 -1 3.5 -1 3.2 0 3.5 0.2 3.5 3 0 2.8 -0.2 3 -3.7 2.9 -3.4 0 -3.5 -0.1 -1.5 -1z"/>
  <path d="M134 67.8 c0 -3 1.3 -5.8 2.6 -5.8 0.9 0 1.4 1.2 1.4 3.5 0 2.8 -0.4 3.5 -2 3.5 -1.1 0 -2 -0.6 -2 -1.2z"/>
  <path d="M67.1 63.8 c0.1 -1.8 0.4 -4.4 0.8 -5.7 0.6 -2.1 0.8 -2.2 2 -0.8 0.7 0.9 1 2.5 0.6 3.7 -0.4 1.2 -0.2 2 0.5 2 2 0 2.3 -3.1 0.4 -6.5 -1.4 -2.7 -1.6 -3.7 -0.6 -4.7 0.9 -0.9 1.2 -0.9 1.2 0 0 0.7 0.7 1.2 1.5 1.2 1.7 0 1.8 1.1 0.9 8.8 -0.7 5.1 -0.7 5.2 -4 5.2 -3.2 0 -3.4 -0.2 -3.3 -3.2z"/>
  <path d="M135 59.8 c0 -3 1.3 -5.8 2.6 -5.8 0.9 0 1.4 1.2 1.4 3.5 0 2.8 -0.4 3.5 -2 3.5 -1.1 0 -2 -0.6 -2 -1.2z"/>
  <path d="M50.6 56.9 c-1.3 -6.5 -0.9 -7.9 2.4 -7.9 3 0 3 0 1.4 2.5 -1.4 2.2 -1.4 2.6 0 4.7 2.2 3.1 2 3.8 -0.8 3.8 -1.8 0 -2.5 -0.7 -3 -3.1z"/>
  <path d="M148.8 50.1 c-0.3 -5.4 -0.3 -13.5 0 -18 0.4 -6.9 0.7 -8.1 2.1 -7.9 2.3 0.5 2.9 13.9 0.6 16.1 -1.9 2 -1.9 3.1 0 4.7 1.1 0.9 1.5 3.2 1.5 8.1 0 6.1 -0.2 6.9 -1.9 6.9 -1.6 0 -1.9 -1.1 -2.3 -9.9z"/>
  <path d="M254 52.5 c0 -6.3 -0.1 -6.5 -2.6 -6.5 -2.3 0 -2.5 -0.2 -1.3 -1.6 1 -1.2 1 -2 0.1 -3.5 -1.1 -1.6 -0.9 -1.9 0.8 -1.9 1.1 0 2 -0.4 2 -1 0 -0.5 0.9 -1 2 -1 1.3 0 2 0.7 2 2 0 1.1 -0.4 2 -1 2 -1.4 0 -1.2 2.6 0.3 3.9 0.9 0.7 1.3 2.9 1.1 6.3 -0.3 7.8 -0.3 7.8 -1.9 7.8 -1.2 0 -1.5 -1.4 -1.5 -6.5z"/>
  <path d="M56.2 55.8 c-1.7 -1.7 -1.5 -3.2 0.6 -5 2.5 -2.3 4.7 -0.9 4.7 3 0 2.6 -0.4 3.2 -2 3.2 -1.2 0 -2.6 -0.5 -3.3 -1.2z"/>
  <path d="M94 52.7 c0 -3 0.4 -3.7 2 -3.7 1.3 0 2 0.7 2 1.8 0 1.1 -0.9 2.7 -2 3.7 -2 1.8 -2 1.7 -2 -1.8z"/>
  <path d="M98.5 54.9 c0.4 -0.6 1.1 -2.3 1.5 -3.7 0.8 -2.5 0.8 -2.4 0.9 1.1 0.1 2.7 -0.3 3.7 -1.5 3.7 -0.8 0 -1.2 -0.5 -0.9 -1.1z"/>
  <path d="M207.9 47.5 l-2.6 -8.5 2.2 0 c1.9 0 2.5 1 3.9 5.8 3.7 13.2 0.4 15.7 -3.5 2.7z"/>
  <path d="M65 51.5 c0 -3.3 0.2 -3.5 3.5 -3.5 l3.5 0 -2 2 c-1.1 1.1 -2 2.7 -2 3.5 0 0.8 -0.7 1.5 -1.5 1.5 -1 0 -1.5 -1.1 -1.5 -3.5z"/>
  <path d="M137 47 c0 -1.1 0.7 -2.3 1.5 -2.6 0.8 -0.4 1.5 -1.2 1.5 -2 0 -0.8 0.5 -1.4 1.1 -1.4 0.6 0 0.9 1.6 0.7 3.8 -0.2 3 -0.7 3.8 -2.5 4 -1.8 0.3 -2.3 -0.2 -2.3 -1.8z"/>
  <path d="M188.5 43.9 c-0.5 -3.8 -1.2 -5.3 -2.6 -5.6 -3.1 -0.8 -2.3 -3.3 1 -3.3 1.6 0 3.6 0.3 4.5 0.6 2 0.8 2.1 4.3 0.1 5 -0.8 0.4 -1.5 1.2 -1.5 1.9 0 0.7 0.7 1.5 1.5 1.9 2.2 0.8 1.9 4.6 -0.4 4.6 -1.5 0 -2 -1 -2.6 -5.1z"/>
  <path d="M216 45.5 c0 -3.4 0.1 -3.4 2 -1.8 1.1 1 2 2.5 2 3.5 0 1.1 -0.8 1.8 -2 1.8 -1.6 0 -2 -0.7 -2 -3.5z"/>
  <path d="M303.7 48.4 c-1 -1.1 -0.8 -8.4 0.2 -8.4 0.5 0 1.1 1.7 1.4 3.8 0.4 3.7 -0.3 5.9 -1.6 4.6z"/>
  <path d="M236 42.5 c0 -4.3 0.1 -4.5 3 -4.5 3.3 0 3.8 1.1 1.5 3 -1.4 1.2 -1.4 1.5 0 3 2.2 2.4 1.9 3 -1.5 3 -2.9 0 -3 -0.2 -3 -4.5z"/>
  <path d="M39 42.3 l0 -3.7 2.8 2.7 c1.5 1.5 3.7 2.7 4.8 2.7 1.6 0 1.7 0.2 0.4 1 -0.8 0.5 -3 1 -4.7 1 -3.1 0 -3.3 -0.2 -3.3 -3.7z"/>
  <path d="M116 41.5 c0 -3.1 0.3 -3.5 2.6 -3.5 2.1 0 2.5 0.3 1.9 1.8 -0.5 0.9 -0.8 2.5 -0.9 3.5 0 0.9 -0.8 1.7 -1.8 1.7 -1.4 0 -1.8 -0.8 -1.8 -3.5z"/>
  <path d="M227.9 43.6 c0.9 -1 0.8 -1.6 -0.4 -2.6 -2.3 -1.9 -1.8 -3 1.5 -3 2.8 0 3 0.3 3 3.5 0 3.1 -0.3 3.5 -2.6 3.5 -2.1 0 -2.4 -0.3 -1.5 -1.4z"/>
  <path d="M127.5 40.8 c-0.5 -2.1 -0.4 -3.3 0.4 -3.6 1.3 -0.4 1.5 -4.2 0.2 -4.2 -1.1 0 -2.6 -5.8 -1.8 -6.7 0.3 -0.3 2 -0.2 3.7 0.2 l3.2 0.7 -0.6 6.2 c-1 8.4 -1.6 10.6 -3.1 10.6 -0.8 0 -1.7 -1.4 -2 -3.2z"/>
  <path d="M160.8 41.1 c-2.4 -2.4 -2.3 -5.1 0.2 -5.1 1.6 0 2 0.7 2 3.5 0 4 0.1 4 -2.2 1.6z"/>
  <path d="M43.2 40.8 c-1.9 -1.9 -1.4 -2.8 1.8 -2.8 2 0 3 -0.5 3 -1.5 0 -1.1 1 -1.5 3.8 -1.4 2.8 0.2 3.1 0.3 1 0.6 -1.7 0.3 -3 1.4 -3.8 3.4 -1.3 3 -3.7 3.8 -5.8 1.7z"/>
  <path d="M50 41.1 c0 -1.2 2.9 -4.1 4.1 -4.1 0.5 0 0.9 1.1 0.9 2.5 0 2 -0.5 2.5 -2.5 2.5 -1.4 0 -2.5 -0.4 -2.5 -0.9z"/>
  <path d="M79.4 39.6 c-1.2 -5.1 -0.3 -6.1 5.9 -6.4 l5.7 -0.3 0 3.6 c0 2.8 -0.4 3.5 -2 3.5 -1.1 0 -2 0.5 -2 1 0 0.6 -0.9 1 -2 1 -1.3 0 -2 -0.7 -2 -2 0 -1.3 0.7 -2 2 -2 1.1 0 2 -0.4 2 -1 0 -0.5 -1.4 -1 -3.1 -1 -2.9 0 -3.1 0.2 -2.7 3 0.5 3.6 -0.9 4 -1.8 0.6z"/>
  <path d="M74.2 36.5 c0 -4 2.2 -4.8 3.2 -1.2 1 3.7 0.7 4.7 -1.3 4.7 -1.5 0 -1.9 -0.7 -1.9 -3.5z"/>
  <path d="M100 35 c0 -1.3 0.7 -2 2 -2 1.3 0 2 0.7 2 2 0 1.3 -0.7 2 -2 2 -1.3 0 -2 -0.7 -2 -2z"/>
  <path d="M106.1 34 c0 -2 -0.8 -4.6 -1.7 -5.8 -1.5 -2.1 -1.4 -2.2 1.5 -2.2 2.9 0 3.1 0.3 3.1 3.5 0 1.9 -0.4 3.5 -0.9 3.5 -0.5 0 -1.2 1 -1.4 2.3 -0.3 1.4 -0.5 1 -0.6 -1.3z"/>
  <path d="M65 29.5 c0 -2.4 0.5 -3.5 1.5 -3.5 0.8 0 1.5 0.7 1.5 1.5 0 2.5 1.7 1.7 2.5 -1.2 0.8 -3.5 5.3 -8.3 7.7 -8.3 1 0 1.8 0.5 1.8 1 0 0.6 0.7 1 1.5 1 2.3 0 2 5.7 -0.3 6.5 -1.1 0.3 -2.4 1.7 -3 3 -1.6 3.4 -3.2 3.1 -3.2 -0.5 0 -2.3 0.7 -3.5 3 -4.9 3.5 -2.1 3 -3.5 -0.6 -1.9 -1.6 0.8 -3 2.8 -4.2 6 -1.5 4.4 -1.9 4.8 -4.9 4.8 -3.1 0 -3.3 -0.2 -3.3 -3.5z"/>
  <path d="M116 28.5 c0 -3.3 0.4 -4.5 1.5 -4.5 0.8 0 1.5 0.3 1.5 0.8 0.1 0.4 0.3 2.4 0.6 4.5 0.5 3.3 0.3 3.7 -1.5 3.7 -1.8 0 -2.1 -0.6 -2.1 -4.5z"/>
  <path d="M209 26.4 c0 -2.1 1.8 -5.4 3 -5.4 0.6 0 1 1.6 1 3.5 0 2.8 -0.4 3.5 -2 3.5 -1.1 0 -2 -0.7 -2 -1.6z"/>
  <path d="M43.6 21.8 c-1.3 -5 -0.7 -7.8 2 -8.8 3.8 -1.5 5.4 -1.2 5.4 1 0 1.3 -0.7 2 -2 2 -1.1 0 -2 0.5 -2 1 0 0.6 0.9 1 1.9 1 1.5 0 1.9 0.7 1.9 3 -0.1 2.7 -0.4 3 -3.3 3 -2.5 0 -3.4 -0.5 -3.9 -2.2z"/>
  <path d="M71 17 c0 -3 1.5 -4 6.1 -4 4.3 0 3.5 2.2 -1.6 4.6 l-4.5 2.1 0 -2.7z"/>
  <path d="M84 16.5 l0 -3.5 5.5 0 c5.5 0 7.5 1.5 3.3 2.3 l-2.3 0.4 2.3 0.8 c1.2 0.4 2.2 1.4 2.2 2.1 0 1 -1.5 1.4 -5.5 1.4 l-5.5 0 0 -3.5z"/>
  <path d="M98 18.5 c0 -0.8 0.5 -1.5 1 -1.5 0.6 0 1 0.7 1 1.5 0 0.8 -0.4 1.5 -1 1.5 -0.5 0 -1 -0.7 -1 -1.5z"/>
  <path d="M101.6 17.5 c-0.4 -1.4 -1.3 -2.5 -2.1 -2.5 -0.8 0 -1.5 -0.4 -1.5 -1 0 -1.4 3.3 -1.3 4.8 0.2 1.4 1.4 1.6 5.8 0.3 5.8 -0.5 0 -1.2 -1.1 -1.5 -2.5z"/>
  <path d="M254 16.5 c0 -3.3 0.2 -3.5 3.5 -3.5 1.9 0 3.5 0.5 3.5 1 0 0.6 -0.7 1 -1.5 1 -0.8 0 -1.7 1.1 -2.1 2.5 -1 3.9 -3.4 3.1 -3.4 -1z"/>
  <path d="M190 15.5 c0 -3.3 0.2 -3.5 3.5 -3.5 3.9 0 5 2.4 1.5 3.3 -1.1 0.3 -2 1.2 -2 2.1 0 0.9 -0.7 1.6 -1.5 1.6 -1 0 -1.5 -1.1 -1.5 -3.5z"/>
  <path d="M249 17.4 c0 -0.9 -0.9 -1.8 -2 -2.1 -3.5 -0.9 -2.4 -3.3 1.5 -3.3 3.3 0 3.5 0.2 3.5 3.5 0 2.4 -0.5 3.5 -1.5 3.5 -0.8 0 -1.5 -0.7 -1.5 -1.6z"/>
  <path d="M44 9.8 c0 -0.4 1.6 -0.8 3.5 -0.8 1.9 0 3.5 0.2 3.5 0.4 0 0.2 -1.6 0.6 -3.5 0.8 -1.9 0.2 -3.5 0 -3.5 -0.4z"/>
 </g>
 <g fill="#507194">
  <path d="M232 75.8 c0 -3.1 1.3 -5.7 3.1 -6.1 2.8 -0.7 2.7 -7.7 -0.1 -8.4 -3.4 -0.9 -2.4 -3.3 1.5 -3.3 3.1 0 3.5 0.3 4.4 3.8 0.6 2 1.1 4.7 1.1 6 0 1.9 0.5 2.2 3.5 2.2 l3.5 0 0 -12.2 c0 -9.5 0.3 -12.5 1.5 -13.8 1.4 -1.5 1.4 -1.8 0 -3 -1.2 -1 -1.5 -3.7 -1.5 -13.6 l0 -12.4 -3.5 0 -3.5 0 0 12.5 c0 10.2 -0.3 12.7 -1.5 13.1 -0.8 0.4 -1.5 1.2 -1.5 1.9 0 0.7 0.7 1.5 1.5 1.9 2.3 0.8 1.9 4.6 -0.4 4.6 -1.1 0 -2.2 -0.4 -2.6 -0.9 -0.7 -1.2 1.2 -44.2 2.1 -46.5 0.5 -1.4 3 -1.6 18.4 -1.6 l17.8 0 0.4 8.3 c0.4 10.2 -0.1 14.4 -1.4 12.6 -0.6 -0.9 -0.8 0.2 -0.5 3.4 0.3 2.6 0.2 4.7 -0.2 4.7 -0.3 0 -0.7 1.7 -0.7 3.8 -0.3 8.7 -0.8 12.2 -1.6 12.2 -0.4 0 -0.8 -3.1 -0.8 -7 0 -4.3 -0.4 -7 -1.1 -7 -0.5 0 -0.9 -0.8 -0.8 -1.7 0.1 -1 -0.4 -4.6 -1.1 -8.1 l-1.4 -6.3 -4.6 0.3 -4.5 0.3 -0.3 11.5 c-0.1 6.3 -0.7 12.5 -1.4 13.8 -0.9 1.7 -0.9 2.5 0 3.4 0.8 0.8 1.2 5.4 1.2 13.5 l0 12.3 3 0 c4 0 4.9 -2.1 4.5 -10.7 -0.3 -8 0.9 -11.6 1.9 -5.6 2.7 16.2 2.7 16.1 6.4 16.8 2.3 0.4 3.2 1 2.8 2 -0.3 0.8 0 1.8 0.7 2.2 2.2 1.4 -6.6 2.2 -25.5 2.2 -14.4 0.1 -18.8 -0.2 -18.8 -1.1z"/>
  <path d="M76 67.5 c0 -5 0.4 -8.5 1 -8.5 0.6 0 1 2.6 1 5.8 0 7.4 1.6 9.1 8.6 9.3 l4.9 0.2 -5 0.7 c-2.7 0.5 -6.2 0.9 -7.7 0.9 l-2.8 0.1 0 -8.5z"/>
  <path d="M95.1 74.6 c1 -0.8 8.9 -1.3 8.9 -0.5 0 0.5 -2.1 0.9 -4.7 0.9 -2.5 0 -4.4 -0.2 -4.2 -0.4z"/>
  <path d="M130 71.5 c0 -0.8 0.7 -1.5 1.5 -1.5 1.8 0 3.5 -3.9 3.5 -8 0 -3.9 0.9 -6 2.7 -6 1.3 0 1.4 1 0.9 6.3 -1.2 10.3 -1.4 10.7 -5.2 10.7 -2.4 0 -3.4 -0.5 -3.4 -1.5z"/>
  <path d="M190 69.5 c0 -3.9 2.4 -5 3.3 -1.5 0.3 1.1 1.2 2 2.1 2 0.9 0 1.6 0.7 1.6 1.5 0 1 -1.1 1.5 -3.5 1.5 -3.3 0 -3.5 -0.2 -3.5 -3.5z"/>
  <path d="M80.9 69.9 c-2.3 -2.3 -2.1 -4.2 0.4 -4.7 1 -0.2 1.7 0.3 1.7 1.2 0 0.9 0.6 1.6 1.3 1.6 1.8 0 6.7 2.4 6.7 3.3 0 0.4 -1.8 0.7 -4 0.7 -2.7 0 -4.7 -0.7 -6.1 -2.1z"/>
  <path d="M92 71.1 c0 -0.5 0.9 -1.1 2 -1.4 2.7 -0.7 2.5 -2.5 -0.2 -3 -1.4 -0.3 -0.9 -0.5 1.5 -0.6 2 0 3.7 0.3 3.7 0.8 0 0.5 1.2 1.1 2.7 1.3 2.6 0.3 2.6 0.4 0.9 2.1 -1.8 1.8 -10.6 2.5 -10.6 0.8z"/>
  <path d="M121 66.5 c0 -4 2.4 -4.9 3.4 -1.2 1 3.7 0.7 4.7 -1.4 4.7 -1.6 0 -2 -0.7 -2 -3.5z"/>
  <path d="M149 61.5 c0 -5.8 0.3 -7.5 1.4 -7.5 1.8 0 2.8 4.3 2.4 10.4 -0.2 3.6 -0.7 4.6 -2 4.6 -1.6 0 -1.8 -1 -1.8 -7.5z"/>
  <path d="M201.6 66.8 c-1.9 -7.3 1.1 -11 3.2 -3.9 1.6 5.2 1.5 6.1 -0.7 6.1 -1.1 0 -2.1 -0.9 -2.5 -2.2z"/>
  <path d="M57.3 66.3 c-3 -0.4 -3.3 -0.7 -3.3 -3.8 0 -1.9 0.5 -3.7 1.1 -4.1 0.8 -0.5 1 0.1 0.7 2 -0.4 1.7 -0.1 2.5 0.6 2.3 0.6 -0.2 1.1 -1.7 1.1 -3.3 0 -1.6 0.5 -3.2 1 -3.6 0.6 -0.4 0 -0.8 -1.2 -0.8 -2.7 0 -2.8 -0.8 -0.7 -3.8 2.1 -3 0 -2.8 -2.4 0.3 -2.6 3.3 -3.2 3.2 -3.2 -1 l0 -3.5 4.9 0 c3.9 0 5 0.4 5.4 1.9 0.2 1 0.1 2.5 -0.4 3.2 -0.5 0.8 0 2.6 1.2 4.5 1 1.7 1.6 3.9 1.3 4.8 -0.8 2.1 0.5 2 2.2 -0.1 1.2 -1.6 1.3 -1.4 1.4 2 0 3.6 -0.1 3.7 -3.2 3.5 -1.8 0 -4.8 -0.3 -6.5 -0.5z"/>
  <path d="M211.7 59.7 c-2.1 -6.8 -2.1 -7.7 0.1 -7.7 2 0 4.2 5.4 4.2 10.4 0 4.5 -2.5 2.9 -4.3 -2.7z"/>
  <path d="M277.9 63.3 c0 -1 -0.2 -2.8 -0.5 -4 -0.2 -1.3 0.1 -2.3 0.6 -2.3 0.6 0 1 1.8 1 4 0 3.9 -0.9 5.8 -1.1 2.3z"/>
  <path d="M79 61 c0 -1.3 0.7 -2 2 -2 1.3 0 2 0.7 2 2 0 1.3 -0.7 2 -2 2 -1.3 0 -2 -0.7 -2 -2z"/>
  <path d="M226.7 60.3 c-0.4 -0.3 -0.7 -1.5 -0.7 -2.5 0 -2.9 4.4 -2 4.8 1 0.3 1.6 -0.2 2.2 -1.6 2.2 -1 0 -2.2 -0.3 -2.5 -0.7z"/>
  <path d="M64.2 56.6 c-2.1 -2.8 -2.1 -3 -0.5 -4.8 1.5 -1.7 1.8 -1.7 2.6 -0.3 0.4 0.8 0.7 3 0.5 4.8 l-0.3 3.2 -2.3 -2.9z"/>
  <path d="M80 51.5 c0 -1.9 0.5 -3.5 1 -3.5 0.6 0 1 -0.4 1 -1 0 -0.5 -0.7 -1 -1.5 -1 -1.3 0 -1.5 -1.1 -1.3 -6.2 l0.3 -6.3 12 0 c10.6 0 12 0.2 12.3 1.8 0.3 1.5 -0.5 1.7 -6.7 1.7 -4.1 0 -7.1 0.4 -7.1 1 0 0.6 -0.7 1 -1.5 1 -0.8 0 -1.5 0.8 -1.5 1.8 0 1 -0.8 2.3 -1.8 3.1 -1.8 1.3 -2.3 7.6 -0.7 10 0.4 0.7 -0.4 1.1 -1.9 1.1 -2.3 0 -2.6 -0.4 -2.6 -3.5z m5.8 -13.6 c2.4 -0.9 2.5 -1.1 0.9 -2 -2.6 -1.5 -5.7 -0.1 -5.7 2.5 0 2.8 1.4 4.4 1.8 2.1 0.2 -0.9 1.6 -2.1 3 -2.6z"/>
  <path d="M119 51.5 c0 -4 2.4 -4.9 3.4 -1.2 1 3.7 0.7 4.7 -1.4 4.7 -1.6 0 -2 -0.7 -2 -3.5z"/>
  <path d="M86.1 52.2 c-1.3 -2.4 -0.3 -6.2 1.5 -6.2 1 0 1.4 1.3 1.4 4 0 4.2 -1.3 5.2 -2.9 2.2z"/>
  <path d="M215.6 49.3 c-0.9 -5.5 -0.7 -8.3 0.4 -8.3 0.6 0 1 0.7 1 1.5 0 0.8 0.4 1.5 0.9 1.5 1.4 0 2.3 3.5 1.5 6.4 -0.9 3.8 -3 3.2 -3.8 -1.1z"/>
  <path d="M149 46.3 c0 -3.5 0.1 -3.5 1.9 -1.9 2.1 1.9 1.7 5.6 -0.5 5.6 -0.9 0 -1.4 -1.2 -1.4 -3.7z"/>
  <path d="M167 45.5 c0 -2.4 0.5 -3.5 1.5 -3.5 0.8 0 1.5 0.7 1.5 1.5 0 1.2 1.7 1.5 9 1.5 8.3 0 9 -0.1 9 -2 0 -1.1 0.5 -2 1 -2 0.6 0 1 0.5 1 1.1 0 0.6 0.7 1.7 1.5 2.5 3.5 3.6 0.9 4.4 -13.7 4.4 l-10.8 0 0 -3.5z"/>
  <path d="M128.7 47.3 c-1.3 -1.2 -0.7 -4.3 0.8 -4.3 0.9 0 1.5 0.9 1.5 2.5 0 2.4 -1 3.2 -2.3 1.8z"/>
  <path d="M226 46.9 c0 -0.7 0.8 -2.1 1.7 -3.1 1.5 -1.7 1.5 -2 0.3 -2.8 -1.1 -0.7 -0.8 -1 1.3 -1 2.6 0 2.8 0.2 2.5 3.8 -0.3 3.2 -0.7 3.7 -3 4 -1.7 0.2 -2.8 -0.1 -2.8 -0.9z"/>
  <path d="M93 43.5 c0 -3.1 0.3 -3.5 2.5 -3.5 1.9 0 2.5 0.5 2.5 2.1 0 1.8 -0.2 1.9 -1.5 0.9 -1.2 -1 -1.5 -1 -1.5 0.2 0 0.8 0.5 1.9 1.2 2.6 0.9 0.9 0.7 1.2 -1 1.2 -1.8 0 -2.2 -0.6 -2.2 -3.5z"/>
  <path d="M76 42.5 c0 -1.9 0.5 -3.5 1 -3.5 0.6 0 1 1.6 1 3.5 0 1.9 -0.4 3.5 -1 3.5 -0.5 0 -1 -1.6 -1 -3.5z"/>
  <path d="M139 44.5 c1.1 -1.3 1.1 -2 0 -3.9 -1.5 -2.9 -0.5 -8.6 1.6 -8.6 0.9 0 1.4 1.1 1.4 3.5 0 1.9 0.5 3.5 1 3.5 0.6 0 1 1.6 1 3.5 0 3.3 -0.2 3.5 -3.1 3.5 -2.7 0 -3 -0.2 -1.9 -1.5z"/>
  <path d="M161.2 44.1 c0.9 -1.5 0.8 -2.2 -0.5 -3.6 -2.3 -2.2 -2.1 -3.5 0.4 -3.5 2.9 0 4.9 2.4 4.9 5.9 0 2.8 -0.3 3.1 -3 3.1 -2.7 0 -2.9 -0.2 -1.8 -1.9z"/>
  <path d="M38 41.8 c0 -1.8 0.5 -4 1 -4.8 0.8 -1.2 1 -1.1 1 0.6 0 1.2 1.2 3.3 2.6 4.8 l2.7 2.6 -3.7 0 c-3.4 0 -3.6 -0.2 -3.6 -3.2z"/>
  <path d="M303 42.6 c0 -0.8 0.5 -1.8 1 -2.1 0.6 -0.3 1 0.3 1 1.4 0 1.2 -0.4 2.1 -1 2.1 -0.5 0 -1 -0.6 -1 -1.4z"/>
  <path d="M43.8 40.9 c-2.5 -1.4 -2.3 -4.9 0.2 -4.9 1.6 0 2 0.7 2 3 0 1.7 -0.1 3 -0.2 3 -0.2 0 -1.1 -0.5 -2 -1.1z"/>
  <path d="M127.4 39.4 c-0.4 -1.4 -0.2 -3.6 0.5 -5 0.6 -1.3 0.7 -2.4 0.2 -2.4 -1.1 0 -2.6 -5.9 -1.8 -6.7 0.3 -0.3 1.9 -0.2 3.6 0.2 l3.1 0.7 -0.6 5.6 c-0.8 8.5 -1.3 10.2 -2.9 10.2 -0.8 0 -1.8 -1.2 -2.1 -2.6z"/>
  <path d="M149 38.2 c0 -2.9 0.4 -4.2 1.4 -4.2 2.4 0 2.8 4.3 0.6 6.5 -2 1.9 -2 1.9 -2 -2.3z"/>
  <path d="M51.5 39 c1.5 -1.6 3.1 -2 8.7 -2 6.1 0 6.8 0.2 6.8 2 0 1.8 -0.7 2 -8.7 2 -8.5 0 -8.6 0 -6.8 -2z"/>
  <path d="M50 35 c0 -0.6 3.5 -1 8.5 -1 5 0 8.5 0.4 8.5 1 0 0.6 -3.5 1 -8.5 1 -5 0 -8.5 -0.4 -8.5 -1z"/>
  <path d="M207 31.7 c0 -0.1 1.4 -3.8 3 -8 1.7 -4.3 3 -8 3 -8.3 0 -0.2 -1.4 -0.4 -3 -0.4 -2.4 0 -3.5 0.7 -5.1 3.5 -2.6 4.3 -3.9 4.5 -3.9 0.4 0 -4.9 1.6 -6.9 5.5 -6.9 1.9 0 3.5 0.5 3.5 1 0 0.6 1.4 1 3 1 1.7 0 3 -0.4 3 -1 0 -0.5 1.6 -1 3.5 -1 3.9 0 5 2.4 1.5 3.3 -1.1 0.3 -2 1.2 -2 2.1 0 0.9 -0.5 1.6 -1.1 1.6 -1.7 0 -3.9 2.7 -3.9 4.9 0 1.2 -0.4 2.1 -1 2.1 -0.5 0 -1 1.4 -1 3 0 2.5 -0.4 3 -2.5 3 -1.4 0 -2.5 -0.1 -2.5 -0.3z"/>
  <path d="M85.8 30.3 c3.4 -0.2 9 -0.2 12.5 0 3.4 0.2 0.6 0.3 -6.3 0.3 -6.9 0 -9.7 -0.1 -6.2 -0.3z"/>
  <path d="M199 25.6 c0 -1.9 0.5 -2.6 2 -2.6 1.6 0 1.8 0.4 1.1 2.2 -1.2 3.2 -3.1 3.4 -3.1 0.4z"/>
  <path d="M140 25.8 c0 -3 1.3 -5.8 2.6 -5.8 0.9 0 1.4 1.2 1.4 3.5 0 2.8 -0.4 3.5 -2 3.5 -1.1 0 -2 -0.6 -2 -1.2z"/>
  <path d="M66 22.5 c0 -3.2 0.2 -3.5 3 -3.5 l2.9 0 -2 3.5 c-1.2 1.9 -2.5 3.5 -3 3.5 -0.5 0 -0.9 -1.6 -0.9 -3.5z"/>
  <path d="M71 24.1 c1.7 -3.3 6.1 -6.1 9.6 -6.1 3.2 0 3.4 0.2 3.4 3.4 0 3.1 -0.3 3.4 -3.6 4.1 -4.4 0.8 -5.6 -0.1 -2 -1.5 1.5 -0.5 2.4 -1.4 2.1 -2 -0.7 -1.2 -6.5 1.5 -6.5 3 0 0.6 -0.9 1 -2 1 -1.7 0 -1.9 -0.3 -1 -1.9z"/>
  <path d="M130 21.5 c0 -2.8 0.4 -3.5 2 -3.5 2.1 0 2.4 1 1.4 4.8 -1 3.6 -3.4 2.7 -3.4 -1.3z"/>
  <path d="M43 20.4 c0 -3.3 0.2 -3.6 2.3 -3 1.2 0.3 3.7 0.6 5.5 0.6 2.9 0 3.2 0.3 3.2 3 0 3 -0.1 3 -5.5 3 l-5.5 0 0 -3.6z"/>
  <path d="M85 17.5 c0 -1.3 -2.9 -1.5 -20 -1.5 -16.4 0 -20 -0.3 -20 -1.4 0 -2.3 3.4 -2.6 28.5 -2.6 24.4 0 28.5 0.4 28.5 2.4 0 0.7 -1.9 1 -5.6 0.8 -5.3 -0.4 -5.6 -0.3 -4.9 1.7 0.6 1.9 0.2 2.1 -2.9 2.1 -2.5 0 -3.6 -0.4 -3.6 -1.5z"/>
  <path d="M115 15.5 c0 -3.3 0.2 -3.5 3.5 -3.5 3.9 0 5 2.4 1.5 3.3 -1.1 0.3 -2 1.2 -2 2.1 0 0.9 -0.7 1.6 -1.5 1.6 -1 0 -1.5 -1.1 -1.5 -3.5z"/>
  <path d="M141 17.4 c0 -0.9 -0.9 -1.8 -2 -2.1 -1.1 -0.3 -2 -1.2 -2 -1.9 0 -1.1 1.6 -1.4 6.5 -1.4 4.9 0 6.5 0.3 6.5 1.4 0 0.7 -0.9 1.6 -2 1.9 -1.1 0.3 -2 1.2 -2 2.1 0 1 -0.9 1.6 -2.5 1.6 -1.6 0 -2.5 -0.6 -2.5 -1.6z"/>
  <path d="M73 10 l-28.5 -0.5 28.8 -0.3 c18.6 -0.1 28.7 0.2 28.7 0.8 0 0.6 -0.1 0.9 -0.2 0.8 -0.2 -0.2 -13.1 -0.5 -28.8 -0.8z"/>
 </g>
 <g fill="#486687">
  <path d="M99 76 c0 -0.6 -4.7 -1 -12 -1 l-12 0 0 -3.5 c0 -2.4 0.5 -3.5 1.5 -3.5 0.8 0 1.5 0.6 1.5 1.4 0 3.6 2.9 4.6 13.6 4.6 15 0 14.4 1 14.4 -23.5 0 -18.8 0.1 -19.5 2 -19.5 1.9 0 2 0.7 2 17.8 0 19.7 -0.6 25.2 -2.6 25.2 -0.8 0 -1.4 0.7 -1.4 1.5 0 1 -1.1 1.5 -3.5 1.5 -1.9 0 -3.5 -0.4 -3.5 -1z"/>
  <path d="M203.7 73.3 c-0.9 -2.1 -1.6 -3 -1.6 -2 -0.1 1.3 -1 1.7 -3.6 1.7 -3.9 0 -5 -2.4 -1.5 -3.3 2.1 -0.5 2.1 -0.9 2.4 -12.4 0.1 -2.9 0.6 -5.3 1.1 -5.3 1 0 1.6 1.7 4.7 12.5 1.3 4.8 1.6 5 5.2 5.3 l3.9 0.3 -0.6 -3.8 c-0.4 -2.1 -2.5 -9.4 -4.7 -16.2 -4 -12.4 -4.1 -13.5 -1.5 -19.6 2.9 -7 5.5 -13.8 5.5 -14.7 0 -0.5 -1.7 -0.8 -3.7 -0.6 -3.6 0.3 -3.8 0.6 -6.1 6.6 -1.3 3.4 -2.8 6.2 -3.3 6.2 -0.5 0 -0.9 -2.7 -0.9 -6.1 0 -5.2 -0.3 -6.2 -2 -6.6 -3.5 -0.9 -2.4 -3.3 1.5 -3.3 1.9 0 3.5 0.5 3.5 1 0 0.6 0.5 1 1 1 0.6 0 1 -0.7 1 -1.5 0 -0.8 0.5 -1.5 1 -1.5 0.6 0 1 -2.5 1 -5.5 l0 -5.5 18.4 0 18.5 0 -0.2 7.5 c-0.1 4.1 -0.5 7.5 -0.9 7.5 -0.4 0 -0.5 5.1 -0.4 11.3 0.3 8.7 0 11.8 -1.2 13.9 -1.5 2.5 -1.4 2.9 0.2 4.6 1.4 1.7 1.7 3.8 1.5 13.3 -0.1 7.4 0.2 11.4 0.9 11.7 0.8 0.2 0.8 0.9 -0.1 2.3 -1 1.6 -0.9 2.1 0.1 2.8 1.8 1.1 -9.6 2.1 -24.9 2.1 l-12.7 0 -1.5 -3.7z m33.8 -5.4 c0.4 -1.1 0.4 -3.1 0.1 -4.5 -0.6 -2.1 -1.2 -2.4 -4.9 -2.4 -2.4 0 -4.8 -0.5 -5.5 -1.2 -1.8 -1.8 -1.6 -14.4 0.3 -15.2 0.8 -0.3 1.5 -1.2 1.5 -2 0 -0.7 -0.7 -1.6 -1.5 -2 -1.2 -0.4 -1.5 -2.9 -1.5 -13.1 l0 -12.5 -3.5 0 -3.5 0 0 12 c0 7.6 -0.4 12.7 -1.2 13.9 -0.9 1.5 -0.9 2.3 0.2 3.6 1.1 1.3 1.4 4.3 1.1 12.6 -0.1 5.9 0 11.3 0.4 11.8 0.3 0.6 4.2 1.1 9 1.1 7.6 0 8.4 -0.2 9 -2.1z"/>
  <path d="M149.7 72.3 c-0.4 -0.3 -0.7 -3.5 -0.7 -7 0 -4.9 0.3 -6.3 1.5 -6.3 1.5 0 1.8 0.9 1.9 6.5 0.1 2.1 0.8 3.3 2.4 4 3.4 1.5 2.7 3.5 -1.1 3.5 -1.9 0 -3.7 -0.3 -4 -0.7z"/>
  <path d="M82.3 70.9 c-1.3 -0.5 -2.3 -1.3 -2.3 -1.9 0 -1.3 6.7 -1.3 7.5 0 0.3 0.6 2.4 1 4.6 1 2.1 0 3.9 -0.4 3.9 -1 0 -0.5 0.7 -1 1.5 -1 0.9 0 1.8 -0.7 2.1 -1.5 0.9 -2.1 4.4 -1.9 4.4 0.3 -0.1 4 -1.6 4.7 -10.7 4.8 -4.8 0.1 -9.8 -0.2 -11 -0.7z"/>
  <path d="M132.2 70.3 c1.8 -0.4 2.4 -2.5 3.3 -11.3 0.9 -8.7 1.6 -11 3.1 -11 1.7 0 1.7 0.3 0.3 13 l-1.2 10 -3.6 -0.1 c-2 -0.1 -2.8 -0.3 -1.9 -0.6z"/>
  <path d="M53 63.5 c0 -2.5 0.4 -3.5 1.6 -3.5 1 0 1.4 0.6 1 1.5 -0.3 0.9 0 1.5 0.8 1.5 2.3 0 2.5 -3.8 0.4 -6.5 -1.9 -2.5 -1.9 -2.7 -0.3 -4.6 2 -2.1 1.6 -3.3 -0.8 -2.3 -2.2 0.8 -3 3.9 -1.7 6.4 0.9 1.6 0.8 2 -0.5 2 -1.2 0 -1.5 -1.3 -1.5 -6 l0 -6 3.5 0 c3.2 0 3.5 0.2 3.5 3 0 1.7 1.1 4.8 2.4 6.9 1.6 2.4 2.3 4.7 2 6.2 -0.5 2.3 -0.5 2.3 1 0.5 2 -2.4 2 -3.5 0.1 -6 -2.1 -2.8 -1.9 -3.6 1 -3.6 2 0 2.5 0.5 2.5 2.6 0 1.4 0.4 2.3 1 1.9 0.6 -0.3 1.3 0.2 1.7 1.1 0.4 1 0.2 1.9 -0.5 2.2 -0.7 0.2 -1.2 1.3 -1.2 2.4 0 1.8 -0.5 2 -4.5 1.6 -3.4 -0.4 -4.5 -0.2 -4.5 0.8 0 0.9 -1.2 1.4 -3.5 1.4 -3.3 0 -3.5 -0.2 -3.5 -3.5z"/>
  <path d="M76 62.5 c0 -0.8 -0.6 -1.5 -1.2 -1.5 -0.7 -0.1 -2 -1.6 -2.9 -3.5 l-1.6 -3.5 2.8 0 c2.7 0 2.9 -0.3 2.9 -4 0 -3.6 -0.2 -4 -2.5 -4 -3.1 0 -3.3 -1.7 -0.2 -2.3 2.1 -0.3 2.1 -0.4 -0.6 -1.5 -1.6 -0.7 -4.8 -1.2 -7.3 -1.2 -3.2 0 -4.4 -0.4 -4.4 -1.5 0 -1.4 2.7 -2.2 10.5 -2.8 2.2 -0.2 0.7 -0.4 -3.2 -0.5 -6.6 -0.2 -7.3 -0.4 -7.3 -2.2 0 -1.5 0.7 -2 2.5 -2 2.5 0 2.5 -0.1 1.9 -5.5 -0.7 -5.4 -0.6 -5.5 1.9 -5.5 2.4 0 2.6 0.2 1.7 2.6 -1.2 3.1 -1.3 6.7 -0.1 6 0.4 -0.3 1.1 -1.9 1.4 -3.6 0.5 -2.1 1.2 -3 2.7 -3 1.3 0 2 -0.7 2 -1.9 0 -1.9 1.8 -3.1 4.7 -3.1 2.2 0 4.3 2.6 4.3 5.4 0 2.1 -0.6 2.6 -3.6 3.2 -2.8 0.5 -3.5 1 -3.1 2.5 0.3 1.2 0 1.6 -0.9 1.2 -2.6 -1 -1.2 -5.1 2.2 -6.4 3.1 -1.1 3.2 -3.3 0.2 -2.4 -3.4 1.1 -4.8 2.8 -5.5 6.8 -0.5 3.2 -0.3 3.7 1.4 3.7 1.6 0 2.2 0.9 2.7 3.8 1 6.2 0.7 28.2 -0.4 28.2 -0.5 0 -1 -0.7 -1 -1.5z"/>
  <path d="M79.4 61.7 c-0.3 -0.8 -0.3 -7.4 -0.2 -14.8 l0.3 -13.4 3.5 0.1 c6.3 0.2 7 0.4 7 1.9 0 1.8 -1.2 1.9 -2.7 0.4 -0.6 -0.6 -2.1 -0.9 -3.4 -0.7 -1.9 0.2 -2.5 1 -2.7 3.6 -0.4 3.5 1.3 4.4 2.3 1.2 0.8 -2.5 3.5 -2.6 3.5 -0.2 0 1 -0.9 3.5 -2 5.7 -1.4 2.8 -2 5.9 -2 10.7 0 5.4 -0.3 6.8 -1.5 6.8 -0.9 0 -1.8 -0.6 -2.1 -1.3z"/>
  <path d="M101.2 62.3 c1.5 -0.4 1.8 -2.2 2.1 -14.6 l0.3 -14.2 0.2 14.8 c0.2 14.7 0.2 14.7 -2 14.6 -1.7 -0.1 -1.8 -0.3 -0.6 -0.6z"/>
  <path d="M120 61.3 c0 -1 -0.3 -4.2 -0.6 -7 -0.6 -4.4 -0.4 -5.3 0.9 -5.3 1.5 0 2 1.2 3.2 9.8 0.6 3.8 0.5 4.2 -1.4 4.2 -1.3 0 -2.1 -0.6 -2.1 -1.7z"/>
  <path d="M84 57.5 l0 -3.5 2 2 c2.3 2.3 8.8 2.8 10.8 0.8 0.9 -0.9 1.2 -0.8 1.2 0.5 0 1.3 -0.9 1.7 -3.5 1.7 -1.9 0 -3.5 0.5 -3.5 1 0 0.6 -1.6 1 -3.5 1 -3.3 0 -3.5 -0.2 -3.5 -3.5z"/>
  <path d="M87.6 54.4 c-2.9 -2.8 -1.9 -3.6 3.7 -2.9 6.1 0.9 6.4 1 4.7 3 -1.6 2 -6.4 1.9 -8.4 -0.1z"/>
  <path d="M86 48.2 c0 -1.1 0.9 -2.7 2 -3.7 2 -1.8 2 -1.7 2 1.8 0 3 -0.4 3.7 -2 3.7 -1.3 0 -2 -0.7 -2 -1.8z"/>
  <path d="M169.1 45.3 c0.1 -2.1 0.4 -2.9 0.6 -1.8 0.3 1.8 1 2.1 5.6 1.8 6.7 -0.3 10.7 0.5 10.7 2.3 0 1.1 -1.8 1.4 -8.5 1.4 l-8.5 0 0.1 -3.7z"/>
  <path d="M128.5 45.8 c-0.9 -3.5 -0.9 -9.5 0 -15.5 0.6 -4.4 0.5 -5.3 -0.7 -5.3 -1.4 0 -2.8 -2.7 -2.8 -5.7 0 -0.7 0.9 -1.3 2 -1.3 1.6 0 2 0.7 2 3 0 2.4 0.4 3 2.1 3 1.9 0 2.1 0.4 1.5 4.3 -0.3 2.3 -0.9 7.4 -1.2 11.2 -0.6 7.5 -1.9 10.3 -2.9 6.3z"/>
  <path d="M187.8 42.5 c0.3 -2.7 0.9 -3.5 2.4 -3.5 1.8 0 1.9 0.2 0.7 1.6 -1 1.2 -1 2 -0.1 3.5 1.1 1.7 0.9 1.9 -1.1 1.9 -2 0 -2.3 -0.4 -1.9 -3.5z"/>
  <path d="M117 39.3 c0 -1 -0.3 -4.2 -0.6 -7 -0.6 -4.5 -0.4 -5.3 0.9 -5.3 1.6 0 2.5 2.9 3 10 0.1 2.6 -0.2 3.5 -1.5 3.8 -1.2 0.2 -1.8 -0.3 -1.8 -1.5z"/>
  <path d="M49.1 35.3 c-0.1 -3.1 0.1 -3.3 3.4 -3.3 2.8 0 3.5 0.4 3.5 2 0 1.5 -0.7 2 -2.9 2 -1.6 0 -3.2 0.6 -3.4 1.3 -0.3 0.6 -0.6 -0.3 -0.6 -2z"/>
  <path d="M82.3 30.3 c1.5 -0.2 3.9 -0.2 5.5 0 1.5 0.2 0.2 0.4 -2.8 0.4 -3 0 -4.3 -0.2 -2.7 -0.4z"/>
  <path d="M103.2 26.8 c-1.2 -1.6 -1.3 -13 -0.1 -12.2 0.5 0.3 0.9 2.5 0.9 5 0 2.4 0.5 4.4 1 4.4 1.6 0 1.2 -8.3 -0.6 -10.8 -1.5 -2.1 -1.4 -2.2 1.4 -2.2 2.6 0 3 0.4 3.6 3.8 0.8 4.8 0.8 9.6 0 11.6 -0.7 1.9 -4.7 2.1 -6.2 0.4z"/>
  <path d="M162 25.5 c0 -0.8 0.7 -1.5 1.6 -1.5 0.9 0 1.8 -0.9 2.1 -2 0.9 -3.5 3.3 -2.4 3.3 1.5 0 3.3 -0.2 3.5 -3.5 3.5 -2.4 0 -3.5 -0.5 -3.5 -1.5z"/>
  <path d="M115 21.5 c0 -4 2.4 -4.9 3.4 -1.2 1 3.7 0.7 4.7 -1.4 4.7 -1.6 0 -2 -0.7 -2 -3.5z"/>
  <path d="M42.3 18.4 c-1 -2.6 1.1 -4.9 4.6 -5.2 3.7 -0.4 4.4 2.1 0.9 3.3 l-2.3 0.8 2.3 0.4 c3.5 0.7 2.6 2.3 -1.3 2.3 -2.4 0 -3.8 -0.5 -4.2 -1.6z"/>
  <path d="M39.1 15.8 c-0.1 -2.8 0.3 -3.8 1.5 -3.8 0.8 0 1.2 0.5 0.9 1.1 -0.4 0.6 -1.1 2.3 -1.5 3.7 -0.8 2.5 -0.8 2.4 -0.9 -1z"/>
  <path d="M83 16 c0 -3.3 -0.9 -3 12 -3.2 4.5 -0.1 6 0.2 6 1.2 0 0.6 -2.3 1 -5.1 1 -4.2 0 -5.2 0.3 -5.6 2 -0.4 1.5 -1.4 2 -3.9 2 -3.1 0 -3.4 -0.3 -3.4 -3z"/>
  <path d="M92.8 9.3 c1.8 -0.2 4.5 -0.2 6 0 1.5 0.2 0 0.4 -3.3 0.4 -3.3 0 -4.5 -0.2 -2.7 -0.4z"/>
 </g>
 <g fill="#405c79">
  <path d="M77 75 c0 -1.1 -0.6 -2 -1.4 -2 -0.9 0 -1.5 -2.2 -1.9 -7.6 -0.4 -5.3 -1.1 -8.2 -2.4 -9.7 -1.8 -2 -1.7 -2 0.5 -1.5 1.5 0.4 2.2 0.2 2.2 -0.9 0 -1.4 2.3 -4.3 3.4 -4.3 0.3 0 0.6 5.2 0.6 11.5 0 13.6 -0.2 13.4 12.2 13.7 6.8 0.1 7.3 0.2 2.6 0.5 -3.2 0.2 -5.8 0.8 -5.8 1.3 0 0.6 -2.2 1 -5 1 -4.3 0 -5 -0.3 -5 -2z"/>
  <path d="M170.4 63.1 c0.1 -7.7 -0.2 -14.2 -0.6 -14.6 -0.4 -0.4 -3 -0.7 -5.8 -0.6 -5.4 0.1 -6.1 -0.6 -3 -3.4 l2 -1.8 -2.2 -2.4 -2.1 -2.3 3.6 0 c2 0 3.7 -0.4 3.7 -1 0 -0.5 0.5 -1 1.1 -1 4.1 0 5.3 -8.8 3.5 -27.2 l-0.9 -8.8 19.7 0 19.6 0 0.2 3.8 c0.3 6.9 -0.2 9.3 -2.6 11.5 -1.3 1.2 -3.2 4.6 -4.1 7.5 -2 6.2 -3.7 5.9 -3.5 -0.7 0.3 -7 0.2 -7.1 -3 -7.1 l-3 0 0 11.8 c0 10.7 -0.2 12.1 -2 13.7 l-2 1.8 2 2.2 c1.8 1.9 2 3.5 2 13.8 l0 11.7 3 0 c2.2 0 3 -0.5 3.1 -1.7 0 -1 0.1 -4.7 0.2 -8.3 0.1 -3.6 0.6 -6.7 1.1 -7 0.5 -0.3 1.7 2.4 2.8 6 1 3.6 1.7 6.5 1.7 6.5 -0.6 0 3.5 8.1 4.4 8.7 3 2 -2.8 2.8 -20.4 2.8 l-18.6 0 0.1 -13.9z m17.4 -21.3 l0.3 -3.8 -9 0 -9.1 0 0 4 0 4.1 8.8 -0.3 8.7 -0.3 0.3 -3.7z"/>
  <path d="M88.8 71.2 c-1 -0.2 -1.8 -0.8 -1.8 -1.3 0 -0.5 -0.9 -0.9 -2.1 -0.9 -1.1 0 -1.7 0.5 -1.4 1 0.3 0.6 -0.1 1 -1 1 -1.6 0 -3.7 -3.8 -2.8 -5.2 0.6 -1.1 15.3 -1 15.3 0.1 0 0.6 -1.7 1.1 -3.7 1.3 -5.1 0.4 -4.8 2.2 0.4 2.6 3.8 0.3 4.3 0.1 4.9 -2.3 0.5 -2.2 1.1 -2.6 3.8 -2.3 4.3 0.4 5 3.8 0.8 3.8 -1.7 0 -3.2 0.5 -3.4 1.1 -0.4 1.1 -6 1.8 -9 1.1z"/>
  <path d="M120.6 66.4 c-0.9 -7.2 -0.8 -9.4 0.9 -9.4 0.9 0 1.6 1.4 2 3.8 1.4 8.1 1.7 9.1 3.3 9.5 0.9 0.3 0.1 0.5 -1.9 0.6 -3.6 0.1 -3.6 0 -4.3 -4.5z"/>
  <path d="M106 68.8 c0 -3 1.3 -5.8 2.6 -5.8 0.9 0 1.4 1.2 1.4 3.5 0 2.8 -0.4 3.5 -2 3.5 -1.1 0 -2 -0.6 -2 -1.2z"/>
  <path d="M149 64 c0 -4.3 2.3 -5.7 3.3 -2 0.7 2.8 -0.3 6 -1.9 6 -1 0 -1.4 -1.3 -1.4 -4z"/>
  <path d="M52.3 61 c0.4 -4.7 0.2 -6 -0.9 -6 -0.9 0 -1.4 -1.2 -1.4 -3.5 0 -3.2 -0.2 -3.5 -3 -3.5 -2.3 0 -3 -0.4 -3 -2 0 -1.3 -0.7 -2 -2 -2 -1.3 0 -2 -0.7 -2 -2 0 -2 0 -2 2 0 1.8 1.8 3.3 2 17.5 2 9.7 0 15.5 -0.4 15.5 -1 0 -0.6 -4.8 -1 -12.5 -1 -6.9 0 -12.5 -0.4 -12.5 -0.9 0 -2.1 3.2 -2.9 13 -3.3 5.8 -0.3 10.6 -0.9 10.7 -1.4 0.2 -0.7 -7.3 -0.9 -22.8 -0.4 -0.4 0 -1.2 1.4 -1.9 3 -1.4 3.3 -3.1 3.8 -5.4 1.4 -2.2 -2.1 -2 -3.4 0.4 -3.4 1.1 0 2 -0.5 2 -1.1 0 -2.9 3 -3.9 11.9 -3.9 5.4 0 9.1 0.4 9.1 1 0 0.6 1.6 1 3.5 1 1.9 0 3.5 -0.4 3.5 -1 0 -0.5 -0.4 -1 -1 -1 -0.5 0 -1 -0.7 -1 -1.5 0 -0.8 -0.4 -1.5 -1 -1.5 -2.2 0 -0.8 -4.4 2.4 -7.6 3.5 -3.5 7.6 -4.5 7.6 -1.9 0 0.8 -0.7 1.5 -1.5 1.5 -2.3 0 -6.5 4.6 -6.5 7 0 2.9 1.4 2.5 2.6 -0.8 0.8 -2.1 2 -3.1 4.4 -3.6 4.5 -0.9 6.2 1.6 1.9 2.7 -3.8 1 -5.2 4.5 -4.3 11.4 0.3 2.9 0.3 6.4 0 7.8 -0.6 2.3 -1.1 2.5 -6.1 2.5 -5.1 0 -5.5 0.2 -5.5 2.4 0 1.3 -0.7 2.9 -1.5 3.6 -1.2 1 -1.5 1 -1.5 -0.2 0 -0.8 0.5 -1.9 1.2 -2.6 0.6 -0.6 0.8 -1.5 0.4 -1.9 -0.4 -0.5 -1.6 0.2 -2.6 1.5 -1.5 1.7 -1.7 2.9 -1 4.7 0.6 1.6 0.5 2.5 -0.3 2.9 -0.7 0.2 -0.2 0.5 0.9 0.5 1.8 0.1 2 0.6 1.6 2.9 -0.5 2.4 -0.4 2.6 1.1 1.3 1.5 -1.2 1.7 -1.1 1.7 0.6 0 1.7 -0.9 2.1 -5.2 2.7 -9.6 1.1 -9.1 1.4 -8.5 -5.4z m5.6 0.8 c0.6 -1.7 0.4 -3.2 -1 -5.4 -1.7 -2.8 -1.7 -3.3 -0.4 -4.4 2.3 -1.9 2 -4.3 -0.4 -3 -2.9 1.5 -3.5 4.7 -1.6 7.6 0.9 1.4 1.5 3.3 1.4 4.2 -0.3 3.9 0.7 4.4 2 1z m7.1 -21.8 c0 -0.5 -2.5 -1 -5.5 -1 -3 0 -5.5 0.5 -5.5 1 0 0.6 2.5 1 5.5 1 3 0 5.5 -0.4 5.5 -1z"/>
  <path d="M159 63.5 c0 -2.8 0.4 -3.5 2 -3.5 1.6 0 2 0.7 2 3.5 0 2.8 -0.4 3.5 -2 3.5 -1.6 0 -2 -0.7 -2 -3.5z"/>
  <path d="M135 63.8 c0 -3 1.3 -5.8 2.6 -5.8 0.9 0 1.4 1.2 1.4 3.5 0 2.8 -0.4 3.5 -2 3.5 -1.1 0 -2 -0.6 -2 -1.2z"/>
  <path d="M80 62.7 c-0.1 -0.1 -0.2 -6.6 -0.4 -14.4 -0.2 -13.8 -0.2 -14.3 1.8 -14.3 1.6 0 1.7 0.3 0.8 1.2 -1.5 1.5 -1.6 6.5 0 7 0.7 0.3 1.2 2.6 1.3 5.5 0.1 3 0.8 6.2 1.9 7.8 1.6 2.4 2.3 2.6 6.7 2.3 4.5 -0.3 4.9 -0.1 4.9 1.9 0 1.8 0.7 2.2 3.8 2.5 2 0.2 -1.8 0.5 -8.5 0.6 -6.8 0.1 -12.3 0.1 -12.3 -0.1z m7 -2.7 c0 -1.3 -0.7 -2 -2 -2 -1.3 0 -2 0.7 -2 2 0 1.3 0.7 2 2 2 1.3 0 2 -0.7 2 -2z"/>
  <path d="M66.7 61.3 c-1 -0.9 -0.9 -7.3 0.1 -7.3 1.4 0.1 4.4 5.1 3.8 6.6 -0.6 1.5 -2.8 1.9 -3.9 0.7z"/>
  <path d="M136 55.3 c0 -3.4 1.2 -6.3 2.6 -6.3 1 0 1.4 1.3 1.4 4 0 3.3 -0.3 4 -2 4 -1.2 0 -2 -0.7 -2 -1.7z"/>
  <path d="M86.7 53.3 c-0.4 -0.3 -0.7 -1.9 -0.7 -3.5 0 -2.3 0.4 -2.8 2.5 -2.8 2 0 2.5 0.5 2.5 2.5 0 1.4 0.4 2.5 0.9 2.5 1.2 0 1.7 -4.2 1.2 -9.7 -0.3 -4.9 -2.1 -5.9 -2.1 -1.3 0 1.7 -0.3 3 -0.6 3 -1.5 0 -3.5 -3.2 -3.2 -5.2 0.2 -1.8 1.1 -2.4 3.6 -2.6 2.4 -0.2 3.2 0.1 3.2 1.2 0 0.9 0.9 1.6 2 1.6 1.3 0 2 0.7 2 2 0 1.5 0.7 2 2.5 2 2.2 0 2.5 0.4 2.5 3.4 0 2.1 -0.6 3.6 -1.5 4 -1 0.3 -1.5 -0.1 -1.5 -1.3 0 -2.4 -3.9 -7.3 -5.2 -6.5 -0.5 0.4 -0.1 1.5 1.1 2.8 2.7 2.9 2.7 5.6 0.1 5.6 -1.1 0 -2 0.7 -2 1.5 0 1 -1 1.5 -3.3 1.5 -1.9 0 -3.7 -0.3 -4 -0.7z"/>
  <path d="M118 48 c0 -1.1 -0.7 -2 -1.5 -2 -1 0 -1.5 -1.1 -1.5 -3.5 0 -1.9 0.5 -3.5 1 -3.5 0.6 0 1 -0.7 1 -1.5 0 -2 2.6 -1.9 3.4 0 0.3 0.9 0 2.4 -0.6 3.5 -1 1.5 -0.9 2.2 0.5 3.8 2.3 2.6 2.2 5.2 -0.3 5.2 -1.3 0 -2 -0.7 -2 -2z"/>
  <path d="M128.6 45.3 c-1.9 -10.1 -1.9 -11.3 0.3 -11.3 1.9 0 2.1 0.6 2.1 6.4 0 6.7 -1.4 9.7 -2.4 4.9z"/>
  <path d="M138.8 44.7 c1.7 -1.8 1.9 -2.6 1 -3.5 -0.9 -0.9 -0.6 -1.2 1.5 -1.2 2.4 0 2.7 0.4 2.7 3.5 0 3.4 -0.1 3.5 -3.7 3.5 l-3.6 0 2.1 -2.3z"/>
  <path d="M146 42.5 c0 -3.3 0.2 -3.5 3.1 -3.5 2.8 0 3 0.2 1.8 1.6 -1 1.2 -1 2 -0.1 3.5 1.1 1.7 0.9 1.9 -1.8 1.9 -2.8 0 -3 -0.3 -3 -3.5z"/>
  <path d="M303 43 c0 -1.1 0.5 -2 1 -2 0.6 0 1 0.9 1 2 0 1.1 -0.4 2 -1 2 -0.5 0 -1 -0.9 -1 -2z"/>
  <path d="M206.2 40.5 c-1.7 -3.7 -1.4 -4.5 0.4 -1.2 0.9 1.6 1.4 3.1 1.1 3.3 -0.2 0.2 -0.9 -0.7 -1.5 -2.1z"/>
  <path d="M106.4 33 c-0.4 -2.7 -1.6 -4.8 -3.2 -6.1 -1.9 -1.4 -2.3 -2.2 -1.4 -2.8 0.9 -0.5 1 -1.9 0.4 -4.7 -0.8 -3.9 -0.8 -3.9 -6 -4.2 -3.2 -0.2 -5.2 0.1 -5.2 0.7 0 0.6 2 1.1 4.5 1.1 3.8 0 4.5 0.3 4.5 2 0 1.3 -0.7 2 -2 2 -1.1 0 -2 -0.7 -2 -1.5 0 -1.1 -1.1 -1.5 -3.9 -1.5 -3.4 0 -3.8 -0.3 -3.8 -2.5 0 -2.4 0.2 -2.5 6.6 -2.5 3.9 0 7.2 0.5 7.9 1.2 0.7 0.7 1.2 3.1 1.2 5.4 0 4.5 1.3 6.5 2.4 3.8 0.4 -0.9 0.4 -3.2 0 -5 -0.5 -3 -0.4 -3.4 1.5 -3.4 1.9 0 2.1 0.6 2.1 6 0 3.3 -0.4 6 -1 6 -0.5 0 -1 0.7 -1 1.5 0 0.8 0.5 1.5 1 1.5 0.6 0 1 1.6 1 3.5 0 5.1 -2.8 4.7 -3.6 -0.5z"/>
  <path d="M139 33.1 c0 -3.2 2.2 -11.6 3.3 -12.3 2 -1.3 3.7 -0.9 3.7 0.8 0 0.9 0.9 1.8 2 2.1 3.2 0.8 2.4 3.1 -1.2 3.5 -2.9 0.3 -3.3 0.7 -3.6 3.6 -0.2 2.4 -0.8 3.2 -2.3 3.2 -1 0 -1.9 -0.4 -1.9 -0.9z"/>
  <path d="M80.2 29.8 c0.7 -2 4.8 -2.3 4.8 -0.4 0 1.1 -0.9 1.6 -2.6 1.6 -1.6 0 -2.4 -0.5 -2.2 -1.2z"/>
  <path d="M101 29.4 c0 -1.4 0.3 -1.4 1.5 -0.4 0.8 0.7 1.5 1.4 1.5 1.6 0 0.2 -0.7 0.4 -1.5 0.4 -0.8 0 -1.5 -0.7 -1.5 -1.6z"/>
  <path d="M126.6 28.8 c-0.9 -3.7 -0.7 -4.5 1.3 -5.1 1.4 -0.3 2 -1.8 2.5 -6.1 0.7 -5.6 0.8 -5.6 4.2 -5.6 3.7 0 4.9 2.4 1.6 3.2 -1.4 0.4 -2.1 2.2 -3 7.3 -1 6.4 -2.2 8.4 -4.8 8.5 -0.7 0 -1.4 -1 -1.8 -2.2z"/>
  <path d="M67.6 23 c0.3 -3.5 0.8 -6.8 1 -7.2 0.3 -0.4 3.3 -0.8 6.7 -0.7 5.4 0.1 5.7 0.2 2.8 0.9 -4.3 1 -9 5.7 -10.2 10.1 -0.6 2.5 -0.7 1.7 -0.3 -3.1z"/>
  <path d="M115 26.3 c0 -1 -0.3 -4.2 -0.6 -7 l-0.7 -5.3 3.9 0.1 c2.1 0.1 3.1 0.3 2 0.6 -1.6 0.4 -1.7 1.2 -1.1 6.9 0.6 6 0.5 6.4 -1.4 6.4 -1.3 0 -2.1 -0.6 -2.1 -1.7z"/>
  <path d="M159.4 26.4 c0.3 -0.9 0.6 -1.8 0.6 -2 0 -0.2 0.9 -0.4 2 -0.4 1.3 0 2 0.7 2 2 0 1.5 -0.7 2 -2.6 2 -2 0 -2.5 -0.4 -2 -1.6z"/>
  <path d="M166 18.9 c0 -2.2 -0.5 -3.2 -2 -3.6 -3.4 -0.9 -2.4 -3.3 1.4 -3.3 3.6 0 4.6 1.5 4.6 7.3 0 2 -0.5 2.7 -2 2.7 -1.6 0 -2 -0.7 -2 -3.1z"/>
  <path d="M43 15 c1.2 -2.3 5 -2.7 5 -0.6 0 1.4 -2.1 2.6 -4.6 2.6 -1.2 0 -1.2 -0.4 -0.4 -2z"/>
  <path d="M41 11.6 c0 -1 0.8 -1.6 2.2 -1.6 1.2 0 1.9 0.1 1.7 0.3 -0.2 0.1 -1.2 0.9 -2.1 1.6 -1.5 1.2 -1.8 1.1 -1.8 -0.3z"/>
  <path d="M101.3 11.1 c-4.3 -2.1 -4.2 -4.1 0.2 -4.1 3.2 0 3.5 0.2 3.5 3 0 1.7 -0.1 2.9 -0.2 2.9 -0.2 -0.1 -1.8 -0.9 -3.5 -1.8z"/>
 </g>
 <g fill="#37516d">
  <path d="M5.7 75.2 c-2.3 -2.6 -2.2 -5.2 0.3 -5.2 1.6 0 2 0.7 2 3.5 0 4 -0.1 4.1 -2.3 1.7z"/>
  <path d="M93 75.6 c0 -1 1.6 -1.5 5.5 -1.8 4.7 -0.3 5.5 0 5.5 1.5 0 1.4 -0.9 1.7 -5.5 1.7 -4.1 0 -5.5 -0.4 -5.5 -1.4z"/>
  <path d="M134 75.5 c0 -0.9 -0.7 -1.8 -1.5 -2.1 -1.9 -0.8 -2 -3.4 -0.1 -3.4 1.9 0 2.3 -1.3 3.6 -13.2 1 -8.1 1.7 -10.7 3.3 -12.1 1.9 -1.6 1.9 -1.8 0.3 -3.6 -1.6 -1.8 -1.6 -2.5 -0.2 -10.1 0.9 -4.5 1.6 -10 1.6 -12.1 0 -3.8 -0.1 -3.9 -3.4 -3.9 -3.1 0 -3.4 0.3 -4 4 -0.9 5.8 -3.6 5.5 -3.6 -0.5 0 -2.5 0.5 -4.5 1 -4.5 0.6 0 1 -0.7 1 -1.5 0 -0.8 0.6 -1.5 1.4 -1.5 1.2 0 1.3 -1.1 0.9 -5.5 l-0.6 -5.5 19.5 0 19.5 0 0.7 6 c0.3 3.3 0.9 8.6 1.2 11.9 0.4 3.2 0.3 8.8 0 12.4 -0.6 5.6 -1.1 6.6 -3.2 7.6 -2.1 0.9 -2.5 1.7 -2.2 4.4 0.2 2.6 0.8 3.3 3.3 3.8 1.7 0.4 2.3 0.7 1.5 0.8 -0.9 0.1 -1.1 0.4 -0.5 0.9 1.3 0.9 1.4 25.2 0.1 25.2 -0.5 0 -0.1 0.9 0.9 2 1.8 2 1.7 2 -19.3 2 -18.4 0 -21.2 -0.2 -21.2 -1.5z m25.1 -8.7 c0 -1.8 0 -7.2 -0.1 -12 -0.1 -7.8 0.1 -8.8 1.9 -9.8 2.6 -1.4 2.7 -3.2 0.1 -4.8 -1.7 -1 -2 -2.3 -2 -7.5 0 -6.7 1 -8.7 4.6 -8.7 1.6 0 2.3 -0.7 2.6 -2.8 0.8 -6 0.6 -6.2 -10.3 -6.2 l-9.9 0 0 4.5 c0 4.3 0.1 4.5 3 4.5 l3 0 0 7.7 c0 5.4 -0.4 8.1 -1.5 9.3 -1.4 1.5 -1.4 1.8 0 3 1.2 1 1.5 3.7 1.5 13 0 6.4 0.3 12 0.7 12.3 0.3 0.4 1.9 0.7 3.5 0.7 2.5 0 2.8 -0.4 2.9 -3.2z"/>
  <path d="M74 69.5 c0 -2.1 -0.5 -2.5 -2.8 -2.5 -2.5 0 -3 -0.5 -4.5 -5.5 -1.9 -6.4 -2.1 -8.5 -0.7 -8.5 0.6 0 1 -0.9 1 -2 0 -1.1 0.5 -2 1 -2 0.6 0 1 -0.7 1 -1.5 0 -0.9 0.9 -1.5 2.4 -1.5 2.9 0 3.3 -1 3 -7.2 -0.1 -3.5 0.2 -4.8 1.2 -4.8 1.8 0 1.7 0 1.8 20.8 0.1 15.8 0 17.2 -1.6 17.2 -1.3 0 -1.8 -0.8 -1.8 -2.5z m-0.8 -10.5 c0.3 -2.1 0 -3 -0.9 -3 -2 0 -2.7 -2.8 -1.3 -4.5 1.7 -2 0.5 -3.2 -1.5 -1.5 -1.9 1.6 -1.9 5 -0.1 7.6 0.9 1.1 1.2 2.9 0.9 4.4 -0.6 2.2 -0.4 2.3 0.9 1.2 0.9 -0.7 1.8 -2.6 2 -4.2z"/>
  <path d="M120.6 68.9 c-0.3 -1.7 -0.6 -4.7 -0.6 -6.5 0 -4.8 2.7 -4.5 3.5 0.4 1.1 6 1.6 7.2 3.1 7.2 0.8 0 1.4 0.5 1.4 1 0 0.6 -1.5 1 -3.4 1 -3 0 -3.4 -0.4 -4 -3.1z"/>
  <path d="M84 69.9 c0 -0.6 -0.9 -0.9 -2 -0.6 -1.6 0.4 -2 0 -2 -1.7 0 -2.1 0.3 -2.2 11.7 -2.1 10.4 0 11.8 0.2 12.1 1.8 0.3 1.4 -0.4 1.7 -3.7 1.7 -2.3 0 -4.1 -0.4 -4.1 -1 0 -1.3 -7.7 -1.3 -8.5 0 -0.3 0.6 0.4 1.4 1.7 1.9 2 0.9 1.9 1 -1.4 1 -2.2 0.1 -3.8 -0.4 -3.8 -1z"/>
  <path d="M59 65.5 c0 -0.8 -0.4 -1.5 -1 -1.5 -0.6 0 -0.6 -0.9 -0.1 -2.4 0.7 -1.7 0.5 -3.1 -0.9 -5.4 -1.1 -1.8 -1.5 -3.4 -1 -3.7 0.6 -0.4 1 0.1 1 0.9 0 0.9 0.8 1.6 1.9 1.6 1.9 0 3.1 2.2 3.7 6.5 0.1 1.1 0.3 2.2 0.3 2.4 0.1 0.2 0.8 -0.2 1.6 -0.9 1.3 -1.1 1.5 -0.8 1.5 1.4 0 2.3 -0.4 2.6 -3.5 2.6 -2.4 0 -3.5 -0.5 -3.5 -1.5z"/>
  <path d="M79.8 50.8 c-0.4 -17.6 -0.7 -16.8 5.7 -16.8 l5.4 0 -0.1 8.7 c-0.1 5.8 0.3 8.8 1 9.1 0.8 0.2 1.3 -1.9 1.4 -7 0 -4 0.3 -5.8 0.5 -4 0.3 1.8 1.3 4.2 2.4 5.3 2.5 2.5 2.4 5.4 -0.1 7.9 -4.3 4.3 -10.6 1 -9.7 -5 0.3 -1.7 1.1 -3.8 1.8 -4.6 1.5 -1.9 0.4 -3.1 -1.5 -1.5 -1.1 0.9 -1.5 0.7 -2 -1.1 -0.9 -3.4 -0.8 -3.5 1.6 -4.2 3 -0.7 1 -2.9 -2.3 -2.4 -2.2 0.3 -2.4 0.8 -2.7 6.7 -0.2 3.5 0.1 6.7 0.6 7 0.5 0.3 1.4 2.1 2 3.9 1 2.9 0.9 3.2 -0.9 3.2 -1.4 0 -1.9 0.7 -1.9 3 0 2.5 0.4 3 2.5 3 2 0 2.5 -0.5 2.5 -2.5 0 -2.2 0.2 -2.4 2.6 -1.5 4 1.5 5.3 1.2 8.6 -2 2.5 -2.6 2.9 -3.7 2.6 -7 -0.2 -2.2 0 -4 0.4 -4 0.5 0 0.8 1.1 0.8 2.5 0 1.4 0.5 2.5 1 2.5 0.6 0 1 1.5 1 3.4 0 2.8 -0.4 3.5 -2.2 3.8 -1.5 0.2 -2.4 1.1 -2.6 2.5 -0.3 1.8 0.3 2.2 3 2.6 1.8 0.2 -2.2 0.5 -8.9 0.5 l-12.2 0.2 -0.3 -12.2z"/>
  <path d="M55 60.2 c0 -0.7 -1.1 -1.2 -2.5 -1.2 -2.2 0 -2.5 -0.4 -2.5 -3.5 0 -2.1 0.5 -3.5 1.3 -3.5 1.4 0.1 5.2 7.8 4.3 8.7 -0.3 0.4 -0.6 0.1 -0.6 -0.5z"/>
  <path d="M119 53.5 c0 -4 2.4 -4.9 3.4 -1.2 1 3.7 0.7 4.7 -1.4 4.7 -1.6 0 -2 -0.7 -2 -3.5z"/>
  <path d="M41.8 47.3 c-1 -0.2 -1.8 -1.1 -1.8 -1.9 0 -0.8 -0.7 -1.4 -1.5 -1.4 -1 0 -1.5 -1.1 -1.5 -3.5 0 -4.3 2.1 -4.7 3.7 -0.6 0.8 2.2 2.1 3.3 5.2 4.2 7.3 2.2 3.4 5.2 -4.1 3.2z"/>
  <path d="M128.6 44 c-0.4 -1.9 -0.8 -5.5 -0.9 -8 -0.2 -4 0.1 -4.5 2 -4.8 2.2 -0.3 2.3 -0.1 1.6 6 -0.3 3.5 -0.9 7.2 -1.3 8.3 -0.7 1.7 -0.9 1.4 -1.4 -1.5z"/>
  <path d="M303 44 c0 -1.1 0.5 -2 1 -2 0.6 0 1 0.9 1 2 0 1.1 -0.4 2 -1 2 -0.5 0 -1 -0.9 -1 -2z"/>
  <path d="M43.7 40.2 c-1.9 -2.1 -2.2 -3.2 -0.7 -3.2 0.6 0 1 0.7 1 1.5 0 0.8 0.6 1.5 1.4 1.5 0.8 0 1.8 0.5 2.1 1 1.1 1.8 -2.1 1.1 -3.8 -0.8z"/>
  <path d="M115.7 30.3 c-2.2 -15.1 -2.2 -17.3 0.1 -17.3 0.9 0 4.1 -0.3 7 -0.6 l5.2 -0.7 0 3.7 c0 3.9 -2.4 5.1 -3.3 1.6 -0.4 -1.4 -1.4 -2 -3.5 -2 -1.7 0 -3.2 0.5 -3.4 1.2 -0.2 0.6 0.3 6 1.2 11.9 1.5 10 1.3 13.9 -0.8 13.9 -0.4 0 -1.6 -5.3 -2.5 -11.7z"/>
  <path d="M106.6 33.8 c-1 -3.8 -0.7 -4.8 1.4 -4.8 1.6 0 2 0.7 2 3.5 0 4 -2.4 4.9 -3.4 1.3z"/>
  <path d="M95.3 28.3 c1.5 -0.2 3.7 -0.2 5 0 1.2 0.2 0 0.4 -2.8 0.4 -2.7 0 -3.8 -0.2 -2.2 -0.4z"/>
  <path d="M104 27 c-0.8 -0.5 -3.6 -1 -6.2 -1 -4.1 0 -4.8 -0.3 -4.8 -2 0 -1.4 0.7 -2 2.4 -2 2.5 0 4.4 -3.6 2.2 -4.3 -0.6 -0.2 -0.4 -0.3 0.4 -0.3 0.8 0.1 1.6 1.1 1.8 2.4 0.5 3.3 2.2 2.7 2.2 -0.8 0 -2.5 -0.6 -3.4 -3.2 -4.5 l-3.3 -1.4 3.1 -0.1 c4 0 5.2 1.5 5.6 7 0.4 5.8 2.4 5 2.1 -0.9 -0.1 -3.2 -0.8 -5.1 -2.9 -7.2 l-2.8 -2.9 3.7 0 c3.3 0 3.7 0.3 3.7 2.5 0 1.4 0.5 2.5 1 2.5 0.6 0 1 1.6 1 3.5 0 1.9 -0.4 3.5 -1 3.5 -0.5 0 -1 1.6 -1 3.5 0 3.6 -1.2 4.3 -4 2.5z"/>
  <path d="M44 22.6 c0 -3.7 1.5 -4.6 8.3 -4.6 2 0 3.7 -0.4 3.7 -1 0 -0.5 -1.8 -1 -4.1 -1 -2.3 0 -4.7 -0.7 -5.5 -1.5 -1.4 -1.3 -0.9 -1.5 4.5 -1.5 6.1 0 6.1 0 6.1 2.9 0 2.6 -0.4 3 -3.2 3.3 -3.1 0.3 -3.3 0.5 -3 3.6 0.3 3.1 0.2 3.2 -3.2 3.2 -3.4 0 -3.6 -0.2 -3.6 -3.4z"/>
  <path d="M67 20.5 c0 -3.3 0.2 -3.5 3.5 -3.5 l3.4 0 -2.4 2.6 c-1.4 1.5 -2.5 3.1 -2.5 3.5 0 0.5 -0.4 0.9 -1 0.9 -0.5 0 -1 -1.6 -1 -3.5z"/>
  <path d="M75 20.5 c0 -0.7 1.4 -1.6 3 -2 1.7 -0.4 3 -1.1 3 -1.7 0 -0.6 -1.3 -0.8 -3 -0.6 -1.6 0.3 -3 0.1 -3 -0.4 0 -0.4 0.7 -0.8 1.5 -0.8 0.8 0 1.5 -0.4 1.5 -1 0 -0.6 3.3 -1 8.3 -0.9 4.5 0.1 7.4 0.3 6.5 0.6 -2.2 0.5 -2.4 3.3 -0.3 3.3 0.8 0 1.5 0.4 1.5 0.9 0 1.4 -2.7 2.1 -7.6 2.1 -2.4 0 -4.4 0.3 -4.4 0.8 0 0.4 -1.6 0.8 -3.5 0.9 -2.4 0.1 -3.5 -0.3 -3.5 -1.2z"/>
  <path d="M37 14.5 c0 -2.8 0.4 -3.5 2 -3.5 1.3 0 2 -0.7 2 -2 0 -1.6 0.7 -2 3.5 -2 4.4 0 4.6 2.1 0.4 3.7 -1.9 0.8 -3.4 2.3 -4.2 4.2 -1.6 4.2 -3.7 4 -3.7 -0.4z"/>
  <path d="M42 17.3 c0 -0.5 0.5 -1.5 1 -2.3 0.8 -1.2 1 -1.1 1 0.8 0 1.2 -0.4 2.2 -1 2.2 -0.5 0 -1 -0.3 -1 -0.7z"/>
 </g>
 <g fill="#2e465f">
  <path d="M6.2 75.8 c-1.9 -1.9 -1.4 -2.8 1.8 -2.8 2.3 0 3 0.4 3 2 0 2.3 -2.9 2.7 -4.8 0.8z"/>
  <path d="M79 75.5 c0 -0.9 -0.9 -1.5 -2.5 -1.5 -2.2 0 -2.5 -0.4 -2.5 -3.5 0 -2.4 0.5 -3.5 1.5 -3.5 0.8 0 1.5 0.6 1.5 1.4 0 0.8 0.8 2.3 1.8 3.5 1.5 1.8 3 2.1 12.1 2.5 9.6 0.3 10.5 0.2 13 -1.9 l2.6 -2.3 0.3 -17.9 c0.4 -19.6 -0.4 -24.7 -4.1 -25.9 -1.2 -0.4 -6.7 -0.6 -12.2 -0.5 -13 0.2 -13 0.3 -13.7 15.3 -0.4 7.1 -1.1 12.3 -2 14 -1.5 2.8 -1.5 2.8 -3.3 0.8 -1.6 -1.8 -1.7 -2.1 -0.1 -4.5 1.3 -1.9 1.3 -2.5 0.3 -2.5 -3.4 0 -5.1 6.6 -2.4 9.2 0.8 0.6 1.1 2.2 0.9 3.5 -0.6 3.1 1.6 2.9 2.4 -0.2 1 -3.9 3.4 -3.1 3.4 1 0 3 -0.3 3.5 -2.2 3.5 -1.3 0 -4.6 0.3 -7.4 0.6 l-5.1 0.6 -0.7 -3.3 c-0.3 -1.9 -1.8 -5.1 -3.1 -7.1 l-2.5 -3.8 2.2 0 c3.1 0.1 6.9 6 5.6 8.4 -1.3 2.3 -0.3 3.2 1.7 1.6 2 -1.6 1.9 -4 -0.2 -6.9 -1.3 -1.9 -1.4 -2.8 -0.5 -4.2 1.5 -2.4 1.5 -2.9 -0.3 -2.9 -0.7 0 -1.9 0.8 -2.5 1.8 -1 1.4 -1.1 1.3 -0.6 -0.8 0.3 -1.4 0.6 -3 0.6 -3.7 0 -0.8 2.3 -1.3 6.7 -1.5 4.2 -0.2 6.8 -0.8 7.1 -1.5 0.2 -0.8 -0.5 -1.3 -1.5 -1.3 -1.2 0 -1.9 -0.7 -1.9 -2 0 -1.3 0.7 -2 1.8 -2 2.4 0 2.3 -2.1 -0.2 -2.7 -1.1 -0.3 -2 -1.1 -2 -1.8 0 -0.7 -0.4 -1.5 -1 -1.7 -1.4 -0.4 0.6 -7 3.1 -10.2 1.1 -1.4 2.8 -2.6 3.8 -2.6 0.9 0 2.6 -0.7 3.7 -1.6 1.8 -1.4 1.7 -1.5 -1.6 -1.1 -1.9 0.2 -4.3 0.7 -5.2 1.2 -1 0.4 -1.8 0.3 -1.8 -0.1 0 -1.8 8.8 -3.7 18.6 -4.2 12 -0.5 13.4 0.3 13.4 7.5 0 3.1 0.4 4.3 1.3 4.1 2.8 -1 1.8 -9.7 -1.5 -12.8 -1.6 -1.4 -3.6 -2 -7 -2 l-4.8 0 0 -5 0 -5 22.4 0 22.5 0 0.6 5.8 c0.4 3.1 0.9 6.6 1.2 7.6 0.4 1.5 0.1 1.8 -1.6 1.3 -3.1 -0.8 -3.6 1.1 -5.7 18.8 -1.9 15.6 -2.4 16 -3.9 2.5 -0.3 -3 -1.1 -9 -1.7 -13.2 l-1.1 -7.8 -3.3 0 c-1.8 0 -3.5 0.4 -3.8 0.8 -0.2 0.4 0.3 5.9 1.2 12 1.2 8.2 1.3 11.8 0.6 13 -0.8 1.3 -0.7 2.3 0.7 4.2 1.2 1.7 2.1 5.8 2.8 12.7 0.5 5.7 1.2 10.7 1.6 11.3 0.3 0.5 2.8 1 5.6 1 4.7 0 4.9 -0.1 5 -2.7 0 -2.8 0 -2.8 1 -0.5 0.5 1.3 0.7 2.8 0.4 3.2 -0.3 0.5 0 1.2 0.6 1.5 0.5 0.4 0.8 1.3 0.5 2.1 -0.4 0.9 0.2 1.4 1.5 1.4 1.1 0 1.7 0.5 1.4 1 -0.4 0.6 -11.8 1 -31.1 1 -26.4 0 -30.4 -0.2 -30.4 -1.5z m-3.3 -47.2 c0.9 -2.3 2.9 -4.3 4.2 -4.3 0.6 0 1.1 -0.7 1.1 -1.5 0 -1.8 -1.1 -1.9 -4.4 -0.4 -2.2 1.1 -3.6 3.5 -3.6 6.7 0 1.8 2 1.5 2.7 -0.5z m27.3 -8.1 c0 -1 -0.7 -2.8 -1.6 -4 -1.3 -1.9 -2.3 -2.3 -6.2 -2 -5.9 0.4 -6.1 2.2 -0.4 2.6 2.7 0.2 4.5 0.9 4.8 1.8 0.2 0.8 0.6 2.1 0.9 3 0.6 1.9 2.5 0.9 2.5 -1.4z m-9.5 0.8 c0.4 -0.6 -0.8 -1 -2.9 -1 -2 0 -3.6 -0.4 -3.6 -1 0 -0.5 -0.4 -1 -1 -1 -0.5 0 -1 0.9 -1 2 0 1.7 0.7 2 3.9 2 2.2 0 4.3 -0.4 4.6 -1z m-4.7 -5.1 c-0.2 -0.6 -0.8 -1 -1.3 -1 -0.5 0 -1.1 0.4 -1.3 1 -0.2 0.6 0.4 1.1 1.3 1.1 0.9 0 1.5 -0.5 1.3 -1.1z"/>
  <path d="M83 68.5 c0 -2.4 0.3 -2.5 5.8 -2.6 8.9 -0.2 14.5 0 15.1 0.6 0.3 0.3 0 1.4 -0.5 2.3 -0.8 1.2 -2.6 1.8 -6 1.9 -2.7 0.1 -4.1 -0.1 -3.1 -0.4 0.9 -0.2 1.7 -1.1 1.7 -1.9 0 -1.2 -1 -1.4 -4.2 -1.2 -4.5 0.3 -6.3 2.4 -2.6 3.1 1.3 0.2 0.5 0.5 -1.9 0.6 -4 0.1 -4.3 -0.1 -4.3 -2.4z"/>
  <path d="M80 61 c0 -1.5 0.7 -2 2.5 -2 1.6 0 2.5 -0.6 2.5 -1.5 0 -0.8 -0.4 -1.5 -1 -1.5 -0.5 0 -1 -0.6 -1 -1.4 0 -0.9 1.1 -0.3 2.9 1.5 3.8 3.7 7.6 3.8 11.3 0.2 3.7 -3.6 3.9 -8.9 0.3 -12.3 -2.8 -2.7 -4.7 -2 -2.2 0.8 3.6 4 1 11.2 -4 11.2 -4.4 0 -7.1 -7.1 -3.8 -10.4 1.6 -1.6 2 -3.6 0.7 -3.6 -1.5 0 -4 3.4 -4.7 6.3 -0.4 1.5 -1.3 2.7 -2.1 2.7 -1.1 0 -1.4 -1.6 -1.3 -6.7 0.1 -3.8 0.4 -5.8 0.6 -4.5 0.5 2.7 2.3 2.9 3 0.2 0.3 -1.1 1.4 -2 2.4 -2 2.6 0 2.4 -1.9 -0.3 -3 -1.6 -0.6 0.8 -0.9 8 -0.9 l10.2 -0.1 0 14.5 0 14.5 -12 0 c-11.3 0 -12 -0.1 -12 -2z m13 -16.1 c0 -5.2 -0.3 -7 -1.2 -6.7 -0.8 0.3 -1.4 2.9 -1.6 7.1 -0.2 5.5 0 6.7 1.3 6.7 1.2 0 1.5 -1.4 1.5 -7.1z"/>
  <path d="M51 57.5 c0 -4.1 0.5 -4.3 3.1 -1.2 2.5 3.1 2.4 4.7 -0.6 4.7 -2.2 0 -2.5 -0.4 -2.5 -3.5z"/>
  <path d="M137.2 52 c0 -1.9 0.2 -2.7 0.5 -1.7 0.2 0.9 0.2 2.5 0 3.5 -0.3 0.9 -0.5 0.1 -0.5 -1.8z"/>
  <path d="M42 45.6 c0 -2.3 0.2 -2.4 3.5 -1.3 1.9 0.6 3.5 1.6 3.5 2.4 0 0.8 -1.3 1.3 -3.5 1.3 -3 0 -3.5 -0.3 -3.5 -2.4z"/>
  <path d="M303 45.6 c0 -1.4 0.5 -2.8 1 -3.1 0.6 -0.4 1 0.7 1 2.4 0 1.7 -0.4 3.1 -1 3.1 -0.5 0 -1 -1.1 -1 -2.4z"/>
  <path d="M39 38.5 c0 -1.9 0.2 -3.5 0.4 -3.5 0.2 0 0.6 1.6 0.8 3.5 0.2 1.9 0 3.5 -0.4 3.5 -0.4 0 -0.8 -1.6 -0.8 -3.5z"/>
  <path d="M43.7 40.2 c-2.3 -2.6 -2.2 -5.2 0.3 -5.2 1.1 0 2 0.7 2 1.5 0 0.8 0.7 1.5 1.6 1.5 1.1 0 1.4 0.5 1 1.6 -0.3 0.9 -0.6 1.8 -0.6 2 0 1.1 -2.9 0.2 -4.3 -1.4z"/>
  <path d="M139.2 39.8 c-0.5 -0.7 -0.6 -2.2 -0.2 -3.3 0.6 -1.7 0.8 -1.5 1.2 1.3 0.5 3.6 0.5 3.7 -1 2z"/>
  <path d="M80 30.1 c0 -1.6 3 -2.1 12.5 -2.1 7 0 9.6 0.4 10.5 1.5 1.1 1.3 0.3 1.5 -5.9 1.5 -4.1 0 -7.1 -0.4 -7.1 -1 0 -0.5 -1.3 -1 -3 -1 -1.6 0 -3 0.5 -3 1 0 0.6 -0.9 1 -2 1 -1.1 0 -2 -0.4 -2 -0.9z"/>
  <path d="M67 26.5 c0 -1.9 0.4 -3.5 0.8 -3.5 0.4 0 0.6 1.6 0.4 3.5 -0.2 1.9 -0.6 3.5 -0.8 3.5 -0.2 0 -0.4 -1.6 -0.4 -3.5z"/>
  <path d="M43.2 22 c0.2 -2.2 0 -4 -0.4 -4 -1.3 0 -0.9 -1.8 0.8 -3.4 1.1 -1.2 3.6 -1.6 9 -1.6 l7.5 0 -0.3 4.3 c-0.2 3.5 -0.7 4.3 -2.5 4.5 -1.5 0.2 -2.3 1 -2.3 2.3 0 1.7 -0.7 1.9 -6.1 1.9 l-6.1 0 0.4 -4z m12.8 -4.9 c0 -1.5 -3.1 -2.2 -6.6 -1.5 -5.1 0.9 -4.1 2.4 1.6 2.4 2.8 0 5 -0.4 5 -0.9z"/>
  <path d="M40 12.5 c0 -0.8 0.7 -1.5 1.6 -1.5 1.4 0 1.4 0.3 0.4 1.5 -0.7 0.8 -1.4 1.5 -1.6 1.5 -0.2 0 -0.4 -0.7 -0.4 -1.5z"/>
  <path d="M4 5.2 c0 -2.3 3 -5.2 5.3 -5.2 1 0 1.7 0.8 1.7 2 0 1.1 -0.7 2 -1.5 2 -0.8 0 -1.5 0.7 -1.5 1.5 0 0.8 -0.9 1.5 -2 1.5 -1.3 0 -2 -0.7 -2 -1.8z"/>
 </g>
 <g fill="#22364c">
  <path d="M42.4 71.4 c-0.3 -3.1 -0.4 -9.6 -0.2 -14.5 0.5 -7.8 0.3 -8.9 -1.2 -9.4 -1.6 -0.5 -1.8 -2.6 -2.2 -19.3 -0.4 -15.3 -0.3 -18.9 0.9 -19.8 0.8 -0.7 1.7 -2.8 2 -4.8 l0.6 -3.6 26.2 0 26.3 0 0.4 4.6 c0.2 2.5 0.1 4.7 -0.1 5 -0.2 0.2 -11.8 0.4 -25.6 0.4 -31.6 0 -29.5 -1.3 -29.5 17.7 0 13.1 0 13.2 2.7 15.3 2.4 1.9 3.7 2 17.6 1.8 10.9 -0.2 15.1 -0.6 15.5 -1.5 0.3 -1 -2.7 -1.3 -12.8 -1.3 -12.7 0 -13 -0.1 -12 -2 0.9 -1.7 2.3 -2 12.8 -2.2 15.9 -0.4 15.1 -2.3 -1 -2.3 -11.8 0 -12.3 0.1 -13.4 2.3 -2.1 4.1 -3 4.6 -5.3 2.3 -1.9 -1.9 -2.1 -3.3 -2.1 -12.9 0 -9.3 0.3 -11.1 1.9 -12.6 1.6 -1.5 4.6 -1.6 26.2 -1.5 15 0 23.5 0.4 22.2 1 -3.5 1.3 -2.7 2.9 1.5 3 2 0.1 4.1 0.1 4.6 0 0.5 -0.1 0.5 0.6 0.1 1.6 -1.2 3 -1.3 4.8 -0.3 5.4 0.6 0.4 -2.8 0.7 -7.4 0.8 -6.3 0.1 -8.9 0.6 -10.8 2 l-2.5 1.8 0 21.3 0 21.3 2.5 1.8 c1.6 1.1 5.1 2 9.4 2.3 13.8 1.1 7.3 1.6 -19.2 1.6 l-27.1 0 -0.7 -5.6z m15.8 -9.9 c1 -2.1 0.8 -3 -1 -5.4 -1.9 -2.6 -1.9 -2.9 -0.4 -4.4 1.9 -2 0.8 -3.5 -1.6 -2.1 -2.3 1.5 -2.7 5.8 -0.7 7.7 1 1.1 1.3 2.5 0.9 4.2 -0.8 3.3 1.3 3.3 2.8 0z m7.2 0.9 c1 -2.6 0.7 -4.7 -1.1 -6.6 -1.3 -1.4 -1.4 -2.1 -0.5 -3 0.7 -0.7 1.2 -2 1.2 -3 0 -1.5 -0.3 -1.7 -1.9 -0.8 -2.9 1.5 -3.5 4.7 -1.6 7.6 1 1.6 1.4 3.5 1.1 5 -0.7 2.8 1.8 3.5 2.8 0.8z m7.4 -1.7 c0.2 -1.5 -0.4 -3.7 -1.2 -4.9 -1.4 -2 -1.4 -2.4 0 -3.9 2.3 -2.5 0.8 -4.5 -1.7 -2.3 -2.3 2 -2.5 6.7 -0.4 8.4 1 0.9 1.2 1.7 0.5 3 -0.5 0.9 -0.6 2 -0.3 2.4 1.3 1.2 2.8 -0.1 3.1 -2.7z m-2.3 -33.4 c1.1 -4.7 3.3 -7.2 7.5 -8.3 4.5 -1.2 5.4 -3 1.5 -3 -6 0 -11.5 5.5 -11.5 11.5 0 3.3 1.6 3.2 2.5 -0.2z m5.7 0.5 c0.2 -1.3 1.5 -2.9 3.1 -3.6 3.8 -1.8 2.1 -4.1 -1.7 -2.4 -2.6 1.2 -6 6.5 -4.9 7.6 1.4 1.3 3.2 0.5 3.5 -1.6z m-28.2 -6.3 c0 -0.8 -0.4 -1.5 -1 -1.5 -0.5 0 -1 0.7 -1 1.5 0 0.8 0.5 1.5 1 1.5 0.6 0 1 -0.7 1 -1.5z m8.5 -4.5 c0 -1.1 -1.3 -1.6 -4.4 -1.8 -4.5 -0.3 -6.8 0.8 -5.6 2.8 1.1 1.7 10 0.9 10 -1z m32.5 -1.5 c0 -0.8 -0.7 -1.5 -1.5 -1.5 -0.8 0 -1.5 0.7 -1.5 1.5 0 0.8 0.7 1.5 1.5 1.5 0.8 0 1.5 -0.7 1.5 -1.5z"/>
  <path d="M80.7 70.3 c-0.4 -0.3 -0.7 -1.5 -0.7 -2.5 0 -1.6 1 -1.8 9.9 -1.8 5.5 0 10.2 0.3 10.4 0.8 0.3 0.4 -2.5 0.6 -6.3 0.4 -5.5 -0.3 -6.8 -0.1 -7.4 1.3 -0.5 1.4 0.4 1.6 7.8 1.3 4.6 -0.2 8.2 0 7.9 0.5 -0.5 0.9 -20.7 1 -21.6 0z"/>
  <path d="M80 48 l0 -14 5.8 0 c4 0 5.3 0.3 4.2 1 -1.2 0.8 -1 1 1 1.1 1.4 0.1 3.1 0 3.9 -0.1 0.9 -0.1 1.2 0.5 0.8 1.9 -0.4 1.5 0.4 3 2.4 5 1.6 1.6 2.9 3.5 2.9 4.3 0 0.7 -0.9 -0.2 -2 -1.9 -2 -3.4 -5 -4.5 -5 -1.9 0 0.8 0.4 1.7 0.9 2 0.5 0.3 0.8 1.9 0.7 3.6 -0.1 1.6 0.2 3 0.7 3 0.6 0 0.2 0.9 -0.8 2 -1 1.1 -2.6 2 -3.7 2 -2.5 0 -5.8 -3.5 -5.8 -6.3 0 -1.3 0.9 -3.2 1.9 -4.1 1.9 -1.8 2 -1.7 2.3 2.5 0.2 2.3 0.9 4.4 1.6 4.7 0.9 0.3 1.2 -1.6 1.2 -7.2 0 -7.1 -1.5 -11.1 -2.7 -6.8 -0.2 1.1 -1.6 2.5 -2.9 3.1 -4.9 2.2 -5.7 9.3 -1.7 14.1 2.2 2.7 3.2 3.1 6.4 2.8 2 -0.2 3.5 0 3.3 0.4 -0.2 0.4 0.4 1.1 1.3 1.7 1.3 0.8 -0.6 1 -7.4 1.1 l-9.3 0 0 -14z m4 -7.5 c0.5 -1.4 1.6 -2.5 2.5 -2.5 0.8 0 1.5 -0.7 1.5 -1.5 0 -1 -1.1 -1.5 -3.5 -1.5 -3.3 0 -3.5 0.2 -3.5 3.3 0 3 0.6 4.7 1.7 4.7 0.2 0 0.8 -1.1 1.3 -2.5z"/>
  <path d="M303 46.8 c0 -0.7 0.5 -2 1 -2.8 0.8 -1.2 1 -0.9 1 1.3 0 1.5 -0.4 2.7 -1 2.7 -0.5 0 -1 -0.6 -1 -1.2z"/>
  <path d="M80.9 29.6 c1.4 -1.7 11.8 -2.2 15.5 -0.7 2 0.8 2 0.8 0 1.3 -1 0.2 -5.2 0.6 -9.3 0.7 -6.7 0.2 -7.3 0.1 -6.2 -1.3z"/>
 </g>
 <g fill="#17283a">
  <path d="M6 75 c-1.9 -1.9 -2 -3.3 -2 -36.5 0 -33.2 0.1 -34.6 2 -36.5 1.9 -1.9 3.3 -2 20.6 -2 l18.6 0 -0.4 4.5 c-0.2 2.6 0.1 4.5 0.7 4.5 0.5 0 0.1 0.6 -1 1.2 -4.1 2.2 -4.5 3.7 -4.5 17.3 0 11.8 0.2 13.3 2 15.3 1.4 1.5 3.4 2.2 6.3 2.4 3.5 0.1 3.7 0.2 1 0.5 -3 0.4 -3.1 0.6 -3.6 5.6 -0.2 2.9 -0.3 9.2 -0.2 14 0.2 7.2 0.6 9 2.1 10.2 1.7 1.3 -0.7 1.4 -18.8 1.5 -19.5 0 -20.9 -0.1 -22.8 -2z"/>
  <path d="M43.6 40.3 c-1 -1 -0.6 -15.7 0.4 -17.3 0.7 -1.1 1 -0.6 1 2 0.1 4.8 1.6 11.2 3 12 1.6 1 0.3 3.6 -1.9 3.7 -1.1 0.1 -2.2 -0.1 -2.5 -0.4z"/>
  <path d="M43.4 18.5 c-0.7 -2.9 1.8 -6.7 3 -4.6 0.4 0.6 0 1.1 -1.1 1.1 -1 0 -1.4 0.4 -0.8 0.8 1.4 1 1.7 3.9 0.6 4.7 -0.6 0.3 -1.3 -0.6 -1.7 -2z"/>
 </g>
</svg>